<mxfile host="app.diagrams.net" modified="2021-12-18T02:15:41.735Z" agent="5.0 (Windows NT 10.0; Win64; x64) AppleWebKit/537.36 (KHTML, like Gecko) Chrome/96.0.4664.110 Safari/537.36" etag="Fd4GJ93OqM1A5aHUKWOt" version="15.4.1" type="github" pages="3">
  <diagram id="jRIr0wfKVOdQesPZKTkn" name="MSNN">
    <mxGraphModel dx="2591" dy="839" grid="1" gridSize="10" guides="1" tooltips="1" connect="1" arrows="1" fold="1" page="1" pageScale="1" pageWidth="1169" pageHeight="827" math="0" shadow="0">
      <root>
        <mxCell id="0" />
        <mxCell id="1" parent="0" />
        <mxCell id="K6QV_oRI_L7NrehGVFSH-1" value="" style="rounded=0;whiteSpace=wrap;html=1;" parent="1" vertex="1">
          <mxGeometry x="-1114" y="40" width="79" height="90" as="geometry" />
        </mxCell>
        <mxCell id="K6QV_oRI_L7NrehGVFSH-5" value="" style="endArrow=none;html=1;shadow=0;fontSize=20;sourcePerimeterSpacing=5;targetPerimeterSpacing=5;strokeColor=#000000;entryX=1;entryY=0;entryDx=0;entryDy=0;curved=1;" parent="1" target="K6QV_oRI_L7NrehGVFSH-1" edge="1">
          <mxGeometry width="50" height="50" relative="1" as="geometry">
            <mxPoint x="-1114" y="40" as="sourcePoint" />
            <mxPoint x="-1064" y="-10" as="targetPoint" />
            <Array as="points">
              <mxPoint x="-1074" y="10" />
            </Array>
          </mxGeometry>
        </mxCell>
        <mxCell id="K6QV_oRI_L7NrehGVFSH-6" value="n&lt;span style=&quot;font-size: 16.6667px&quot;&gt;&lt;sub&gt;t&lt;/sub&gt;&lt;/span&gt;" style="edgeLabel;html=1;align=center;verticalAlign=middle;resizable=0;points=[];fontSize=20;" parent="K6QV_oRI_L7NrehGVFSH-5" vertex="1" connectable="0">
          <mxGeometry x="-0.1462" y="-16" relative="1" as="geometry">
            <mxPoint x="-4" y="-7" as="offset" />
          </mxGeometry>
        </mxCell>
        <mxCell id="K6QV_oRI_L7NrehGVFSH-9" value="" style="endArrow=none;html=1;shadow=0;fontSize=20;sourcePerimeterSpacing=5;targetPerimeterSpacing=5;strokeColor=#000000;exitX=0;exitY=1;exitDx=0;exitDy=0;curved=1;" parent="1" source="K6QV_oRI_L7NrehGVFSH-1" edge="1">
          <mxGeometry width="50" height="50" relative="1" as="geometry">
            <mxPoint x="-1164" y="90" as="sourcePoint" />
            <mxPoint x="-1114" y="40" as="targetPoint" />
            <Array as="points">
              <mxPoint x="-1145" y="85" />
            </Array>
          </mxGeometry>
        </mxCell>
        <mxCell id="K6QV_oRI_L7NrehGVFSH-10" value="n&lt;sub&gt;c&lt;/sub&gt;" style="edgeLabel;html=1;align=center;verticalAlign=middle;resizable=0;points=[];fontSize=20;" parent="K6QV_oRI_L7NrehGVFSH-9" vertex="1" connectable="0">
          <mxGeometry x="-0.2917" y="-19" relative="1" as="geometry">
            <mxPoint x="-5" y="-7" as="offset" />
          </mxGeometry>
        </mxCell>
        <mxCell id="K6QV_oRI_L7NrehGVFSH-11" value="" style="shape=flexArrow;endArrow=classic;html=1;shadow=0;fontSize=20;sourcePerimeterSpacing=5;targetPerimeterSpacing=5;strokeColor=#000000;" parent="1" edge="1">
          <mxGeometry width="50" height="50" relative="1" as="geometry">
            <mxPoint x="-1015" y="84.75" as="sourcePoint" />
            <mxPoint x="-905" y="85" as="targetPoint" />
          </mxGeometry>
        </mxCell>
        <mxCell id="K6QV_oRI_L7NrehGVFSH-12" value="2DConv" style="edgeLabel;html=1;align=center;verticalAlign=middle;resizable=0;points=[];fontSize=20;" parent="K6QV_oRI_L7NrehGVFSH-11" vertex="1" connectable="0">
          <mxGeometry x="0.0182" y="2" relative="1" as="geometry">
            <mxPoint x="-11" y="2" as="offset" />
          </mxGeometry>
        </mxCell>
        <mxCell id="K6QV_oRI_L7NrehGVFSH-14" value="" style="shape=cube;whiteSpace=wrap;html=1;boundedLbl=1;backgroundOutline=1;darkOpacity=0.05;darkOpacity2=0.1;fontSize=20;rotation=90;" parent="1" vertex="1">
          <mxGeometry x="-892.18" y="27.810000000000002" width="110" height="94.38" as="geometry" />
        </mxCell>
        <mxCell id="K6QV_oRI_L7NrehGVFSH-15" value="&lt;font style=&quot;font-size: 16px&quot;&gt;[1 x 1 x f&lt;sub&gt;s&amp;nbsp;&lt;/sub&gt;/ 2 x F&lt;sub&gt;0&lt;/sub&gt;]&lt;/font&gt;" style="text;html=1;strokeColor=none;fillColor=none;align=center;verticalAlign=middle;whiteSpace=wrap;rounded=0;fontSize=20;" parent="1" vertex="1">
          <mxGeometry x="-1035" y="118.75" width="140" height="20" as="geometry" />
        </mxCell>
        <mxCell id="K6QV_oRI_L7NrehGVFSH-22" value="" style="endArrow=none;html=1;shadow=0;fontSize=20;sourcePerimeterSpacing=5;targetPerimeterSpacing=5;strokeColor=#000000;curved=1;" parent="1" edge="1">
          <mxGeometry width="50" height="50" relative="1" as="geometry">
            <mxPoint x="-865" y="20" as="sourcePoint" />
            <mxPoint x="-885" y="40" as="targetPoint" />
            <Array as="points">
              <mxPoint x="-885" y="20" />
            </Array>
          </mxGeometry>
        </mxCell>
        <mxCell id="K6QV_oRI_L7NrehGVFSH-24" value="&lt;font style=&quot;font-size: 16px&quot;&gt;F&lt;sub&gt;0&lt;/sub&gt;&lt;/font&gt;" style="text;html=1;strokeColor=none;fillColor=none;align=center;verticalAlign=middle;whiteSpace=wrap;rounded=0;fontSize=20;" parent="1" vertex="1">
          <mxGeometry x="-915" y="10.630000000000003" width="40" height="20" as="geometry" />
        </mxCell>
        <mxCell id="K6QV_oRI_L7NrehGVFSH-25" value="&lt;font style=&quot;font-size: 16px&quot;&gt;[1 x 1 x T&lt;sub&gt;1&lt;/sub&gt;&amp;nbsp;x F&lt;sub&gt;0,&lt;br&gt;&lt;/sub&gt;F&lt;sub&gt;0&lt;/sub&gt; x 1 x 1 x F&lt;sub&gt;1&lt;/sub&gt;]&lt;/font&gt;" style="text;html=1;strokeColor=none;fillColor=none;align=center;verticalAlign=middle;whiteSpace=wrap;rounded=0;fontSize=20;" parent="1" vertex="1">
          <mxGeometry x="-795" y="122.19" width="140" height="20" as="geometry" />
        </mxCell>
        <mxCell id="K6QV_oRI_L7NrehGVFSH-26" value="" style="shape=flexArrow;endArrow=classic;html=1;shadow=0;fontSize=20;sourcePerimeterSpacing=5;targetPerimeterSpacing=5;strokeColor=#000000;" parent="1" edge="1">
          <mxGeometry width="50" height="50" relative="1" as="geometry">
            <mxPoint x="-782.1800000000001" y="84.58000000000001" as="sourcePoint" />
            <mxPoint x="-652.1800000000001" y="85.08000000000001" as="targetPoint" />
          </mxGeometry>
        </mxCell>
        <mxCell id="K6QV_oRI_L7NrehGVFSH-27" value="SepConv" style="edgeLabel;html=1;align=center;verticalAlign=middle;resizable=0;points=[];fontSize=20;" parent="K6QV_oRI_L7NrehGVFSH-26" vertex="1" connectable="0">
          <mxGeometry x="0.0182" y="2" relative="1" as="geometry">
            <mxPoint y="1" as="offset" />
          </mxGeometry>
        </mxCell>
        <mxCell id="K6QV_oRI_L7NrehGVFSH-29" value="&lt;font style=&quot;font-size: 16px&quot;&gt;[1&amp;nbsp;&lt;/font&gt;&lt;font&gt;&lt;span style=&quot;font-size: 16px&quot;&gt;x 1 x T&lt;/span&gt;&lt;sub style=&quot;font-size: 16px&quot;&gt;1&lt;/sub&gt;&lt;span style=&quot;font-size: 16px&quot;&gt;&amp;nbsp;x F1&lt;/span&gt;&lt;sub style=&quot;font-size: 16px&quot;&gt;,&lt;br&gt;&lt;/sub&gt;&lt;span style=&quot;font-size: 16px&quot;&gt;F&lt;/span&gt;&lt;sub style=&quot;font-size: 16px&quot;&gt;1&lt;/sub&gt;&lt;span style=&quot;font-size: 16px&quot;&gt; x 1 x 1 x F&lt;/span&gt;&lt;sub style=&quot;font-size: 16px&quot;&gt;2&lt;/sub&gt;&lt;span style=&quot;font-size: 16px&quot;&gt;]&lt;/span&gt;&lt;/font&gt;" style="text;html=1;strokeColor=none;fillColor=none;align=center;verticalAlign=middle;whiteSpace=wrap;rounded=0;fontSize=20;" parent="1" vertex="1">
          <mxGeometry x="-579" y="118.75" width="190" height="20" as="geometry" />
        </mxCell>
        <mxCell id="K6QV_oRI_L7NrehGVFSH-34" value="" style="shape=flexArrow;endArrow=classic;html=1;shadow=0;fontSize=20;sourcePerimeterSpacing=5;targetPerimeterSpacing=5;strokeColor=#000000;" parent="1" edge="1">
          <mxGeometry width="50" height="50" relative="1" as="geometry">
            <mxPoint x="-262.06" y="84.65999999999988" as="sourcePoint" />
            <mxPoint x="-132.06" y="85.15999999999988" as="targetPoint" />
          </mxGeometry>
        </mxCell>
        <mxCell id="K6QV_oRI_L7NrehGVFSH-35" value="SepConv" style="edgeLabel;html=1;align=center;verticalAlign=middle;resizable=0;points=[];fontSize=20;" parent="K6QV_oRI_L7NrehGVFSH-34" vertex="1" connectable="0">
          <mxGeometry x="0.0182" y="2" relative="1" as="geometry">
            <mxPoint y="1" as="offset" />
          </mxGeometry>
        </mxCell>
        <mxCell id="K6QV_oRI_L7NrehGVFSH-37" value="&lt;font style=&quot;font-size: 16px&quot;&gt;[1 x 1 x T&lt;sub&gt;1&lt;/sub&gt;&amp;nbsp;x F&lt;sub&gt;k-1,&lt;br&gt;&lt;/sub&gt;F&lt;sub&gt;k-1&lt;/sub&gt; x 1 x 1 x F&lt;/font&gt;&lt;font&gt;&lt;span style=&quot;font-size: 13.3333px&quot;&gt;k&lt;/span&gt;&lt;span style=&quot;font-size: 16px&quot;&gt;]&lt;/span&gt;&lt;/font&gt;" style="text;html=1;strokeColor=none;fillColor=none;align=center;verticalAlign=middle;whiteSpace=wrap;rounded=0;fontSize=20;" parent="1" vertex="1">
          <mxGeometry x="-275" y="118.75" width="140" height="20" as="geometry" />
        </mxCell>
        <mxCell id="K6QV_oRI_L7NrehGVFSH-44" value=". . ." style="text;html=1;strokeColor=none;fillColor=none;align=center;verticalAlign=middle;whiteSpace=wrap;rounded=0;fontSize=20;" parent="1" vertex="1">
          <mxGeometry x="-302.06" y="59.999999999999986" width="40" height="20" as="geometry" />
        </mxCell>
        <mxCell id="K6QV_oRI_L7NrehGVFSH-47" value="" style="shape=flexArrow;endArrow=classic;html=1;shadow=0;fontSize=20;sourcePerimeterSpacing=5;targetPerimeterSpacing=5;strokeColor=#000000;" parent="1" edge="1">
          <mxGeometry width="50" height="50" relative="1" as="geometry">
            <mxPoint x="-605.5" y="160" as="sourcePoint" />
            <mxPoint x="-605.5" y="240" as="targetPoint" />
          </mxGeometry>
        </mxCell>
        <mxCell id="K6QV_oRI_L7NrehGVFSH-48" value="2DConv" style="edgeLabel;html=1;align=center;verticalAlign=middle;resizable=0;points=[];fontSize=20;" parent="K6QV_oRI_L7NrehGVFSH-47" vertex="1" connectable="0">
          <mxGeometry x="0.0182" y="2" relative="1" as="geometry">
            <mxPoint y="1" as="offset" />
          </mxGeometry>
        </mxCell>
        <mxCell id="K6QV_oRI_L7NrehGVFSH-49" value="&lt;font style=&quot;font-size: 16px&quot;&gt;[F&lt;sub&gt;0&lt;/sub&gt; x n&lt;sub&gt;c&lt;/sub&gt; x 1&amp;nbsp;x F&lt;sub&gt;1&lt;/sub&gt;]&lt;/font&gt;" style="text;html=1;strokeColor=none;fillColor=none;align=center;verticalAlign=middle;whiteSpace=wrap;rounded=0;fontSize=20;" parent="1" vertex="1">
          <mxGeometry x="-795" y="190" width="140" height="20" as="geometry" />
        </mxCell>
        <mxCell id="K6QV_oRI_L7NrehGVFSH-50" value="" style="shape=cube;whiteSpace=wrap;html=1;boundedLbl=1;backgroundOutline=1;darkOpacity=0.05;darkOpacity2=0.1;fontSize=20;rotation=90;" parent="1" vertex="1">
          <mxGeometry x="-616.5" y="240" width="35" height="98.75" as="geometry" />
        </mxCell>
        <mxCell id="K6QV_oRI_L7NrehGVFSH-51" value="&lt;font style=&quot;font-size: 16px&quot;&gt;F&lt;sub&gt;1&lt;/sub&gt;&lt;/font&gt;" style="text;html=1;strokeColor=none;fillColor=none;align=center;verticalAlign=middle;whiteSpace=wrap;rounded=0;fontSize=20;" parent="1" vertex="1">
          <mxGeometry x="-679" y="262" width="40" height="20" as="geometry" />
        </mxCell>
        <mxCell id="K6QV_oRI_L7NrehGVFSH-52" value="" style="endArrow=none;html=1;shadow=0;fontSize=20;sourcePerimeterSpacing=5;targetPerimeterSpacing=5;strokeColor=#000000;curved=1;exitX=0;exitY=0;exitDx=0;exitDy=98.75;exitPerimeter=0;entryX=0;entryY=0;entryDx=20;entryDy=118.75;entryPerimeter=0;" parent="1" edge="1">
          <mxGeometry width="50" height="50" relative="1" as="geometry">
            <mxPoint x="-628.375" y="271.3750000000001" as="sourcePoint" />
            <mxPoint x="-648.375" y="291.3750000000001" as="targetPoint" />
            <Array as="points">
              <mxPoint x="-649" y="271.37" />
            </Array>
          </mxGeometry>
        </mxCell>
        <mxCell id="K6QV_oRI_L7NrehGVFSH-56" value="" style="shape=flexArrow;endArrow=classic;html=1;shadow=0;fontSize=20;sourcePerimeterSpacing=5;targetPerimeterSpacing=5;strokeColor=#000000;" parent="1" edge="1">
          <mxGeometry width="50" height="50" relative="1" as="geometry">
            <mxPoint x="-359.34" y="160" as="sourcePoint" />
            <mxPoint x="-359.34" y="240" as="targetPoint" />
          </mxGeometry>
        </mxCell>
        <mxCell id="K6QV_oRI_L7NrehGVFSH-57" value="2DConv" style="edgeLabel;html=1;align=center;verticalAlign=middle;resizable=0;points=[];fontSize=20;" parent="K6QV_oRI_L7NrehGVFSH-56" vertex="1" connectable="0">
          <mxGeometry x="0.0182" y="2" relative="1" as="geometry">
            <mxPoint y="1" as="offset" />
          </mxGeometry>
        </mxCell>
        <mxCell id="K6QV_oRI_L7NrehGVFSH-58" value="&lt;font style=&quot;font-size: 16px&quot;&gt;[F&lt;sub&gt;1&lt;/sub&gt; x n&lt;sub&gt;c&lt;/sub&gt; x 1&amp;nbsp;x F&lt;/font&gt;&lt;font&gt;&lt;span style=&quot;font-size: 13.3333px&quot;&gt;2&lt;/span&gt;&lt;span style=&quot;font-size: 16px&quot;&gt;]&lt;/span&gt;&lt;/font&gt;" style="text;html=1;strokeColor=none;fillColor=none;align=center;verticalAlign=middle;whiteSpace=wrap;rounded=0;fontSize=20;" parent="1" vertex="1">
          <mxGeometry x="-545" y="190" width="140" height="20" as="geometry" />
        </mxCell>
        <mxCell id="K6QV_oRI_L7NrehGVFSH-59" value="" style="shape=cube;whiteSpace=wrap;html=1;boundedLbl=1;backgroundOutline=1;darkOpacity=0.05;darkOpacity2=0.1;fontSize=20;rotation=90;" parent="1" vertex="1">
          <mxGeometry x="-374.32" y="240" width="35" height="98.75" as="geometry" />
        </mxCell>
        <mxCell id="K6QV_oRI_L7NrehGVFSH-60" value="&lt;font style=&quot;font-size: 16px&quot;&gt;F&lt;/font&gt;&lt;font style=&quot;font-size: 13.3333px&quot;&gt;2&lt;/font&gt;" style="text;html=1;strokeColor=none;fillColor=none;align=center;verticalAlign=middle;whiteSpace=wrap;rounded=0;fontSize=20;" parent="1" vertex="1">
          <mxGeometry x="-436.82" y="262" width="40" height="20" as="geometry" />
        </mxCell>
        <mxCell id="K6QV_oRI_L7NrehGVFSH-61" value="" style="endArrow=none;html=1;shadow=0;fontSize=20;sourcePerimeterSpacing=5;targetPerimeterSpacing=5;strokeColor=#000000;curved=1;exitX=0;exitY=0;exitDx=0;exitDy=98.75;exitPerimeter=0;entryX=0;entryY=0;entryDx=20;entryDy=118.75;entryPerimeter=0;" parent="1" edge="1">
          <mxGeometry width="50" height="50" relative="1" as="geometry">
            <mxPoint x="-386.195" y="271.375" as="sourcePoint" />
            <mxPoint x="-406.195" y="291.375" as="targetPoint" />
            <Array as="points">
              <mxPoint x="-406.82" y="271.37" />
            </Array>
          </mxGeometry>
        </mxCell>
        <mxCell id="K6QV_oRI_L7NrehGVFSH-62" value="" style="shape=flexArrow;endArrow=classic;html=1;shadow=0;fontSize=20;sourcePerimeterSpacing=5;targetPerimeterSpacing=5;strokeColor=#000000;" parent="1" edge="1">
          <mxGeometry width="50" height="50" relative="1" as="geometry">
            <mxPoint x="-85" y="160" as="sourcePoint" />
            <mxPoint x="-85" y="240" as="targetPoint" />
          </mxGeometry>
        </mxCell>
        <mxCell id="K6QV_oRI_L7NrehGVFSH-63" value="2DConv" style="edgeLabel;html=1;align=center;verticalAlign=middle;resizable=0;points=[];fontSize=20;" parent="K6QV_oRI_L7NrehGVFSH-62" vertex="1" connectable="0">
          <mxGeometry x="0.0182" y="2" relative="1" as="geometry">
            <mxPoint y="1" as="offset" />
          </mxGeometry>
        </mxCell>
        <mxCell id="K6QV_oRI_L7NrehGVFSH-64" value="&lt;font style=&quot;font-size: 16px&quot;&gt;[F&lt;sub&gt;k-1&lt;/sub&gt; x n&lt;sub&gt;c&lt;/sub&gt; x 1&amp;nbsp;x F&lt;sub&gt;k&lt;/sub&gt;]&lt;/font&gt;" style="text;html=1;strokeColor=none;fillColor=none;align=center;verticalAlign=middle;whiteSpace=wrap;rounded=0;fontSize=20;" parent="1" vertex="1">
          <mxGeometry x="-275" y="190" width="140" height="20" as="geometry" />
        </mxCell>
        <mxCell id="K6QV_oRI_L7NrehGVFSH-66" value="&lt;font style=&quot;font-size: 16px&quot;&gt;F&lt;sub&gt;k&lt;/sub&gt;&lt;/font&gt;" style="text;html=1;strokeColor=none;fillColor=none;align=center;verticalAlign=middle;whiteSpace=wrap;rounded=0;fontSize=20;" parent="1" vertex="1">
          <mxGeometry x="-156.82" y="262" width="40" height="20" as="geometry" />
        </mxCell>
        <mxCell id="K6QV_oRI_L7NrehGVFSH-67" value="" style="endArrow=none;html=1;shadow=0;fontSize=20;sourcePerimeterSpacing=5;targetPerimeterSpacing=5;strokeColor=#000000;curved=1;exitX=0;exitY=0;exitDx=0;exitDy=98.75;exitPerimeter=0;entryX=0;entryY=0;entryDx=20;entryDy=118.75;entryPerimeter=0;" parent="1" edge="1">
          <mxGeometry width="50" height="50" relative="1" as="geometry">
            <mxPoint x="-106.195" y="271.375" as="sourcePoint" />
            <mxPoint x="-126.195" y="291.375" as="targetPoint" />
            <Array as="points">
              <mxPoint x="-126.82" y="271.37" />
            </Array>
          </mxGeometry>
        </mxCell>
        <mxCell id="K6QV_oRI_L7NrehGVFSH-68" value="" style="shape=cube;whiteSpace=wrap;html=1;boundedLbl=1;backgroundOutline=1;darkOpacity=0.05;darkOpacity2=0.1;fontSize=20;rotation=90;" parent="1" vertex="1">
          <mxGeometry x="-424" y="452.75" width="35" height="103.74" as="geometry" />
        </mxCell>
        <mxCell id="K6QV_oRI_L7NrehGVFSH-70" value="" style="shape=cube;whiteSpace=wrap;html=1;boundedLbl=1;backgroundOutline=1;darkOpacity=0.05;darkOpacity2=0.1;fontSize=20;rotation=90;" parent="1" vertex="1">
          <mxGeometry x="-443.5" y="472.75" width="35" height="103.74" as="geometry" />
        </mxCell>
        <mxCell id="K6QV_oRI_L7NrehGVFSH-72" value="&lt;h6&gt;&lt;font style=&quot;font-size: 19px ; line-height: 60%&quot;&gt;.&lt;br&gt;&lt;/font&gt;&lt;font style=&quot;font-size: 19px ; line-height: 60%&quot;&gt;.&lt;br&gt;&lt;/font&gt;&lt;font style=&quot;font-size: 19px ; line-height: 60%&quot;&gt;.&lt;/font&gt;&lt;/h6&gt;" style="text;html=1;strokeColor=none;fillColor=none;align=center;verticalAlign=middle;whiteSpace=wrap;rounded=0;fontSize=20;" parent="1" vertex="1">
          <mxGeometry x="-381.83" y="452.75" width="40" height="20" as="geometry" />
        </mxCell>
        <mxCell id="K6QV_oRI_L7NrehGVFSH-74" value="&lt;font style=&quot;font-size: 16px&quot;&gt;F&lt;sub&gt;1&lt;/sub&gt;&lt;/font&gt;" style="text;html=1;strokeColor=none;fillColor=none;align=center;verticalAlign=middle;whiteSpace=wrap;rounded=0;fontSize=20;" parent="1" vertex="1">
          <mxGeometry x="-513.43" y="505.25" width="40" height="20" as="geometry" />
        </mxCell>
        <mxCell id="K6QV_oRI_L7NrehGVFSH-75" value="" style="endArrow=none;html=1;shadow=0;fontSize=20;sourcePerimeterSpacing=5;targetPerimeterSpacing=5;strokeColor=#000000;curved=1;entryX=0;entryY=0;entryDx=20;entryDy=103.74;entryPerimeter=0;" parent="1" target="K6QV_oRI_L7NrehGVFSH-70" edge="1">
          <mxGeometry width="50" height="50" relative="1" as="geometry">
            <mxPoint x="-458" y="507" as="sourcePoint" />
            <mxPoint x="-475.5899999999999" y="527.89" as="targetPoint" />
            <Array as="points">
              <mxPoint x="-481.43" y="507.25" />
            </Array>
          </mxGeometry>
        </mxCell>
        <mxCell id="K6QV_oRI_L7NrehGVFSH-79" value="&lt;font style=&quot;font-size: 16px&quot;&gt;F&lt;/font&gt;&lt;font style=&quot;font-size: 13.3333px&quot;&gt;2&lt;/font&gt;" style="text;html=1;strokeColor=none;fillColor=none;align=center;verticalAlign=middle;whiteSpace=wrap;rounded=0;fontSize=20;" parent="1" vertex="1">
          <mxGeometry x="-488.61" y="477.88" width="40" height="20" as="geometry" />
        </mxCell>
        <mxCell id="K6QV_oRI_L7NrehGVFSH-80" value="" style="endArrow=none;html=1;shadow=0;fontSize=20;sourcePerimeterSpacing=5;targetPerimeterSpacing=5;strokeColor=#000000;curved=1;exitX=0;exitY=0;exitDx=0;exitDy=98.75;exitPerimeter=0;entryX=0;entryY=0;entryDx=20;entryDy=118.75;entryPerimeter=0;" parent="1" edge="1">
          <mxGeometry width="50" height="50" relative="1" as="geometry">
            <mxPoint x="-437.985" y="487.255" as="sourcePoint" />
            <mxPoint x="-457.985" y="507.255" as="targetPoint" />
            <Array as="points">
              <mxPoint x="-458.61" y="487.25" />
            </Array>
          </mxGeometry>
        </mxCell>
        <mxCell id="K6QV_oRI_L7NrehGVFSH-81" value="&lt;font style=&quot;font-size: 16px&quot;&gt;F&lt;sub&gt;k&lt;/sub&gt;&lt;/font&gt;" style="text;html=1;strokeColor=none;fillColor=none;align=center;verticalAlign=middle;whiteSpace=wrap;rounded=0;fontSize=20;" parent="1" vertex="1">
          <mxGeometry x="-442.7" y="393.75" width="40" height="20" as="geometry" />
        </mxCell>
        <mxCell id="K6QV_oRI_L7NrehGVFSH-82" value="" style="endArrow=none;html=1;shadow=0;fontSize=20;sourcePerimeterSpacing=5;targetPerimeterSpacing=5;strokeColor=#000000;curved=1;exitX=0;exitY=0;exitDx=0;exitDy=98.75;exitPerimeter=0;entryX=0;entryY=0;entryDx=20;entryDy=118.75;entryPerimeter=0;" parent="1" edge="1">
          <mxGeometry width="50" height="50" relative="1" as="geometry">
            <mxPoint x="-393.075" y="402.125" as="sourcePoint" />
            <mxPoint x="-413.075" y="422.125" as="targetPoint" />
            <Array as="points">
              <mxPoint x="-413.7" y="402.12" />
            </Array>
          </mxGeometry>
        </mxCell>
        <mxCell id="K6QV_oRI_L7NrehGVFSH-83" value="" style="shape=cube;whiteSpace=wrap;html=1;boundedLbl=1;backgroundOutline=1;darkOpacity=0.05;darkOpacity2=0.1;fontSize=20;rotation=90;size=83;" parent="1" vertex="1">
          <mxGeometry x="-431.85" y="616.01" width="108.71" height="111.71" as="geometry" />
        </mxCell>
        <mxCell id="K6QV_oRI_L7NrehGVFSH-84" value="" style="shape=flexArrow;endArrow=classic;html=1;shadow=0;fontSize=20;sourcePerimeterSpacing=5;targetPerimeterSpacing=5;strokeColor=#000000;" parent="1" edge="1">
          <mxGeometry width="50" height="50" relative="1" as="geometry">
            <mxPoint x="-364.71" y="319" as="sourcePoint" />
            <mxPoint x="-365" y="380" as="targetPoint" />
          </mxGeometry>
        </mxCell>
        <mxCell id="K6QV_oRI_L7NrehGVFSH-85" value="Concatenation" style="edgeLabel;html=1;align=center;verticalAlign=middle;resizable=0;points=[];fontSize=20;" parent="K6QV_oRI_L7NrehGVFSH-84" vertex="1" connectable="0">
          <mxGeometry x="0.0182" y="2" relative="1" as="geometry">
            <mxPoint y="5" as="offset" />
          </mxGeometry>
        </mxCell>
        <mxCell id="K6QV_oRI_L7NrehGVFSH-86" value="" style="shape=flexArrow;endArrow=classic;html=1;shadow=0;fontSize=20;sourcePerimeterSpacing=5;targetPerimeterSpacing=5;strokeColor=#000000;" parent="1" edge="1">
          <mxGeometry width="50" height="50" relative="1" as="geometry">
            <mxPoint x="-615" y="320" as="sourcePoint" />
            <mxPoint x="-460" y="370" as="targetPoint" />
          </mxGeometry>
        </mxCell>
        <mxCell id="K6QV_oRI_L7NrehGVFSH-87" value="Concatenation" style="edgeLabel;html=1;align=center;verticalAlign=middle;resizable=0;points=[];fontSize=20;" parent="K6QV_oRI_L7NrehGVFSH-86" vertex="1" connectable="0">
          <mxGeometry x="0.0182" y="2" relative="1" as="geometry">
            <mxPoint x="7" y="7" as="offset" />
          </mxGeometry>
        </mxCell>
        <mxCell id="K6QV_oRI_L7NrehGVFSH-88" value="" style="shape=flexArrow;endArrow=classic;html=1;shadow=0;fontSize=20;sourcePerimeterSpacing=5;targetPerimeterSpacing=5;strokeColor=#000000;" parent="1" edge="1">
          <mxGeometry width="50" height="50" relative="1" as="geometry">
            <mxPoint x="-82.42000000000004" y="322.87" as="sourcePoint" />
            <mxPoint x="-300" y="380" as="targetPoint" />
          </mxGeometry>
        </mxCell>
        <mxCell id="K6QV_oRI_L7NrehGVFSH-89" value="Concatenation" style="edgeLabel;html=1;align=center;verticalAlign=middle;resizable=0;points=[];fontSize=20;" parent="K6QV_oRI_L7NrehGVFSH-88" vertex="1" connectable="0">
          <mxGeometry x="0.0182" y="2" relative="1" as="geometry">
            <mxPoint x="1" y="1" as="offset" />
          </mxGeometry>
        </mxCell>
        <mxCell id="K6QV_oRI_L7NrehGVFSH-90" value="" style="shape=flexArrow;endArrow=classic;html=1;shadow=0;fontSize=20;sourcePerimeterSpacing=5;targetPerimeterSpacing=5;strokeColor=#000000;" parent="1" edge="1">
          <mxGeometry width="50" height="50" relative="1" as="geometry">
            <mxPoint x="-361.61000000000007" y="540" as="sourcePoint" />
            <mxPoint x="-361.86" y="606.01" as="targetPoint" />
          </mxGeometry>
        </mxCell>
        <mxCell id="K6QV_oRI_L7NrehGVFSH-91" value="Global Average Pooling" style="edgeLabel;html=1;align=center;verticalAlign=middle;resizable=0;points=[];fontSize=20;" parent="K6QV_oRI_L7NrehGVFSH-90" vertex="1" connectable="0">
          <mxGeometry x="0.0182" y="2" relative="1" as="geometry">
            <mxPoint y="-12" as="offset" />
          </mxGeometry>
        </mxCell>
        <mxCell id="K6QV_oRI_L7NrehGVFSH-92" value="" style="endArrow=none;html=1;shadow=0;fontSize=20;sourcePerimeterSpacing=5;targetPerimeterSpacing=5;strokeColor=#000000;exitX=0;exitY=0;exitDx=83;exitDy=111.71;curved=1;exitPerimeter=0;entryX=0;entryY=0;entryDx=0;entryDy=28.709999999999994;entryPerimeter=0;" parent="1" source="K6QV_oRI_L7NrehGVFSH-83" target="K6QV_oRI_L7NrehGVFSH-83" edge="1">
          <mxGeometry width="50" height="50" relative="1" as="geometry">
            <mxPoint x="-432.9100000000004" y="706.01" as="sourcePoint" />
            <mxPoint x="-349.85" y="616.01" as="targetPoint" />
            <Array as="points">
              <mxPoint x="-432.85" y="618.01" />
            </Array>
          </mxGeometry>
        </mxCell>
        <mxCell id="K6QV_oRI_L7NrehGVFSH-93" value="n&lt;sub&gt;c&lt;/sub&gt;" style="edgeLabel;html=1;align=center;verticalAlign=middle;resizable=0;points=[];fontSize=20;" parent="K6QV_oRI_L7NrehGVFSH-92" vertex="1" connectable="0">
          <mxGeometry x="-0.2917" y="-19" relative="1" as="geometry">
            <mxPoint as="offset" />
          </mxGeometry>
        </mxCell>
        <mxCell id="K6QV_oRI_L7NrehGVFSH-94" value="F&lt;sub&gt;1&lt;/sub&gt; + F&lt;sub&gt;2&lt;/sub&gt; + ... + F&lt;sub&gt;k&lt;/sub&gt;" style="edgeLabel;html=1;align=center;verticalAlign=middle;resizable=0;points=[];fontSize=20;" parent="K6QV_oRI_L7NrehGVFSH-92" vertex="1" connectable="0">
          <mxGeometry x="-0.2977" y="-18" relative="1" as="geometry">
            <mxPoint x="-55" as="offset" />
          </mxGeometry>
        </mxCell>
        <mxCell id="K6QV_oRI_L7NrehGVFSH-95" value="" style="shape=flexArrow;endArrow=classic;html=1;shadow=0;fontSize=20;sourcePerimeterSpacing=5;targetPerimeterSpacing=5;strokeColor=#000000;" parent="1" edge="1">
          <mxGeometry width="50" height="50" relative="1" as="geometry">
            <mxPoint x="-360.40000000000003" y="723.01" as="sourcePoint" />
            <mxPoint x="-360.2800000000002" y="783.01" as="targetPoint" />
          </mxGeometry>
        </mxCell>
        <mxCell id="K6QV_oRI_L7NrehGVFSH-96" value="Dense, Softmax" style="edgeLabel;html=1;align=center;verticalAlign=middle;resizable=0;points=[];fontSize=20;" parent="K6QV_oRI_L7NrehGVFSH-95" vertex="1" connectable="0">
          <mxGeometry x="0.0182" y="2" relative="1" as="geometry">
            <mxPoint x="-5" y="-11" as="offset" />
          </mxGeometry>
        </mxCell>
        <mxCell id="K6QV_oRI_L7NrehGVFSH-97" value="y&#39;" style="text;html=1;strokeColor=none;fillColor=none;align=center;verticalAlign=middle;whiteSpace=wrap;rounded=0;fontSize=20;" parent="1" vertex="1">
          <mxGeometry x="-385.57" y="796.01" width="40" height="20" as="geometry" />
        </mxCell>
        <mxCell id="GJ2BzSzPHDWUAvZUWdHp-2" value="" style="endArrow=none;html=1;shadow=0;fontSize=20;sourcePerimeterSpacing=5;targetPerimeterSpacing=5;strokeColor=#000000;exitX=0;exitY=1;exitDx=0;exitDy=0;curved=1;entryX=0;entryY=0;entryDx=20;entryDy=94.38;entryPerimeter=0;" parent="1" target="K6QV_oRI_L7NrehGVFSH-14" edge="1">
          <mxGeometry width="50" height="50" relative="1" as="geometry">
            <mxPoint x="-884" y="130.0000000000001" as="sourcePoint" />
            <mxPoint x="-884" y="10" as="targetPoint" />
            <Array as="points">
              <mxPoint x="-855" y="80" />
            </Array>
          </mxGeometry>
        </mxCell>
        <mxCell id="GJ2BzSzPHDWUAvZUWdHp-3" value="n&lt;sub&gt;c&lt;/sub&gt;" style="edgeLabel;html=1;align=center;verticalAlign=middle;resizable=0;points=[];fontSize=20;" parent="GJ2BzSzPHDWUAvZUWdHp-2" vertex="1" connectable="0">
          <mxGeometry x="-0.2917" y="-19" relative="1" as="geometry">
            <mxPoint x="-20" y="-26" as="offset" />
          </mxGeometry>
        </mxCell>
        <mxCell id="GJ2BzSzPHDWUAvZUWdHp-6" value="" style="endArrow=none;html=1;shadow=0;fontSize=20;sourcePerimeterSpacing=5;targetPerimeterSpacing=5;strokeColor=#000000;curved=1;entryX=0;entryY=0;entryDx=110;entryDy=20;entryPerimeter=0;" parent="1" edge="1">
          <mxGeometry width="50" height="50" relative="1" as="geometry">
            <mxPoint x="-885" y="40" as="sourcePoint" />
            <mxPoint x="-809.99" y="40" as="targetPoint" />
            <Array as="points">
              <mxPoint x="-845" y="70" />
            </Array>
          </mxGeometry>
        </mxCell>
        <mxCell id="GJ2BzSzPHDWUAvZUWdHp-7" value="n&#39;&lt;span style=&quot;font-size: 16.6667px&quot;&gt;&lt;sub&gt;t&lt;/sub&gt;&lt;/span&gt;" style="edgeLabel;html=1;align=center;verticalAlign=middle;resizable=0;points=[];fontSize=20;" parent="GJ2BzSzPHDWUAvZUWdHp-6" vertex="1" connectable="0">
          <mxGeometry x="-0.1462" y="-16" relative="1" as="geometry">
            <mxPoint x="16" y="-19" as="offset" />
          </mxGeometry>
        </mxCell>
        <mxCell id="GJ2BzSzPHDWUAvZUWdHp-12" style="edgeStyle=orthogonalEdgeStyle;rounded=0;orthogonalLoop=1;jettySize=auto;html=1;exitX=0.5;exitY=1;exitDx=0;exitDy=0;" parent="1" source="K6QV_oRI_L7NrehGVFSH-25" target="K6QV_oRI_L7NrehGVFSH-25" edge="1">
          <mxGeometry relative="1" as="geometry" />
        </mxCell>
        <mxCell id="GJ2BzSzPHDWUAvZUWdHp-13" value="" style="shape=cube;whiteSpace=wrap;html=1;boundedLbl=1;backgroundOutline=1;darkOpacity=0.05;darkOpacity2=0.1;fontSize=20;rotation=90;" parent="1" vertex="1">
          <mxGeometry x="-655" y="27.810000000000002" width="110" height="94.38" as="geometry" />
        </mxCell>
        <mxCell id="GJ2BzSzPHDWUAvZUWdHp-14" value="" style="endArrow=none;html=1;shadow=0;fontSize=20;sourcePerimeterSpacing=5;targetPerimeterSpacing=5;strokeColor=#000000;curved=1;" parent="1" edge="1">
          <mxGeometry width="50" height="50" relative="1" as="geometry">
            <mxPoint x="-627.8199999999999" y="20" as="sourcePoint" />
            <mxPoint x="-647.8199999999999" y="40" as="targetPoint" />
            <Array as="points">
              <mxPoint x="-647.8199999999999" y="20" />
            </Array>
          </mxGeometry>
        </mxCell>
        <mxCell id="GJ2BzSzPHDWUAvZUWdHp-15" value="" style="endArrow=none;html=1;shadow=0;fontSize=20;sourcePerimeterSpacing=5;targetPerimeterSpacing=5;strokeColor=#000000;exitX=0;exitY=1;exitDx=0;exitDy=0;curved=1;entryX=0;entryY=0;entryDx=20;entryDy=94.38;entryPerimeter=0;" parent="1" target="GJ2BzSzPHDWUAvZUWdHp-13" edge="1">
          <mxGeometry width="50" height="50" relative="1" as="geometry">
            <mxPoint x="-646.8199999999999" y="130.00000000000023" as="sourcePoint" />
            <mxPoint x="-646.8199999999999" y="10" as="targetPoint" />
            <Array as="points">
              <mxPoint x="-617.8199999999999" y="80" />
            </Array>
          </mxGeometry>
        </mxCell>
        <mxCell id="GJ2BzSzPHDWUAvZUWdHp-16" value="n&lt;sub&gt;c&lt;/sub&gt;" style="edgeLabel;html=1;align=center;verticalAlign=middle;resizable=0;points=[];fontSize=20;" parent="GJ2BzSzPHDWUAvZUWdHp-15" vertex="1" connectable="0">
          <mxGeometry x="-0.2917" y="-19" relative="1" as="geometry">
            <mxPoint x="-20" y="-26" as="offset" />
          </mxGeometry>
        </mxCell>
        <mxCell id="GJ2BzSzPHDWUAvZUWdHp-17" value="" style="endArrow=none;html=1;shadow=0;fontSize=20;sourcePerimeterSpacing=5;targetPerimeterSpacing=5;strokeColor=#000000;curved=1;entryX=0;entryY=0;entryDx=110;entryDy=20;entryPerimeter=0;" parent="1" edge="1">
          <mxGeometry width="50" height="50" relative="1" as="geometry">
            <mxPoint x="-647.8199999999999" y="40" as="sourcePoint" />
            <mxPoint x="-572.81" y="40" as="targetPoint" />
            <Array as="points">
              <mxPoint x="-607.8199999999999" y="70" />
            </Array>
          </mxGeometry>
        </mxCell>
        <mxCell id="GJ2BzSzPHDWUAvZUWdHp-18" value="n&#39;&lt;span style=&quot;font-size: 16.6667px&quot;&gt;&lt;sub&gt;t&lt;/sub&gt;&lt;/span&gt;" style="edgeLabel;html=1;align=center;verticalAlign=middle;resizable=0;points=[];fontSize=20;" parent="GJ2BzSzPHDWUAvZUWdHp-17" vertex="1" connectable="0">
          <mxGeometry x="-0.1462" y="-16" relative="1" as="geometry">
            <mxPoint x="16" y="-19" as="offset" />
          </mxGeometry>
        </mxCell>
        <mxCell id="GJ2BzSzPHDWUAvZUWdHp-19" value="&lt;font style=&quot;font-size: 16px&quot;&gt;F&lt;sub&gt;1&lt;/sub&gt;&lt;/font&gt;" style="text;html=1;strokeColor=none;fillColor=none;align=center;verticalAlign=middle;whiteSpace=wrap;rounded=0;fontSize=20;" parent="1" vertex="1">
          <mxGeometry x="-679" y="10.629999999999995" width="40" height="20" as="geometry" />
        </mxCell>
        <mxCell id="GJ2BzSzPHDWUAvZUWdHp-20" value="" style="shape=flexArrow;endArrow=classic;html=1;shadow=0;fontSize=20;sourcePerimeterSpacing=5;targetPerimeterSpacing=5;strokeColor=#000000;" parent="1" edge="1">
          <mxGeometry width="50" height="50" relative="1" as="geometry">
            <mxPoint x="-545" y="84.58000000000004" as="sourcePoint" />
            <mxPoint x="-415.00000000000006" y="85.08000000000004" as="targetPoint" />
          </mxGeometry>
        </mxCell>
        <mxCell id="GJ2BzSzPHDWUAvZUWdHp-21" value="SepConv" style="edgeLabel;html=1;align=center;verticalAlign=middle;resizable=0;points=[];fontSize=20;" parent="GJ2BzSzPHDWUAvZUWdHp-20" vertex="1" connectable="0">
          <mxGeometry x="0.0182" y="2" relative="1" as="geometry">
            <mxPoint y="1" as="offset" />
          </mxGeometry>
        </mxCell>
        <mxCell id="GJ2BzSzPHDWUAvZUWdHp-23" value="" style="shape=cube;whiteSpace=wrap;html=1;boundedLbl=1;backgroundOutline=1;darkOpacity=0.05;darkOpacity2=0.1;fontSize=20;rotation=90;" parent="1" vertex="1">
          <mxGeometry x="-413.99999999999994" y="27.810000000000002" width="110" height="94.38" as="geometry" />
        </mxCell>
        <mxCell id="GJ2BzSzPHDWUAvZUWdHp-24" value="" style="endArrow=none;html=1;shadow=0;fontSize=20;sourcePerimeterSpacing=5;targetPerimeterSpacing=5;strokeColor=#000000;curved=1;" parent="1" edge="1">
          <mxGeometry width="50" height="50" relative="1" as="geometry">
            <mxPoint x="-386.82" y="20" as="sourcePoint" />
            <mxPoint x="-406.82" y="40" as="targetPoint" />
            <Array as="points">
              <mxPoint x="-406.82" y="20" />
            </Array>
          </mxGeometry>
        </mxCell>
        <mxCell id="GJ2BzSzPHDWUAvZUWdHp-25" value="&lt;font style=&quot;font-size: 16px&quot;&gt;F&lt;sub&gt;2&lt;/sub&gt;&lt;/font&gt;" style="text;html=1;strokeColor=none;fillColor=none;align=center;verticalAlign=middle;whiteSpace=wrap;rounded=0;fontSize=20;" parent="1" vertex="1">
          <mxGeometry x="-436.82" y="10.630000000000003" width="40" height="20" as="geometry" />
        </mxCell>
        <mxCell id="GJ2BzSzPHDWUAvZUWdHp-26" value="" style="endArrow=none;html=1;shadow=0;fontSize=20;sourcePerimeterSpacing=5;targetPerimeterSpacing=5;strokeColor=#000000;exitX=0;exitY=1;exitDx=0;exitDy=0;curved=1;entryX=0;entryY=0;entryDx=20;entryDy=94.38;entryPerimeter=0;" parent="1" target="GJ2BzSzPHDWUAvZUWdHp-23" edge="1">
          <mxGeometry width="50" height="50" relative="1" as="geometry">
            <mxPoint x="-405.82" y="130.00000000000023" as="sourcePoint" />
            <mxPoint x="-405.82" y="10.000000000000007" as="targetPoint" />
            <Array as="points">
              <mxPoint x="-376.82" y="80" />
            </Array>
          </mxGeometry>
        </mxCell>
        <mxCell id="GJ2BzSzPHDWUAvZUWdHp-27" value="n&lt;sub&gt;c&lt;/sub&gt;" style="edgeLabel;html=1;align=center;verticalAlign=middle;resizable=0;points=[];fontSize=20;" parent="GJ2BzSzPHDWUAvZUWdHp-26" vertex="1" connectable="0">
          <mxGeometry x="-0.2917" y="-19" relative="1" as="geometry">
            <mxPoint x="-20" y="-26" as="offset" />
          </mxGeometry>
        </mxCell>
        <mxCell id="GJ2BzSzPHDWUAvZUWdHp-28" value="" style="endArrow=none;html=1;shadow=0;fontSize=20;sourcePerimeterSpacing=5;targetPerimeterSpacing=5;strokeColor=#000000;curved=1;entryX=0;entryY=0;entryDx=110;entryDy=20;entryPerimeter=0;" parent="1" edge="1">
          <mxGeometry width="50" height="50" relative="1" as="geometry">
            <mxPoint x="-406.82" y="40" as="sourcePoint" />
            <mxPoint x="-331.81" y="40" as="targetPoint" />
            <Array as="points">
              <mxPoint x="-366.82" y="70" />
            </Array>
          </mxGeometry>
        </mxCell>
        <mxCell id="GJ2BzSzPHDWUAvZUWdHp-29" value="n&#39;&lt;span style=&quot;font-size: 16.6667px&quot;&gt;&lt;sub&gt;t&lt;/sub&gt;&lt;/span&gt;" style="edgeLabel;html=1;align=center;verticalAlign=middle;resizable=0;points=[];fontSize=20;" parent="GJ2BzSzPHDWUAvZUWdHp-28" vertex="1" connectable="0">
          <mxGeometry x="-0.1462" y="-16" relative="1" as="geometry">
            <mxPoint x="16" y="-19" as="offset" />
          </mxGeometry>
        </mxCell>
        <mxCell id="GJ2BzSzPHDWUAvZUWdHp-30" value="" style="shape=cube;whiteSpace=wrap;html=1;boundedLbl=1;backgroundOutline=1;darkOpacity=0.05;darkOpacity2=0.1;fontSize=20;rotation=90;" parent="1" vertex="1">
          <mxGeometry x="-133.99999999999994" y="32.49000000000001" width="110" height="94.38" as="geometry" />
        </mxCell>
        <mxCell id="GJ2BzSzPHDWUAvZUWdHp-31" value="" style="endArrow=none;html=1;shadow=0;fontSize=20;sourcePerimeterSpacing=5;targetPerimeterSpacing=5;strokeColor=#000000;curved=1;" parent="1" edge="1">
          <mxGeometry width="50" height="50" relative="1" as="geometry">
            <mxPoint x="-106.81999999999994" y="24.680000000000007" as="sourcePoint" />
            <mxPoint x="-126.81999999999994" y="44.68000000000001" as="targetPoint" />
            <Array as="points">
              <mxPoint x="-126.82" y="24.680000000000007" />
            </Array>
          </mxGeometry>
        </mxCell>
        <mxCell id="GJ2BzSzPHDWUAvZUWdHp-32" value="&lt;font style=&quot;font-size: 16px&quot;&gt;F&lt;sub&gt;k&lt;/sub&gt;&lt;/font&gt;" style="text;html=1;strokeColor=none;fillColor=none;align=center;verticalAlign=middle;whiteSpace=wrap;rounded=0;fontSize=20;" parent="1" vertex="1">
          <mxGeometry x="-156.82" y="15.310000000000002" width="40" height="20" as="geometry" />
        </mxCell>
        <mxCell id="GJ2BzSzPHDWUAvZUWdHp-33" value="" style="endArrow=none;html=1;shadow=0;fontSize=20;sourcePerimeterSpacing=5;targetPerimeterSpacing=5;strokeColor=#000000;exitX=0;exitY=1;exitDx=0;exitDy=0;curved=1;entryX=0;entryY=0;entryDx=20;entryDy=94.38;entryPerimeter=0;" parent="1" target="GJ2BzSzPHDWUAvZUWdHp-30" edge="1">
          <mxGeometry width="50" height="50" relative="1" as="geometry">
            <mxPoint x="-125.81999999999994" y="134.68000000000035" as="sourcePoint" />
            <mxPoint x="-125.82" y="14.680000000000007" as="targetPoint" />
            <Array as="points">
              <mxPoint x="-96.82" y="84.68" />
            </Array>
          </mxGeometry>
        </mxCell>
        <mxCell id="GJ2BzSzPHDWUAvZUWdHp-34" value="n&lt;sub&gt;c&lt;/sub&gt;" style="edgeLabel;html=1;align=center;verticalAlign=middle;resizable=0;points=[];fontSize=20;" parent="GJ2BzSzPHDWUAvZUWdHp-33" vertex="1" connectable="0">
          <mxGeometry x="-0.2917" y="-19" relative="1" as="geometry">
            <mxPoint x="-20" y="-26" as="offset" />
          </mxGeometry>
        </mxCell>
        <mxCell id="GJ2BzSzPHDWUAvZUWdHp-35" value="" style="endArrow=none;html=1;shadow=0;fontSize=20;sourcePerimeterSpacing=5;targetPerimeterSpacing=5;strokeColor=#000000;curved=1;entryX=0;entryY=0;entryDx=110;entryDy=20;entryPerimeter=0;" parent="1" edge="1">
          <mxGeometry width="50" height="50" relative="1" as="geometry">
            <mxPoint x="-126.81999999999994" y="44.68000000000001" as="sourcePoint" />
            <mxPoint x="-51.809999999999945" y="44.68000000000001" as="targetPoint" />
            <Array as="points">
              <mxPoint x="-86.82" y="74.68" />
            </Array>
          </mxGeometry>
        </mxCell>
        <mxCell id="GJ2BzSzPHDWUAvZUWdHp-36" value="n&#39;&lt;span style=&quot;font-size: 16.6667px&quot;&gt;&lt;sub&gt;t&lt;/sub&gt;&lt;/span&gt;" style="edgeLabel;html=1;align=center;verticalAlign=middle;resizable=0;points=[];fontSize=20;" parent="GJ2BzSzPHDWUAvZUWdHp-35" vertex="1" connectable="0">
          <mxGeometry x="-0.1462" y="-16" relative="1" as="geometry">
            <mxPoint x="16" y="-19" as="offset" />
          </mxGeometry>
        </mxCell>
        <mxCell id="GJ2BzSzPHDWUAvZUWdHp-37" value="" style="shape=cube;whiteSpace=wrap;html=1;boundedLbl=1;backgroundOutline=1;darkOpacity=0.05;darkOpacity2=0.1;fontSize=20;rotation=90;" parent="1" vertex="1">
          <mxGeometry x="-94" y="240" width="35" height="98.75" as="geometry" />
        </mxCell>
        <mxCell id="GJ2BzSzPHDWUAvZUWdHp-38" value="" style="shape=cube;whiteSpace=wrap;html=1;boundedLbl=1;backgroundOutline=1;darkOpacity=0.05;darkOpacity2=0.1;fontSize=20;rotation=90;" parent="1" vertex="1">
          <mxGeometry x="-380.83" y="370" width="35" height="98.75" as="geometry" />
        </mxCell>
      </root>
    </mxGraphModel>
  </diagram>
  <diagram id="PUJa1zNiyevHgiLeCRxO" name="Page-2">
    <mxGraphModel dx="1422" dy="839" grid="1" gridSize="10" guides="1" tooltips="1" connect="1" arrows="1" fold="1" page="1" pageScale="1" pageWidth="827" pageHeight="1169" math="0" shadow="0">
      <root>
        <mxCell id="pZ1QaN2dgUNF0701Yruu-0" />
        <mxCell id="pZ1QaN2dgUNF0701Yruu-1" parent="pZ1QaN2dgUNF0701Yruu-0" />
        <mxCell id="pZ1QaN2dgUNF0701Yruu-2" value="0" style="ellipse;whiteSpace=wrap;html=1;aspect=fixed;" parent="pZ1QaN2dgUNF0701Yruu-1" vertex="1">
          <mxGeometry x="120" y="200" width="40" height="40" as="geometry" />
        </mxCell>
        <mxCell id="pZ1QaN2dgUNF0701Yruu-3" value="1" style="ellipse;whiteSpace=wrap;html=1;aspect=fixed;" parent="pZ1QaN2dgUNF0701Yruu-1" vertex="1">
          <mxGeometry x="120" y="280" width="40" height="40" as="geometry" />
        </mxCell>
        <mxCell id="pZ1QaN2dgUNF0701Yruu-4" value="2" style="ellipse;whiteSpace=wrap;html=1;aspect=fixed;" parent="pZ1QaN2dgUNF0701Yruu-1" vertex="1">
          <mxGeometry x="120" y="360" width="40" height="40" as="geometry" />
        </mxCell>
        <mxCell id="pZ1QaN2dgUNF0701Yruu-6" value="0" style="ellipse;whiteSpace=wrap;html=1;aspect=fixed;" parent="pZ1QaN2dgUNF0701Yruu-1" vertex="1">
          <mxGeometry x="360" y="200" width="40" height="40" as="geometry" />
        </mxCell>
        <mxCell id="pZ1QaN2dgUNF0701Yruu-7" value="1" style="ellipse;whiteSpace=wrap;html=1;aspect=fixed;" parent="pZ1QaN2dgUNF0701Yruu-1" vertex="1">
          <mxGeometry x="360" y="280" width="40" height="40" as="geometry" />
        </mxCell>
        <mxCell id="pZ1QaN2dgUNF0701Yruu-8" value="2" style="ellipse;whiteSpace=wrap;html=1;aspect=fixed;" parent="pZ1QaN2dgUNF0701Yruu-1" vertex="1">
          <mxGeometry x="360" y="360" width="40" height="40" as="geometry" />
        </mxCell>
        <mxCell id="pZ1QaN2dgUNF0701Yruu-9" value="R&lt;sub&gt;j&lt;/sub&gt;" style="text;html=1;align=center;verticalAlign=middle;resizable=0;points=[];autosize=1;strokeColor=none;fillColor=none;" parent="pZ1QaN2dgUNF0701Yruu-1" vertex="1">
          <mxGeometry x="125" y="170" width="30" height="20" as="geometry" />
        </mxCell>
        <mxCell id="pZ1QaN2dgUNF0701Yruu-10" value="R&lt;sub&gt;k&lt;/sub&gt;" style="text;html=1;align=center;verticalAlign=middle;resizable=0;points=[];autosize=1;strokeColor=none;fillColor=none;" parent="pZ1QaN2dgUNF0701Yruu-1" vertex="1">
          <mxGeometry x="365" y="170" width="30" height="20" as="geometry" />
        </mxCell>
        <mxCell id="pZ1QaN2dgUNF0701Yruu-11" value="Z&lt;sub&gt;00&lt;/sub&gt;" style="endArrow=none;html=1;rounded=0;entryX=0;entryY=0.5;entryDx=0;entryDy=0;exitX=1;exitY=0.5;exitDx=0;exitDy=0;fillColor=#dae8fc;strokeColor=#6c8ebf;dashed=1;" parent="pZ1QaN2dgUNF0701Yruu-1" source="pZ1QaN2dgUNF0701Yruu-2" target="pZ1QaN2dgUNF0701Yruu-6" edge="1">
          <mxGeometry width="50" height="50" relative="1" as="geometry">
            <mxPoint x="390" y="580" as="sourcePoint" />
            <mxPoint x="440" y="530" as="targetPoint" />
          </mxGeometry>
        </mxCell>
        <mxCell id="pZ1QaN2dgUNF0701Yruu-14" value="Z&lt;sub&gt;10&lt;/sub&gt;" style="endArrow=none;dashed=1;html=1;rounded=0;entryX=0;entryY=0.5;entryDx=0;entryDy=0;exitX=1;exitY=0.5;exitDx=0;exitDy=0;fillColor=#dae8fc;strokeColor=#6c8ebf;" parent="pZ1QaN2dgUNF0701Yruu-1" source="pZ1QaN2dgUNF0701Yruu-3" target="pZ1QaN2dgUNF0701Yruu-6" edge="1">
          <mxGeometry width="50" height="50" relative="1" as="geometry">
            <mxPoint x="390" y="570" as="sourcePoint" />
            <mxPoint x="440" y="520" as="targetPoint" />
          </mxGeometry>
        </mxCell>
        <mxCell id="pZ1QaN2dgUNF0701Yruu-15" value="Z&lt;sub&gt;20&lt;/sub&gt;" style="endArrow=none;dashed=1;html=1;rounded=0;entryX=0;entryY=0.5;entryDx=0;entryDy=0;exitX=1;exitY=0.5;exitDx=0;exitDy=0;fillColor=#dae8fc;strokeColor=#6c8ebf;" parent="pZ1QaN2dgUNF0701Yruu-1" source="pZ1QaN2dgUNF0701Yruu-4" target="pZ1QaN2dgUNF0701Yruu-6" edge="1">
          <mxGeometry width="50" height="50" relative="1" as="geometry">
            <mxPoint x="390" y="570" as="sourcePoint" />
            <mxPoint x="440" y="520" as="targetPoint" />
          </mxGeometry>
        </mxCell>
        <mxCell id="pZ1QaN2dgUNF0701Yruu-16" value="" style="endArrow=classic;html=1;rounded=0;exitX=0;exitY=0.5;exitDx=0;exitDy=0;entryX=1;entryY=0.5;entryDx=0;entryDy=0;edgeStyle=orthogonalEdgeStyle;curved=1;" parent="pZ1QaN2dgUNF0701Yruu-1" source="pZ1QaN2dgUNF0701Yruu-6" target="pZ1QaN2dgUNF0701Yruu-2" edge="1">
          <mxGeometry width="50" height="50" relative="1" as="geometry">
            <mxPoint x="380" y="230" as="sourcePoint" />
            <mxPoint x="190" y="190" as="targetPoint" />
            <Array as="points">
              <mxPoint x="360" y="190" />
              <mxPoint x="160" y="190" />
            </Array>
          </mxGeometry>
        </mxCell>
        <mxCell id="pZ1QaN2dgUNF0701Yruu-22" value="" style="group" parent="pZ1QaN2dgUNF0701Yruu-1" vertex="1" connectable="0">
          <mxGeometry x="170" y="130" width="176" height="60" as="geometry" />
        </mxCell>
        <mxCell id="pZ1QaN2dgUNF0701Yruu-18" value="Z&lt;sub&gt;00&lt;/sub&gt;" style="text;html=1;strokeColor=none;fillColor=none;align=center;verticalAlign=middle;whiteSpace=wrap;rounded=0;" parent="pZ1QaN2dgUNF0701Yruu-22" vertex="1">
          <mxGeometry x="58" width="60" height="30" as="geometry" />
        </mxCell>
        <mxCell id="pZ1QaN2dgUNF0701Yruu-19" value="" style="endArrow=none;html=1;rounded=0;strokeColor=#000000;" parent="pZ1QaN2dgUNF0701Yruu-22" edge="1">
          <mxGeometry width="50" height="50" relative="1" as="geometry">
            <mxPoint x="40" y="30" as="sourcePoint" />
            <mxPoint x="140" y="30" as="targetPoint" />
          </mxGeometry>
        </mxCell>
        <mxCell id="pZ1QaN2dgUNF0701Yruu-20" value="Z&lt;sub&gt;00 &lt;/sub&gt;&amp;nbsp;+ Z&lt;sub&gt;10&lt;/sub&gt; + Z&lt;sub&gt;20&lt;/sub&gt;&amp;nbsp;" style="text;html=1;strokeColor=none;fillColor=none;align=center;verticalAlign=middle;whiteSpace=wrap;rounded=0;" parent="pZ1QaN2dgUNF0701Yruu-22" vertex="1">
          <mxGeometry y="30" width="176" height="30" as="geometry" />
        </mxCell>
        <mxCell id="pZ1QaN2dgUNF0701Yruu-21" value="R&lt;sub&gt;k(0)&lt;/sub&gt;" style="text;html=1;align=center;verticalAlign=middle;resizable=0;points=[];autosize=1;strokeColor=none;fillColor=none;" parent="pZ1QaN2dgUNF0701Yruu-22" vertex="1">
          <mxGeometry x="135" y="20" width="40" height="20" as="geometry" />
        </mxCell>
        <mxCell id="pZ1QaN2dgUNF0701Yruu-26" value="0" style="ellipse;whiteSpace=wrap;html=1;aspect=fixed;" parent="pZ1QaN2dgUNF0701Yruu-1" vertex="1">
          <mxGeometry x="440" y="200" width="40" height="40" as="geometry" />
        </mxCell>
        <mxCell id="pZ1QaN2dgUNF0701Yruu-27" value="1" style="ellipse;whiteSpace=wrap;html=1;aspect=fixed;" parent="pZ1QaN2dgUNF0701Yruu-1" vertex="1">
          <mxGeometry x="440" y="280" width="40" height="40" as="geometry" />
        </mxCell>
        <mxCell id="pZ1QaN2dgUNF0701Yruu-28" value="2" style="ellipse;whiteSpace=wrap;html=1;aspect=fixed;" parent="pZ1QaN2dgUNF0701Yruu-1" vertex="1">
          <mxGeometry x="440" y="360" width="40" height="40" as="geometry" />
        </mxCell>
        <mxCell id="pZ1QaN2dgUNF0701Yruu-29" value="0" style="ellipse;whiteSpace=wrap;html=1;aspect=fixed;" parent="pZ1QaN2dgUNF0701Yruu-1" vertex="1">
          <mxGeometry x="680" y="200" width="40" height="40" as="geometry" />
        </mxCell>
        <mxCell id="pZ1QaN2dgUNF0701Yruu-30" value="1" style="ellipse;whiteSpace=wrap;html=1;aspect=fixed;" parent="pZ1QaN2dgUNF0701Yruu-1" vertex="1">
          <mxGeometry x="680" y="280" width="40" height="40" as="geometry" />
        </mxCell>
        <mxCell id="pZ1QaN2dgUNF0701Yruu-31" value="2" style="ellipse;whiteSpace=wrap;html=1;aspect=fixed;" parent="pZ1QaN2dgUNF0701Yruu-1" vertex="1">
          <mxGeometry x="680" y="360" width="40" height="40" as="geometry" />
        </mxCell>
        <mxCell id="pZ1QaN2dgUNF0701Yruu-32" value="" style="endArrow=classic;html=1;rounded=0;strokeColor=#000000;exitX=0;exitY=0.5;exitDx=0;exitDy=0;entryX=1;entryY=0.5;entryDx=0;entryDy=0;" parent="pZ1QaN2dgUNF0701Yruu-1" source="pZ1QaN2dgUNF0701Yruu-29" target="pZ1QaN2dgUNF0701Yruu-26" edge="1">
          <mxGeometry width="50" height="50" relative="1" as="geometry">
            <mxPoint x="390" y="410" as="sourcePoint" />
            <mxPoint x="440" y="360" as="targetPoint" />
          </mxGeometry>
        </mxCell>
        <mxCell id="pZ1QaN2dgUNF0701Yruu-33" value="" style="endArrow=classic;html=1;rounded=0;strokeColor=#000000;exitX=0;exitY=0.5;exitDx=0;exitDy=0;" parent="pZ1QaN2dgUNF0701Yruu-1" source="pZ1QaN2dgUNF0701Yruu-30" edge="1">
          <mxGeometry width="50" height="50" relative="1" as="geometry">
            <mxPoint x="690" y="230" as="sourcePoint" />
            <mxPoint x="480" y="220" as="targetPoint" />
          </mxGeometry>
        </mxCell>
        <mxCell id="pZ1QaN2dgUNF0701Yruu-34" value="" style="endArrow=classic;html=1;rounded=0;strokeColor=#000000;exitX=0;exitY=0.5;exitDx=0;exitDy=0;" parent="pZ1QaN2dgUNF0701Yruu-1" source="pZ1QaN2dgUNF0701Yruu-31" edge="1">
          <mxGeometry width="50" height="50" relative="1" as="geometry">
            <mxPoint x="700" y="240" as="sourcePoint" />
            <mxPoint x="480" y="220" as="targetPoint" />
          </mxGeometry>
        </mxCell>
        <mxCell id="pZ1QaN2dgUNF0701Yruu-35" value="" style="group" parent="pZ1QaN2dgUNF0701Yruu-1" vertex="1" connectable="0">
          <mxGeometry x="490" y="160" width="176" height="60" as="geometry" />
        </mxCell>
        <mxCell id="pZ1QaN2dgUNF0701Yruu-36" value="Z&lt;sub&gt;00&lt;/sub&gt;" style="text;html=1;strokeColor=none;fillColor=none;align=center;verticalAlign=middle;whiteSpace=wrap;rounded=0;" parent="pZ1QaN2dgUNF0701Yruu-35" vertex="1">
          <mxGeometry x="58" width="60" height="30" as="geometry" />
        </mxCell>
        <mxCell id="pZ1QaN2dgUNF0701Yruu-37" value="" style="endArrow=none;html=1;rounded=0;strokeColor=#000000;" parent="pZ1QaN2dgUNF0701Yruu-35" edge="1">
          <mxGeometry width="50" height="50" relative="1" as="geometry">
            <mxPoint x="40" y="30" as="sourcePoint" />
            <mxPoint x="140" y="30" as="targetPoint" />
          </mxGeometry>
        </mxCell>
        <mxCell id="pZ1QaN2dgUNF0701Yruu-38" value="Z&lt;sub&gt;00 &lt;/sub&gt;&amp;nbsp;+ Z&lt;sub&gt;10&lt;/sub&gt; + Z&lt;sub&gt;20&lt;/sub&gt;&amp;nbsp;" style="text;html=1;strokeColor=none;fillColor=none;align=center;verticalAlign=middle;whiteSpace=wrap;rounded=0;" parent="pZ1QaN2dgUNF0701Yruu-35" vertex="1">
          <mxGeometry y="30" width="176" height="30" as="geometry" />
        </mxCell>
        <mxCell id="pZ1QaN2dgUNF0701Yruu-39" value="R&lt;sub&gt;k(0)&lt;/sub&gt;" style="text;html=1;align=center;verticalAlign=middle;resizable=0;points=[];autosize=1;strokeColor=none;fillColor=none;" parent="pZ1QaN2dgUNF0701Yruu-35" vertex="1">
          <mxGeometry x="135" y="20" width="40" height="20" as="geometry" />
        </mxCell>
        <mxCell id="pZ1QaN2dgUNF0701Yruu-40" value="" style="group" parent="pZ1QaN2dgUNF0701Yruu-1" vertex="1" connectable="0">
          <mxGeometry x="490" y="270" width="176" height="60" as="geometry" />
        </mxCell>
        <mxCell id="pZ1QaN2dgUNF0701Yruu-41" value="Z&lt;sub&gt;01&lt;/sub&gt;" style="text;html=1;strokeColor=none;fillColor=none;align=center;verticalAlign=middle;whiteSpace=wrap;rounded=0;" parent="pZ1QaN2dgUNF0701Yruu-40" vertex="1">
          <mxGeometry x="58" width="60" height="30" as="geometry" />
        </mxCell>
        <mxCell id="pZ1QaN2dgUNF0701Yruu-42" value="" style="endArrow=none;html=1;rounded=0;strokeColor=#000000;" parent="pZ1QaN2dgUNF0701Yruu-40" edge="1">
          <mxGeometry width="50" height="50" relative="1" as="geometry">
            <mxPoint x="40" y="30" as="sourcePoint" />
            <mxPoint x="140" y="30" as="targetPoint" />
          </mxGeometry>
        </mxCell>
        <mxCell id="pZ1QaN2dgUNF0701Yruu-43" value="Z&lt;sub&gt;01&amp;nbsp;&lt;/sub&gt;&amp;nbsp;+ Z&lt;sub&gt;11&lt;/sub&gt; + Z&lt;sub&gt;21&lt;/sub&gt;&amp;nbsp;" style="text;html=1;strokeColor=none;fillColor=none;align=center;verticalAlign=middle;whiteSpace=wrap;rounded=0;" parent="pZ1QaN2dgUNF0701Yruu-40" vertex="1">
          <mxGeometry y="30" width="176" height="30" as="geometry" />
        </mxCell>
        <mxCell id="pZ1QaN2dgUNF0701Yruu-44" value="R&lt;sub&gt;k(1)&lt;/sub&gt;" style="text;html=1;align=center;verticalAlign=middle;resizable=0;points=[];autosize=1;strokeColor=none;fillColor=none;" parent="pZ1QaN2dgUNF0701Yruu-40" vertex="1">
          <mxGeometry x="135" y="20" width="40" height="20" as="geometry" />
        </mxCell>
        <mxCell id="pZ1QaN2dgUNF0701Yruu-45" value="" style="group" parent="pZ1QaN2dgUNF0701Yruu-1" vertex="1" connectable="0">
          <mxGeometry x="490" y="350" width="176" height="60" as="geometry" />
        </mxCell>
        <mxCell id="pZ1QaN2dgUNF0701Yruu-46" value="Z&lt;sub&gt;02&lt;/sub&gt;" style="text;html=1;strokeColor=none;fillColor=none;align=center;verticalAlign=middle;whiteSpace=wrap;rounded=0;" parent="pZ1QaN2dgUNF0701Yruu-45" vertex="1">
          <mxGeometry x="58" width="60" height="30" as="geometry" />
        </mxCell>
        <mxCell id="pZ1QaN2dgUNF0701Yruu-47" value="" style="endArrow=none;html=1;rounded=0;strokeColor=#000000;" parent="pZ1QaN2dgUNF0701Yruu-45" edge="1">
          <mxGeometry width="50" height="50" relative="1" as="geometry">
            <mxPoint x="40" y="30" as="sourcePoint" />
            <mxPoint x="140" y="30" as="targetPoint" />
          </mxGeometry>
        </mxCell>
        <mxCell id="pZ1QaN2dgUNF0701Yruu-48" value="Z&lt;sub&gt;02&amp;nbsp;&lt;/sub&gt;&amp;nbsp;+ Z&lt;sub&gt;12&lt;/sub&gt; + Z&lt;sub&gt;22&lt;/sub&gt;&amp;nbsp;" style="text;html=1;strokeColor=none;fillColor=none;align=center;verticalAlign=middle;whiteSpace=wrap;rounded=0;" parent="pZ1QaN2dgUNF0701Yruu-45" vertex="1">
          <mxGeometry y="30" width="176" height="30" as="geometry" />
        </mxCell>
        <mxCell id="pZ1QaN2dgUNF0701Yruu-49" value="R&lt;sub&gt;k(2)&lt;/sub&gt;" style="text;html=1;align=center;verticalAlign=middle;resizable=0;points=[];autosize=1;strokeColor=none;fillColor=none;" parent="pZ1QaN2dgUNF0701Yruu-45" vertex="1">
          <mxGeometry x="135" y="20" width="40" height="20" as="geometry" />
        </mxCell>
        <mxCell id="pZ1QaN2dgUNF0701Yruu-50" value="R&lt;sub&gt;j&lt;/sub&gt;" style="text;html=1;align=center;verticalAlign=middle;resizable=0;points=[];autosize=1;strokeColor=none;fillColor=none;" parent="pZ1QaN2dgUNF0701Yruu-1" vertex="1">
          <mxGeometry x="443" y="170" width="30" height="20" as="geometry" />
        </mxCell>
        <mxCell id="pZ1QaN2dgUNF0701Yruu-51" value="R&lt;sub&gt;k&lt;/sub&gt;" style="text;html=1;align=center;verticalAlign=middle;resizable=0;points=[];autosize=1;strokeColor=none;fillColor=none;" parent="pZ1QaN2dgUNF0701Yruu-1" vertex="1">
          <mxGeometry x="683" y="170" width="30" height="20" as="geometry" />
        </mxCell>
      </root>
    </mxGraphModel>
  </diagram>
  <diagram id="_oZzcOXpLSI6GNHFeDTK" name="Page-3">
    <mxGraphModel dx="1422" dy="839" grid="1" gridSize="10" guides="1" tooltips="1" connect="1" arrows="1" fold="1" page="1" pageScale="1" pageWidth="1169" pageHeight="827" math="0" shadow="0">
      <root>
        <mxCell id="hiWJ6FiAwOVD0Gj_WVD6-0" />
        <mxCell id="hiWJ6FiAwOVD0Gj_WVD6-1" parent="hiWJ6FiAwOVD0Gj_WVD6-0" />
        <mxCell id="hiWJ6FiAwOVD0Gj_WVD6-67" value="1" style="whiteSpace=wrap;html=1;aspect=fixed;" vertex="1" parent="hiWJ6FiAwOVD0Gj_WVD6-1">
          <mxGeometry x="1160" y="200" width="40" height="40" as="geometry" />
        </mxCell>
        <mxCell id="hiWJ6FiAwOVD0Gj_WVD6-68" value="1" style="whiteSpace=wrap;html=1;aspect=fixed;" vertex="1" parent="hiWJ6FiAwOVD0Gj_WVD6-1">
          <mxGeometry x="1200" y="200" width="40" height="40" as="geometry" />
        </mxCell>
        <mxCell id="hiWJ6FiAwOVD0Gj_WVD6-69" value="1" style="whiteSpace=wrap;html=1;aspect=fixed;" vertex="1" parent="hiWJ6FiAwOVD0Gj_WVD6-1">
          <mxGeometry x="1160" y="240" width="40" height="40" as="geometry" />
        </mxCell>
        <mxCell id="hiWJ6FiAwOVD0Gj_WVD6-70" value="1" style="whiteSpace=wrap;html=1;aspect=fixed;" vertex="1" parent="hiWJ6FiAwOVD0Gj_WVD6-1">
          <mxGeometry x="1200" y="240" width="40" height="40" as="geometry" />
        </mxCell>
        <mxCell id="hiWJ6FiAwOVD0Gj_WVD6-65" value="" style="group" vertex="1" connectable="0" parent="hiWJ6FiAwOVD0Gj_WVD6-1">
          <mxGeometry x="760" y="280" width="80" height="80" as="geometry" />
        </mxCell>
        <mxCell id="hiWJ6FiAwOVD0Gj_WVD6-60" value="0" style="whiteSpace=wrap;html=1;aspect=fixed;" vertex="1" parent="hiWJ6FiAwOVD0Gj_WVD6-65">
          <mxGeometry width="40" height="40" as="geometry" />
        </mxCell>
        <mxCell id="hiWJ6FiAwOVD0Gj_WVD6-61" value="0" style="whiteSpace=wrap;html=1;aspect=fixed;" vertex="1" parent="hiWJ6FiAwOVD0Gj_WVD6-65">
          <mxGeometry x="40" width="40" height="40" as="geometry" />
        </mxCell>
        <mxCell id="hiWJ6FiAwOVD0Gj_WVD6-62" value="0" style="whiteSpace=wrap;html=1;aspect=fixed;" vertex="1" parent="hiWJ6FiAwOVD0Gj_WVD6-65">
          <mxGeometry y="40" width="40" height="40" as="geometry" />
        </mxCell>
        <mxCell id="hiWJ6FiAwOVD0Gj_WVD6-63" value="0" style="whiteSpace=wrap;html=1;aspect=fixed;" vertex="1" parent="hiWJ6FiAwOVD0Gj_WVD6-65">
          <mxGeometry x="40" y="40" width="40" height="40" as="geometry" />
        </mxCell>
        <mxCell id="hiWJ6FiAwOVD0Gj_WVD6-2" value="1" style="whiteSpace=wrap;html=1;aspect=fixed;fillColor=#f8cecc;strokeColor=#b85450;" vertex="1" parent="hiWJ6FiAwOVD0Gj_WVD6-1">
          <mxGeometry x="40" y="40" width="80" height="80" as="geometry" />
        </mxCell>
        <mxCell id="hiWJ6FiAwOVD0Gj_WVD6-3" value="1" style="whiteSpace=wrap;html=1;aspect=fixed;fillColor=#f8cecc;strokeColor=#b85450;" vertex="1" parent="hiWJ6FiAwOVD0Gj_WVD6-1">
          <mxGeometry x="120" y="40" width="80" height="80" as="geometry" />
        </mxCell>
        <mxCell id="hiWJ6FiAwOVD0Gj_WVD6-4" value="1" style="whiteSpace=wrap;html=1;aspect=fixed;fillColor=#f8cecc;strokeColor=#b85450;" vertex="1" parent="hiWJ6FiAwOVD0Gj_WVD6-1">
          <mxGeometry x="200" y="40" width="80" height="80" as="geometry" />
        </mxCell>
        <mxCell id="hiWJ6FiAwOVD0Gj_WVD6-5" value="1" style="whiteSpace=wrap;html=1;aspect=fixed;fillColor=#f8cecc;strokeColor=#b85450;" vertex="1" parent="hiWJ6FiAwOVD0Gj_WVD6-1">
          <mxGeometry x="280" y="40" width="80" height="80" as="geometry" />
        </mxCell>
        <mxCell id="hiWJ6FiAwOVD0Gj_WVD6-6" value="1" style="whiteSpace=wrap;html=1;aspect=fixed;fillColor=#f8cecc;strokeColor=#b85450;" vertex="1" parent="hiWJ6FiAwOVD0Gj_WVD6-1">
          <mxGeometry x="360" y="40" width="80" height="80" as="geometry" />
        </mxCell>
        <mxCell id="hiWJ6FiAwOVD0Gj_WVD6-7" value="1" style="whiteSpace=wrap;html=1;aspect=fixed;fillColor=#f8cecc;strokeColor=#b85450;" vertex="1" parent="hiWJ6FiAwOVD0Gj_WVD6-1">
          <mxGeometry x="40" y="120" width="80" height="80" as="geometry" />
        </mxCell>
        <mxCell id="hiWJ6FiAwOVD0Gj_WVD6-8" value="1" style="whiteSpace=wrap;html=1;aspect=fixed;fillColor=#f8cecc;strokeColor=#b85450;" vertex="1" parent="hiWJ6FiAwOVD0Gj_WVD6-1">
          <mxGeometry x="120" y="120" width="80" height="80" as="geometry" />
        </mxCell>
        <mxCell id="hiWJ6FiAwOVD0Gj_WVD6-9" value="1" style="whiteSpace=wrap;html=1;aspect=fixed;fillColor=#f8cecc;strokeColor=#b85450;" vertex="1" parent="hiWJ6FiAwOVD0Gj_WVD6-1">
          <mxGeometry x="40" y="200" width="80" height="80" as="geometry" />
        </mxCell>
        <mxCell id="hiWJ6FiAwOVD0Gj_WVD6-10" value="1" style="whiteSpace=wrap;html=1;aspect=fixed;fillColor=#f8cecc;strokeColor=#b85450;" vertex="1" parent="hiWJ6FiAwOVD0Gj_WVD6-1">
          <mxGeometry x="120" y="200" width="80" height="80" as="geometry" />
        </mxCell>
        <mxCell id="hiWJ6FiAwOVD0Gj_WVD6-11" value="0" style="whiteSpace=wrap;html=1;aspect=fixed;" vertex="1" parent="hiWJ6FiAwOVD0Gj_WVD6-1">
          <mxGeometry x="200" y="200" width="80" height="80" as="geometry" />
        </mxCell>
        <mxCell id="hiWJ6FiAwOVD0Gj_WVD6-12" value="0" style="whiteSpace=wrap;html=1;aspect=fixed;" vertex="1" parent="hiWJ6FiAwOVD0Gj_WVD6-1">
          <mxGeometry x="280" y="200" width="80" height="80" as="geometry" />
        </mxCell>
        <mxCell id="hiWJ6FiAwOVD0Gj_WVD6-13" value="0" style="whiteSpace=wrap;html=1;aspect=fixed;" vertex="1" parent="hiWJ6FiAwOVD0Gj_WVD6-1">
          <mxGeometry x="360" y="200" width="80" height="80" as="geometry" />
        </mxCell>
        <mxCell id="hiWJ6FiAwOVD0Gj_WVD6-14" value="1" style="whiteSpace=wrap;html=1;aspect=fixed;fillColor=#f8cecc;strokeColor=#b85450;" vertex="1" parent="hiWJ6FiAwOVD0Gj_WVD6-1">
          <mxGeometry x="200" y="120" width="80" height="80" as="geometry" />
        </mxCell>
        <mxCell id="hiWJ6FiAwOVD0Gj_WVD6-15" value="1" style="whiteSpace=wrap;html=1;aspect=fixed;fillColor=#f8cecc;strokeColor=#b85450;" vertex="1" parent="hiWJ6FiAwOVD0Gj_WVD6-1">
          <mxGeometry x="280" y="120" width="80" height="80" as="geometry" />
        </mxCell>
        <mxCell id="hiWJ6FiAwOVD0Gj_WVD6-16" value="1" style="whiteSpace=wrap;html=1;aspect=fixed;fillColor=#f8cecc;strokeColor=#b85450;" vertex="1" parent="hiWJ6FiAwOVD0Gj_WVD6-1">
          <mxGeometry x="360" y="120" width="80" height="80" as="geometry" />
        </mxCell>
        <mxCell id="hiWJ6FiAwOVD0Gj_WVD6-17" value="1" style="whiteSpace=wrap;html=1;aspect=fixed;fillColor=#f8cecc;strokeColor=#b85450;" vertex="1" parent="hiWJ6FiAwOVD0Gj_WVD6-1">
          <mxGeometry x="40" y="280" width="80" height="80" as="geometry" />
        </mxCell>
        <mxCell id="hiWJ6FiAwOVD0Gj_WVD6-18" value="1" style="whiteSpace=wrap;html=1;aspect=fixed;fillColor=#f8cecc;strokeColor=#b85450;" vertex="1" parent="hiWJ6FiAwOVD0Gj_WVD6-1">
          <mxGeometry x="120" y="280" width="80" height="80" as="geometry" />
        </mxCell>
        <mxCell id="hiWJ6FiAwOVD0Gj_WVD6-19" value="0" style="whiteSpace=wrap;html=1;aspect=fixed;" vertex="1" parent="hiWJ6FiAwOVD0Gj_WVD6-1">
          <mxGeometry x="200" y="280" width="80" height="80" as="geometry" />
        </mxCell>
        <mxCell id="hiWJ6FiAwOVD0Gj_WVD6-20" value="0" style="whiteSpace=wrap;html=1;aspect=fixed;" vertex="1" parent="hiWJ6FiAwOVD0Gj_WVD6-1">
          <mxGeometry x="280" y="280" width="80" height="80" as="geometry" />
        </mxCell>
        <mxCell id="hiWJ6FiAwOVD0Gj_WVD6-21" value="0" style="whiteSpace=wrap;html=1;aspect=fixed;" vertex="1" parent="hiWJ6FiAwOVD0Gj_WVD6-1">
          <mxGeometry x="360" y="280" width="80" height="80" as="geometry" />
        </mxCell>
        <mxCell id="hiWJ6FiAwOVD0Gj_WVD6-22" value="1" style="whiteSpace=wrap;html=1;aspect=fixed;fillColor=#f8cecc;strokeColor=#b85450;" vertex="1" parent="hiWJ6FiAwOVD0Gj_WVD6-1">
          <mxGeometry x="40" y="360" width="80" height="80" as="geometry" />
        </mxCell>
        <mxCell id="hiWJ6FiAwOVD0Gj_WVD6-23" value="1" style="whiteSpace=wrap;html=1;aspect=fixed;fillColor=#f8cecc;strokeColor=#b85450;" vertex="1" parent="hiWJ6FiAwOVD0Gj_WVD6-1">
          <mxGeometry x="120" y="360" width="80" height="80" as="geometry" />
        </mxCell>
        <mxCell id="hiWJ6FiAwOVD0Gj_WVD6-24" value="0" style="whiteSpace=wrap;html=1;aspect=fixed;" vertex="1" parent="hiWJ6FiAwOVD0Gj_WVD6-1">
          <mxGeometry x="200" y="360" width="80" height="80" as="geometry" />
        </mxCell>
        <mxCell id="hiWJ6FiAwOVD0Gj_WVD6-25" value="0" style="whiteSpace=wrap;html=1;aspect=fixed;" vertex="1" parent="hiWJ6FiAwOVD0Gj_WVD6-1">
          <mxGeometry x="280" y="360" width="80" height="80" as="geometry" />
        </mxCell>
        <mxCell id="hiWJ6FiAwOVD0Gj_WVD6-26" value="0" style="whiteSpace=wrap;html=1;aspect=fixed;" vertex="1" parent="hiWJ6FiAwOVD0Gj_WVD6-1">
          <mxGeometry x="360" y="360" width="80" height="80" as="geometry" />
        </mxCell>
        <mxCell id="hiWJ6FiAwOVD0Gj_WVD6-27" value="1" style="whiteSpace=wrap;html=1;aspect=fixed;fillColor=#f8cecc;strokeColor=#b85450;" vertex="1" parent="hiWJ6FiAwOVD0Gj_WVD6-1">
          <mxGeometry x="520" y="40" width="80" height="80" as="geometry" />
        </mxCell>
        <mxCell id="hiWJ6FiAwOVD0Gj_WVD6-28" value="1" style="whiteSpace=wrap;html=1;aspect=fixed;fillColor=#f8cecc;strokeColor=#b85450;" vertex="1" parent="hiWJ6FiAwOVD0Gj_WVD6-1">
          <mxGeometry x="600" y="40" width="80" height="80" as="geometry" />
        </mxCell>
        <mxCell id="hiWJ6FiAwOVD0Gj_WVD6-29" value="1" style="whiteSpace=wrap;html=1;aspect=fixed;fillColor=#f8cecc;strokeColor=#b85450;" vertex="1" parent="hiWJ6FiAwOVD0Gj_WVD6-1">
          <mxGeometry x="680" y="40" width="80" height="80" as="geometry" />
        </mxCell>
        <mxCell id="hiWJ6FiAwOVD0Gj_WVD6-30" value="1" style="whiteSpace=wrap;html=1;aspect=fixed;fillColor=#f8cecc;strokeColor=#b85450;" vertex="1" parent="hiWJ6FiAwOVD0Gj_WVD6-1">
          <mxGeometry x="760" y="40" width="80" height="80" as="geometry" />
        </mxCell>
        <mxCell id="hiWJ6FiAwOVD0Gj_WVD6-31" value="1" style="whiteSpace=wrap;html=1;aspect=fixed;fillColor=#f8cecc;strokeColor=#b85450;" vertex="1" parent="hiWJ6FiAwOVD0Gj_WVD6-1">
          <mxGeometry x="840" y="40" width="80" height="80" as="geometry" />
        </mxCell>
        <mxCell id="hiWJ6FiAwOVD0Gj_WVD6-32" value="1" style="whiteSpace=wrap;html=1;aspect=fixed;fillColor=#f8cecc;strokeColor=#b85450;" vertex="1" parent="hiWJ6FiAwOVD0Gj_WVD6-1">
          <mxGeometry x="520" y="120" width="80" height="80" as="geometry" />
        </mxCell>
        <mxCell id="hiWJ6FiAwOVD0Gj_WVD6-33" value="1" style="whiteSpace=wrap;html=1;aspect=fixed;fillColor=#f8cecc;strokeColor=#b85450;" vertex="1" parent="hiWJ6FiAwOVD0Gj_WVD6-1">
          <mxGeometry x="600" y="120" width="80" height="80" as="geometry" />
        </mxCell>
        <mxCell id="hiWJ6FiAwOVD0Gj_WVD6-34" value="1" style="whiteSpace=wrap;html=1;aspect=fixed;fillColor=#f8cecc;strokeColor=#b85450;" vertex="1" parent="hiWJ6FiAwOVD0Gj_WVD6-1">
          <mxGeometry x="520" y="200" width="80" height="80" as="geometry" />
        </mxCell>
        <mxCell id="hiWJ6FiAwOVD0Gj_WVD6-35" value="1" style="whiteSpace=wrap;html=1;aspect=fixed;fillColor=#f8cecc;strokeColor=#b85450;" vertex="1" parent="hiWJ6FiAwOVD0Gj_WVD6-1">
          <mxGeometry x="600" y="200" width="80" height="80" as="geometry" />
        </mxCell>
        <mxCell id="hiWJ6FiAwOVD0Gj_WVD6-36" value="0" style="whiteSpace=wrap;html=1;aspect=fixed;" vertex="1" parent="hiWJ6FiAwOVD0Gj_WVD6-1">
          <mxGeometry x="680" y="200" width="80" height="80" as="geometry" />
        </mxCell>
        <mxCell id="hiWJ6FiAwOVD0Gj_WVD6-37" value="0" style="whiteSpace=wrap;html=1;aspect=fixed;" vertex="1" parent="hiWJ6FiAwOVD0Gj_WVD6-1">
          <mxGeometry x="760" y="200" width="80" height="80" as="geometry" />
        </mxCell>
        <mxCell id="hiWJ6FiAwOVD0Gj_WVD6-38" value="0" style="whiteSpace=wrap;html=1;aspect=fixed;" vertex="1" parent="hiWJ6FiAwOVD0Gj_WVD6-1">
          <mxGeometry x="840" y="200" width="80" height="80" as="geometry" />
        </mxCell>
        <mxCell id="hiWJ6FiAwOVD0Gj_WVD6-39" value="1" style="whiteSpace=wrap;html=1;aspect=fixed;fillColor=#f8cecc;strokeColor=#b85450;" vertex="1" parent="hiWJ6FiAwOVD0Gj_WVD6-1">
          <mxGeometry x="680" y="120" width="80" height="80" as="geometry" />
        </mxCell>
        <mxCell id="hiWJ6FiAwOVD0Gj_WVD6-40" value="1" style="whiteSpace=wrap;html=1;aspect=fixed;fillColor=#f8cecc;strokeColor=#b85450;" vertex="1" parent="hiWJ6FiAwOVD0Gj_WVD6-1">
          <mxGeometry x="760" y="120" width="80" height="80" as="geometry" />
        </mxCell>
        <mxCell id="hiWJ6FiAwOVD0Gj_WVD6-41" value="1" style="whiteSpace=wrap;html=1;aspect=fixed;fillColor=#f8cecc;strokeColor=#b85450;" vertex="1" parent="hiWJ6FiAwOVD0Gj_WVD6-1">
          <mxGeometry x="840" y="120" width="80" height="80" as="geometry" />
        </mxCell>
        <mxCell id="hiWJ6FiAwOVD0Gj_WVD6-42" value="1" style="whiteSpace=wrap;html=1;aspect=fixed;fillColor=#f8cecc;strokeColor=#b85450;" vertex="1" parent="hiWJ6FiAwOVD0Gj_WVD6-1">
          <mxGeometry x="520" y="280" width="80" height="80" as="geometry" />
        </mxCell>
        <mxCell id="hiWJ6FiAwOVD0Gj_WVD6-43" value="1" style="whiteSpace=wrap;html=1;aspect=fixed;fillColor=#f8cecc;strokeColor=#b85450;" vertex="1" parent="hiWJ6FiAwOVD0Gj_WVD6-1">
          <mxGeometry x="600" y="280" width="80" height="80" as="geometry" />
        </mxCell>
        <mxCell id="hiWJ6FiAwOVD0Gj_WVD6-46" value="0" style="whiteSpace=wrap;html=1;aspect=fixed;" vertex="1" parent="hiWJ6FiAwOVD0Gj_WVD6-1">
          <mxGeometry x="840" y="280" width="80" height="80" as="geometry" />
        </mxCell>
        <mxCell id="hiWJ6FiAwOVD0Gj_WVD6-47" value="1" style="whiteSpace=wrap;html=1;aspect=fixed;fillColor=#f8cecc;strokeColor=#b85450;" vertex="1" parent="hiWJ6FiAwOVD0Gj_WVD6-1">
          <mxGeometry x="520" y="360" width="80" height="80" as="geometry" />
        </mxCell>
        <mxCell id="hiWJ6FiAwOVD0Gj_WVD6-48" value="1" style="whiteSpace=wrap;html=1;aspect=fixed;fillColor=#f8cecc;strokeColor=#b85450;" vertex="1" parent="hiWJ6FiAwOVD0Gj_WVD6-1">
          <mxGeometry x="600" y="360" width="80" height="80" as="geometry" />
        </mxCell>
        <mxCell id="hiWJ6FiAwOVD0Gj_WVD6-49" value="0" style="whiteSpace=wrap;html=1;aspect=fixed;" vertex="1" parent="hiWJ6FiAwOVD0Gj_WVD6-1">
          <mxGeometry x="680" y="360" width="80" height="80" as="geometry" />
        </mxCell>
        <mxCell id="hiWJ6FiAwOVD0Gj_WVD6-50" value="0" style="whiteSpace=wrap;html=1;aspect=fixed;" vertex="1" parent="hiWJ6FiAwOVD0Gj_WVD6-1">
          <mxGeometry x="760" y="360" width="80" height="80" as="geometry" />
        </mxCell>
        <mxCell id="hiWJ6FiAwOVD0Gj_WVD6-51" value="0" style="whiteSpace=wrap;html=1;aspect=fixed;" vertex="1" parent="hiWJ6FiAwOVD0Gj_WVD6-1">
          <mxGeometry x="840" y="360" width="80" height="80" as="geometry" />
        </mxCell>
        <mxCell id="hiWJ6FiAwOVD0Gj_WVD6-53" value="" style="triangle;whiteSpace=wrap;html=1;fillColor=#dae8fc;strokeColor=#6c8ebf;" vertex="1" parent="hiWJ6FiAwOVD0Gj_WVD6-1">
          <mxGeometry x="460" y="215" width="40" height="50" as="geometry" />
        </mxCell>
        <mxCell id="hiWJ6FiAwOVD0Gj_WVD6-54" value="0" style="whiteSpace=wrap;html=1;aspect=fixed;" vertex="1" parent="hiWJ6FiAwOVD0Gj_WVD6-1">
          <mxGeometry x="680" y="280" width="40" height="40" as="geometry" />
        </mxCell>
        <mxCell id="hiWJ6FiAwOVD0Gj_WVD6-55" value="0" style="whiteSpace=wrap;html=1;aspect=fixed;" vertex="1" parent="hiWJ6FiAwOVD0Gj_WVD6-1">
          <mxGeometry x="720" y="280" width="40" height="40" as="geometry" />
        </mxCell>
        <mxCell id="hiWJ6FiAwOVD0Gj_WVD6-56" value="0" style="whiteSpace=wrap;html=1;aspect=fixed;" vertex="1" parent="hiWJ6FiAwOVD0Gj_WVD6-1">
          <mxGeometry x="680" y="320" width="40" height="40" as="geometry" />
        </mxCell>
        <mxCell id="hiWJ6FiAwOVD0Gj_WVD6-57" value="0" style="whiteSpace=wrap;html=1;aspect=fixed;" vertex="1" parent="hiWJ6FiAwOVD0Gj_WVD6-1">
          <mxGeometry x="720" y="320" width="40" height="40" as="geometry" />
        </mxCell>
        <mxCell id="hiWJ6FiAwOVD0Gj_WVD6-44" value="&lt;font style=&quot;font-size: 25px&quot;&gt;2&lt;/font&gt;" style="whiteSpace=wrap;html=1;aspect=fixed;fillColor=none;" vertex="1" parent="hiWJ6FiAwOVD0Gj_WVD6-1">
          <mxGeometry x="680" y="280" width="80" height="80" as="geometry" />
        </mxCell>
        <mxCell id="hiWJ6FiAwOVD0Gj_WVD6-58" value="&lt;font style=&quot;font-size: 25px&quot;&gt;2&lt;/font&gt;" style="whiteSpace=wrap;html=1;aspect=fixed;fillColor=none;" vertex="1" parent="hiWJ6FiAwOVD0Gj_WVD6-1">
          <mxGeometry x="760" y="280" width="80" height="80" as="geometry" />
        </mxCell>
        <mxCell id="hiWJ6FiAwOVD0Gj_WVD6-59" value="0" style="whiteSpace=wrap;html=1;aspect=fixed;" vertex="1" parent="hiWJ6FiAwOVD0Gj_WVD6-1">
          <mxGeometry x="100" y="1010" width="80" height="80" as="geometry" />
        </mxCell>
        <mxCell id="hiWJ6FiAwOVD0Gj_WVD6-72" value="" style="group" vertex="1" connectable="0" parent="hiWJ6FiAwOVD0Gj_WVD6-1">
          <mxGeometry x="1240" y="280" width="80" height="80" as="geometry" />
        </mxCell>
        <mxCell id="hiWJ6FiAwOVD0Gj_WVD6-73" value="0" style="whiteSpace=wrap;html=1;aspect=fixed;" vertex="1" parent="hiWJ6FiAwOVD0Gj_WVD6-72">
          <mxGeometry width="40" height="40" as="geometry" />
        </mxCell>
        <mxCell id="hiWJ6FiAwOVD0Gj_WVD6-74" value="0" style="whiteSpace=wrap;html=1;aspect=fixed;" vertex="1" parent="hiWJ6FiAwOVD0Gj_WVD6-72">
          <mxGeometry x="40" width="40" height="40" as="geometry" />
        </mxCell>
        <mxCell id="hiWJ6FiAwOVD0Gj_WVD6-75" value="0" style="whiteSpace=wrap;html=1;aspect=fixed;" vertex="1" parent="hiWJ6FiAwOVD0Gj_WVD6-72">
          <mxGeometry y="40" width="40" height="40" as="geometry" />
        </mxCell>
        <mxCell id="hiWJ6FiAwOVD0Gj_WVD6-76" value="0" style="whiteSpace=wrap;html=1;aspect=fixed;" vertex="1" parent="hiWJ6FiAwOVD0Gj_WVD6-72">
          <mxGeometry x="40" y="40" width="40" height="40" as="geometry" />
        </mxCell>
        <mxCell id="hiWJ6FiAwOVD0Gj_WVD6-77" value="1" style="whiteSpace=wrap;html=1;aspect=fixed;fillColor=#f8cecc;strokeColor=#b85450;" vertex="1" parent="hiWJ6FiAwOVD0Gj_WVD6-1">
          <mxGeometry x="1000" y="40" width="80" height="80" as="geometry" />
        </mxCell>
        <mxCell id="hiWJ6FiAwOVD0Gj_WVD6-78" value="1" style="whiteSpace=wrap;html=1;aspect=fixed;fillColor=#f8cecc;strokeColor=#b85450;" vertex="1" parent="hiWJ6FiAwOVD0Gj_WVD6-1">
          <mxGeometry x="1080" y="40" width="80" height="80" as="geometry" />
        </mxCell>
        <mxCell id="hiWJ6FiAwOVD0Gj_WVD6-79" value="1" style="whiteSpace=wrap;html=1;aspect=fixed;fillColor=#f8cecc;strokeColor=#b85450;" vertex="1" parent="hiWJ6FiAwOVD0Gj_WVD6-1">
          <mxGeometry x="1160" y="40" width="80" height="80" as="geometry" />
        </mxCell>
        <mxCell id="hiWJ6FiAwOVD0Gj_WVD6-80" value="1" style="whiteSpace=wrap;html=1;aspect=fixed;fillColor=#f8cecc;strokeColor=#b85450;" vertex="1" parent="hiWJ6FiAwOVD0Gj_WVD6-1">
          <mxGeometry x="1240" y="40" width="80" height="80" as="geometry" />
        </mxCell>
        <mxCell id="hiWJ6FiAwOVD0Gj_WVD6-81" value="1" style="whiteSpace=wrap;html=1;aspect=fixed;fillColor=#f8cecc;strokeColor=#b85450;" vertex="1" parent="hiWJ6FiAwOVD0Gj_WVD6-1">
          <mxGeometry x="1320" y="40" width="80" height="80" as="geometry" />
        </mxCell>
        <mxCell id="hiWJ6FiAwOVD0Gj_WVD6-82" value="1" style="whiteSpace=wrap;html=1;aspect=fixed;fillColor=#f8cecc;strokeColor=#b85450;" vertex="1" parent="hiWJ6FiAwOVD0Gj_WVD6-1">
          <mxGeometry x="1000" y="120" width="80" height="80" as="geometry" />
        </mxCell>
        <mxCell id="hiWJ6FiAwOVD0Gj_WVD6-83" value="1" style="whiteSpace=wrap;html=1;aspect=fixed;fillColor=#f8cecc;strokeColor=#b85450;" vertex="1" parent="hiWJ6FiAwOVD0Gj_WVD6-1">
          <mxGeometry x="1080" y="120" width="80" height="80" as="geometry" />
        </mxCell>
        <mxCell id="hiWJ6FiAwOVD0Gj_WVD6-84" value="1" style="whiteSpace=wrap;html=1;aspect=fixed;fillColor=#f8cecc;strokeColor=#b85450;" vertex="1" parent="hiWJ6FiAwOVD0Gj_WVD6-1">
          <mxGeometry x="1000" y="200" width="80" height="80" as="geometry" />
        </mxCell>
        <mxCell id="hiWJ6FiAwOVD0Gj_WVD6-85" value="1" style="whiteSpace=wrap;html=1;aspect=fixed;fillColor=#f8cecc;strokeColor=#b85450;" vertex="1" parent="hiWJ6FiAwOVD0Gj_WVD6-1">
          <mxGeometry x="1080" y="200" width="80" height="80" as="geometry" />
        </mxCell>
        <mxCell id="hiWJ6FiAwOVD0Gj_WVD6-86" value="0" style="whiteSpace=wrap;html=1;aspect=fixed;fillColor=none;" vertex="1" parent="hiWJ6FiAwOVD0Gj_WVD6-1">
          <mxGeometry x="1160" y="200" width="80" height="80" as="geometry" />
        </mxCell>
        <mxCell id="hiWJ6FiAwOVD0Gj_WVD6-87" value="0" style="whiteSpace=wrap;html=1;aspect=fixed;fillColor=none;" vertex="1" parent="hiWJ6FiAwOVD0Gj_WVD6-1">
          <mxGeometry x="1240" y="200" width="80" height="80" as="geometry" />
        </mxCell>
        <mxCell id="hiWJ6FiAwOVD0Gj_WVD6-88" value="0" style="whiteSpace=wrap;html=1;aspect=fixed;" vertex="1" parent="hiWJ6FiAwOVD0Gj_WVD6-1">
          <mxGeometry x="1320" y="200" width="80" height="80" as="geometry" />
        </mxCell>
        <mxCell id="hiWJ6FiAwOVD0Gj_WVD6-89" value="1" style="whiteSpace=wrap;html=1;aspect=fixed;fillColor=#f8cecc;strokeColor=#b85450;" vertex="1" parent="hiWJ6FiAwOVD0Gj_WVD6-1">
          <mxGeometry x="1160" y="120" width="80" height="80" as="geometry" />
        </mxCell>
        <mxCell id="hiWJ6FiAwOVD0Gj_WVD6-90" value="1" style="whiteSpace=wrap;html=1;aspect=fixed;fillColor=#f8cecc;strokeColor=#b85450;" vertex="1" parent="hiWJ6FiAwOVD0Gj_WVD6-1">
          <mxGeometry x="1240" y="120" width="80" height="80" as="geometry" />
        </mxCell>
        <mxCell id="hiWJ6FiAwOVD0Gj_WVD6-91" value="1" style="whiteSpace=wrap;html=1;aspect=fixed;fillColor=#f8cecc;strokeColor=#b85450;" vertex="1" parent="hiWJ6FiAwOVD0Gj_WVD6-1">
          <mxGeometry x="1320" y="120" width="80" height="80" as="geometry" />
        </mxCell>
        <mxCell id="hiWJ6FiAwOVD0Gj_WVD6-94" value="0" style="whiteSpace=wrap;html=1;aspect=fixed;" vertex="1" parent="hiWJ6FiAwOVD0Gj_WVD6-1">
          <mxGeometry x="1320" y="280" width="80" height="80" as="geometry" />
        </mxCell>
        <mxCell id="hiWJ6FiAwOVD0Gj_WVD6-99" value="0" style="whiteSpace=wrap;html=1;aspect=fixed;" vertex="1" parent="hiWJ6FiAwOVD0Gj_WVD6-1">
          <mxGeometry x="1320" y="360" width="80" height="80" as="geometry" />
        </mxCell>
        <mxCell id="hiWJ6FiAwOVD0Gj_WVD6-100" value="" style="triangle;whiteSpace=wrap;html=1;fillColor=#dae8fc;strokeColor=#6c8ebf;" vertex="1" parent="hiWJ6FiAwOVD0Gj_WVD6-1">
          <mxGeometry x="940" y="215" width="40" height="50" as="geometry" />
        </mxCell>
        <mxCell id="hiWJ6FiAwOVD0Gj_WVD6-101" value="0" style="whiteSpace=wrap;html=1;aspect=fixed;" vertex="1" parent="hiWJ6FiAwOVD0Gj_WVD6-1">
          <mxGeometry x="1160" y="280" width="40" height="40" as="geometry" />
        </mxCell>
        <mxCell id="hiWJ6FiAwOVD0Gj_WVD6-102" value="0" style="whiteSpace=wrap;html=1;aspect=fixed;" vertex="1" parent="hiWJ6FiAwOVD0Gj_WVD6-1">
          <mxGeometry x="1200" y="280" width="40" height="40" as="geometry" />
        </mxCell>
        <mxCell id="hiWJ6FiAwOVD0Gj_WVD6-103" value="0" style="whiteSpace=wrap;html=1;aspect=fixed;" vertex="1" parent="hiWJ6FiAwOVD0Gj_WVD6-1">
          <mxGeometry x="1160" y="320" width="40" height="40" as="geometry" />
        </mxCell>
        <mxCell id="hiWJ6FiAwOVD0Gj_WVD6-104" value="0" style="whiteSpace=wrap;html=1;aspect=fixed;" vertex="1" parent="hiWJ6FiAwOVD0Gj_WVD6-1">
          <mxGeometry x="1200" y="320" width="40" height="40" as="geometry" />
        </mxCell>
        <mxCell id="hiWJ6FiAwOVD0Gj_WVD6-105" value="&lt;font style=&quot;font-size: 25px&quot;&gt;2&lt;/font&gt;" style="whiteSpace=wrap;html=1;aspect=fixed;fillColor=none;" vertex="1" parent="hiWJ6FiAwOVD0Gj_WVD6-1">
          <mxGeometry x="1160" y="280" width="80" height="80" as="geometry" />
        </mxCell>
        <mxCell id="hiWJ6FiAwOVD0Gj_WVD6-106" value="&lt;font style=&quot;font-size: 25px&quot;&gt;2&lt;/font&gt;" style="whiteSpace=wrap;html=1;aspect=fixed;fillColor=none;" vertex="1" parent="hiWJ6FiAwOVD0Gj_WVD6-1">
          <mxGeometry x="1240" y="280" width="80" height="80" as="geometry" />
        </mxCell>
        <mxCell id="hiWJ6FiAwOVD0Gj_WVD6-119" value="1" style="whiteSpace=wrap;html=1;aspect=fixed;fillColor=none;" vertex="1" parent="hiWJ6FiAwOVD0Gj_WVD6-1">
          <mxGeometry x="1240" y="200" width="40" height="40" as="geometry" />
        </mxCell>
        <mxCell id="hiWJ6FiAwOVD0Gj_WVD6-120" value="1" style="whiteSpace=wrap;html=1;aspect=fixed;fillColor=none;" vertex="1" parent="hiWJ6FiAwOVD0Gj_WVD6-1">
          <mxGeometry x="1280" y="200" width="40" height="40" as="geometry" />
        </mxCell>
        <mxCell id="hiWJ6FiAwOVD0Gj_WVD6-121" value="1" style="whiteSpace=wrap;html=1;aspect=fixed;fillColor=none;" vertex="1" parent="hiWJ6FiAwOVD0Gj_WVD6-1">
          <mxGeometry x="1240" y="240" width="40" height="40" as="geometry" />
        </mxCell>
        <mxCell id="hiWJ6FiAwOVD0Gj_WVD6-122" value="1" style="whiteSpace=wrap;html=1;aspect=fixed;fillColor=none;" vertex="1" parent="hiWJ6FiAwOVD0Gj_WVD6-1">
          <mxGeometry x="1280" y="240" width="40" height="40" as="geometry" />
        </mxCell>
        <mxCell id="hiWJ6FiAwOVD0Gj_WVD6-123" value="" style="group" vertex="1" connectable="0" parent="hiWJ6FiAwOVD0Gj_WVD6-1">
          <mxGeometry x="1240" y="360" width="80" height="80" as="geometry" />
        </mxCell>
        <mxCell id="hiWJ6FiAwOVD0Gj_WVD6-124" value="0" style="whiteSpace=wrap;html=1;aspect=fixed;" vertex="1" parent="hiWJ6FiAwOVD0Gj_WVD6-123">
          <mxGeometry width="40" height="40" as="geometry" />
        </mxCell>
        <mxCell id="hiWJ6FiAwOVD0Gj_WVD6-125" value="0" style="whiteSpace=wrap;html=1;aspect=fixed;" vertex="1" parent="hiWJ6FiAwOVD0Gj_WVD6-123">
          <mxGeometry x="40" width="40" height="40" as="geometry" />
        </mxCell>
        <mxCell id="hiWJ6FiAwOVD0Gj_WVD6-126" value="0" style="whiteSpace=wrap;html=1;aspect=fixed;" vertex="1" parent="hiWJ6FiAwOVD0Gj_WVD6-123">
          <mxGeometry y="40" width="40" height="40" as="geometry" />
        </mxCell>
        <mxCell id="hiWJ6FiAwOVD0Gj_WVD6-127" value="0" style="whiteSpace=wrap;html=1;aspect=fixed;" vertex="1" parent="hiWJ6FiAwOVD0Gj_WVD6-123">
          <mxGeometry x="40" y="40" width="40" height="40" as="geometry" />
        </mxCell>
        <mxCell id="hiWJ6FiAwOVD0Gj_WVD6-128" value="0" style="whiteSpace=wrap;html=1;aspect=fixed;" vertex="1" parent="hiWJ6FiAwOVD0Gj_WVD6-1">
          <mxGeometry x="1160" y="360" width="40" height="40" as="geometry" />
        </mxCell>
        <mxCell id="hiWJ6FiAwOVD0Gj_WVD6-129" value="0" style="whiteSpace=wrap;html=1;aspect=fixed;" vertex="1" parent="hiWJ6FiAwOVD0Gj_WVD6-1">
          <mxGeometry x="1200" y="360" width="40" height="40" as="geometry" />
        </mxCell>
        <mxCell id="hiWJ6FiAwOVD0Gj_WVD6-130" value="0" style="whiteSpace=wrap;html=1;aspect=fixed;" vertex="1" parent="hiWJ6FiAwOVD0Gj_WVD6-1">
          <mxGeometry x="1160" y="400" width="40" height="40" as="geometry" />
        </mxCell>
        <mxCell id="hiWJ6FiAwOVD0Gj_WVD6-131" value="0" style="whiteSpace=wrap;html=1;aspect=fixed;" vertex="1" parent="hiWJ6FiAwOVD0Gj_WVD6-1">
          <mxGeometry x="1200" y="400" width="40" height="40" as="geometry" />
        </mxCell>
        <mxCell id="hiWJ6FiAwOVD0Gj_WVD6-132" value="&lt;font style=&quot;font-size: 25px&quot;&gt;2&lt;/font&gt;" style="whiteSpace=wrap;html=1;aspect=fixed;fillColor=none;" vertex="1" parent="hiWJ6FiAwOVD0Gj_WVD6-1">
          <mxGeometry x="1160" y="360" width="80" height="80" as="geometry" />
        </mxCell>
        <mxCell id="hiWJ6FiAwOVD0Gj_WVD6-133" value="&lt;font style=&quot;font-size: 25px&quot;&gt;2&lt;/font&gt;" style="whiteSpace=wrap;html=1;aspect=fixed;fillColor=none;" vertex="1" parent="hiWJ6FiAwOVD0Gj_WVD6-1">
          <mxGeometry x="1240" y="360" width="80" height="80" as="geometry" />
        </mxCell>
        <mxCell id="hiWJ6FiAwOVD0Gj_WVD6-134" value="0" style="whiteSpace=wrap;html=1;aspect=fixed;fillColor=none;" vertex="1" parent="hiWJ6FiAwOVD0Gj_WVD6-1">
          <mxGeometry x="1080" y="280" width="80" height="80" as="geometry" />
        </mxCell>
        <mxCell id="hiWJ6FiAwOVD0Gj_WVD6-135" value="0" style="whiteSpace=wrap;html=1;aspect=fixed;fillColor=none;" vertex="1" parent="hiWJ6FiAwOVD0Gj_WVD6-1">
          <mxGeometry x="1080" y="360" width="80" height="80" as="geometry" />
        </mxCell>
        <mxCell id="hiWJ6FiAwOVD0Gj_WVD6-136" value="0" style="whiteSpace=wrap;html=1;aspect=fixed;" vertex="1" parent="hiWJ6FiAwOVD0Gj_WVD6-1">
          <mxGeometry x="1000" y="280" width="80" height="80" as="geometry" />
        </mxCell>
        <mxCell id="hiWJ6FiAwOVD0Gj_WVD6-137" value="0" style="whiteSpace=wrap;html=1;aspect=fixed;" vertex="1" parent="hiWJ6FiAwOVD0Gj_WVD6-1">
          <mxGeometry x="1000" y="360" width="80" height="80" as="geometry" />
        </mxCell>
        <mxCell id="hiWJ6FiAwOVD0Gj_WVD6-138" value="1" style="whiteSpace=wrap;html=1;aspect=fixed;fillColor=none;" vertex="1" parent="hiWJ6FiAwOVD0Gj_WVD6-1">
          <mxGeometry x="1080" y="280" width="40" height="40" as="geometry" />
        </mxCell>
        <mxCell id="hiWJ6FiAwOVD0Gj_WVD6-139" value="1" style="whiteSpace=wrap;html=1;aspect=fixed;fillColor=none;" vertex="1" parent="hiWJ6FiAwOVD0Gj_WVD6-1">
          <mxGeometry x="1120" y="280" width="40" height="40" as="geometry" />
        </mxCell>
        <mxCell id="hiWJ6FiAwOVD0Gj_WVD6-140" value="1" style="whiteSpace=wrap;html=1;aspect=fixed;fillColor=none;" vertex="1" parent="hiWJ6FiAwOVD0Gj_WVD6-1">
          <mxGeometry x="1080" y="320" width="40" height="40" as="geometry" />
        </mxCell>
        <mxCell id="hiWJ6FiAwOVD0Gj_WVD6-141" value="1" style="whiteSpace=wrap;html=1;aspect=fixed;fillColor=none;" vertex="1" parent="hiWJ6FiAwOVD0Gj_WVD6-1">
          <mxGeometry x="1120" y="320" width="40" height="40" as="geometry" />
        </mxCell>
        <mxCell id="hiWJ6FiAwOVD0Gj_WVD6-142" value="1" style="whiteSpace=wrap;html=1;aspect=fixed;fillColor=none;" vertex="1" parent="hiWJ6FiAwOVD0Gj_WVD6-1">
          <mxGeometry x="1080" y="360" width="40" height="40" as="geometry" />
        </mxCell>
        <mxCell id="hiWJ6FiAwOVD0Gj_WVD6-143" value="1" style="whiteSpace=wrap;html=1;aspect=fixed;fillColor=none;" vertex="1" parent="hiWJ6FiAwOVD0Gj_WVD6-1">
          <mxGeometry x="1120" y="360" width="40" height="40" as="geometry" />
        </mxCell>
        <mxCell id="hiWJ6FiAwOVD0Gj_WVD6-144" value="1" style="whiteSpace=wrap;html=1;aspect=fixed;fillColor=none;" vertex="1" parent="hiWJ6FiAwOVD0Gj_WVD6-1">
          <mxGeometry x="1080" y="400" width="40" height="40" as="geometry" />
        </mxCell>
        <mxCell id="hiWJ6FiAwOVD0Gj_WVD6-145" value="1" style="whiteSpace=wrap;html=1;aspect=fixed;fillColor=none;" vertex="1" parent="hiWJ6FiAwOVD0Gj_WVD6-1">
          <mxGeometry x="1120" y="400" width="40" height="40" as="geometry" />
        </mxCell>
        <mxCell id="hiWJ6FiAwOVD0Gj_WVD6-146" value="1" style="whiteSpace=wrap;html=1;aspect=fixed;" vertex="1" parent="hiWJ6FiAwOVD0Gj_WVD6-1">
          <mxGeometry x="1840" y="200" width="40" height="40" as="geometry" />
        </mxCell>
        <mxCell id="hiWJ6FiAwOVD0Gj_WVD6-147" value="1" style="whiteSpace=wrap;html=1;aspect=fixed;" vertex="1" parent="hiWJ6FiAwOVD0Gj_WVD6-1">
          <mxGeometry x="1880" y="200" width="40" height="40" as="geometry" />
        </mxCell>
        <mxCell id="hiWJ6FiAwOVD0Gj_WVD6-148" value="1" style="whiteSpace=wrap;html=1;aspect=fixed;" vertex="1" parent="hiWJ6FiAwOVD0Gj_WVD6-1">
          <mxGeometry x="1840" y="240" width="40" height="40" as="geometry" />
        </mxCell>
        <mxCell id="hiWJ6FiAwOVD0Gj_WVD6-149" value="1" style="whiteSpace=wrap;html=1;aspect=fixed;" vertex="1" parent="hiWJ6FiAwOVD0Gj_WVD6-1">
          <mxGeometry x="1880" y="240" width="40" height="40" as="geometry" />
        </mxCell>
        <mxCell id="hiWJ6FiAwOVD0Gj_WVD6-150" value="" style="group" vertex="1" connectable="0" parent="hiWJ6FiAwOVD0Gj_WVD6-1">
          <mxGeometry x="1920" y="280" width="80" height="80" as="geometry" />
        </mxCell>
        <mxCell id="hiWJ6FiAwOVD0Gj_WVD6-151" value="0" style="whiteSpace=wrap;html=1;aspect=fixed;" vertex="1" parent="hiWJ6FiAwOVD0Gj_WVD6-150">
          <mxGeometry width="40" height="40" as="geometry" />
        </mxCell>
        <mxCell id="hiWJ6FiAwOVD0Gj_WVD6-152" value="0" style="whiteSpace=wrap;html=1;aspect=fixed;" vertex="1" parent="hiWJ6FiAwOVD0Gj_WVD6-150">
          <mxGeometry x="40" width="40" height="40" as="geometry" />
        </mxCell>
        <mxCell id="hiWJ6FiAwOVD0Gj_WVD6-153" value="0" style="whiteSpace=wrap;html=1;aspect=fixed;" vertex="1" parent="hiWJ6FiAwOVD0Gj_WVD6-150">
          <mxGeometry y="40" width="40" height="40" as="geometry" />
        </mxCell>
        <mxCell id="hiWJ6FiAwOVD0Gj_WVD6-154" value="0" style="whiteSpace=wrap;html=1;aspect=fixed;" vertex="1" parent="hiWJ6FiAwOVD0Gj_WVD6-150">
          <mxGeometry x="40" y="40" width="40" height="40" as="geometry" />
        </mxCell>
        <mxCell id="hiWJ6FiAwOVD0Gj_WVD6-155" value="1" style="whiteSpace=wrap;html=1;aspect=fixed;fillColor=#f8cecc;strokeColor=#b85450;" vertex="1" parent="hiWJ6FiAwOVD0Gj_WVD6-1">
          <mxGeometry x="1680" y="40" width="80" height="80" as="geometry" />
        </mxCell>
        <mxCell id="hiWJ6FiAwOVD0Gj_WVD6-156" value="1" style="whiteSpace=wrap;html=1;aspect=fixed;fillColor=#f8cecc;strokeColor=#b85450;" vertex="1" parent="hiWJ6FiAwOVD0Gj_WVD6-1">
          <mxGeometry x="1760" y="40" width="80" height="80" as="geometry" />
        </mxCell>
        <mxCell id="hiWJ6FiAwOVD0Gj_WVD6-157" value="1" style="whiteSpace=wrap;html=1;aspect=fixed;fillColor=#f8cecc;strokeColor=#b85450;" vertex="1" parent="hiWJ6FiAwOVD0Gj_WVD6-1">
          <mxGeometry x="1840" y="40" width="80" height="80" as="geometry" />
        </mxCell>
        <mxCell id="hiWJ6FiAwOVD0Gj_WVD6-158" value="1" style="whiteSpace=wrap;html=1;aspect=fixed;fillColor=#f8cecc;strokeColor=#b85450;" vertex="1" parent="hiWJ6FiAwOVD0Gj_WVD6-1">
          <mxGeometry x="1920" y="40" width="80" height="80" as="geometry" />
        </mxCell>
        <mxCell id="hiWJ6FiAwOVD0Gj_WVD6-159" value="1" style="whiteSpace=wrap;html=1;aspect=fixed;fillColor=#f8cecc;strokeColor=#b85450;" vertex="1" parent="hiWJ6FiAwOVD0Gj_WVD6-1">
          <mxGeometry x="2000" y="40" width="80" height="80" as="geometry" />
        </mxCell>
        <mxCell id="hiWJ6FiAwOVD0Gj_WVD6-160" value="1" style="whiteSpace=wrap;html=1;aspect=fixed;fillColor=#f8cecc;strokeColor=#b85450;" vertex="1" parent="hiWJ6FiAwOVD0Gj_WVD6-1">
          <mxGeometry x="1680" y="120" width="80" height="80" as="geometry" />
        </mxCell>
        <mxCell id="hiWJ6FiAwOVD0Gj_WVD6-161" value="1" style="whiteSpace=wrap;html=1;aspect=fixed;fillColor=#f8cecc;strokeColor=#b85450;" vertex="1" parent="hiWJ6FiAwOVD0Gj_WVD6-1">
          <mxGeometry x="1760" y="120" width="80" height="80" as="geometry" />
        </mxCell>
        <mxCell id="hiWJ6FiAwOVD0Gj_WVD6-162" value="1" style="whiteSpace=wrap;html=1;aspect=fixed;fillColor=#f8cecc;strokeColor=#b85450;" vertex="1" parent="hiWJ6FiAwOVD0Gj_WVD6-1">
          <mxGeometry x="1680" y="200" width="80" height="80" as="geometry" />
        </mxCell>
        <mxCell id="hiWJ6FiAwOVD0Gj_WVD6-163" value="1" style="whiteSpace=wrap;html=1;aspect=fixed;fillColor=#f8cecc;strokeColor=#b85450;" vertex="1" parent="hiWJ6FiAwOVD0Gj_WVD6-1">
          <mxGeometry x="1760" y="200" width="80" height="80" as="geometry" />
        </mxCell>
        <mxCell id="hiWJ6FiAwOVD0Gj_WVD6-164" value="0" style="whiteSpace=wrap;html=1;aspect=fixed;fillColor=none;" vertex="1" parent="hiWJ6FiAwOVD0Gj_WVD6-1">
          <mxGeometry x="1840" y="200" width="80" height="80" as="geometry" />
        </mxCell>
        <mxCell id="hiWJ6FiAwOVD0Gj_WVD6-165" value="0" style="whiteSpace=wrap;html=1;aspect=fixed;fillColor=none;" vertex="1" parent="hiWJ6FiAwOVD0Gj_WVD6-1">
          <mxGeometry x="1920" y="200" width="80" height="80" as="geometry" />
        </mxCell>
        <mxCell id="hiWJ6FiAwOVD0Gj_WVD6-166" value="0" style="whiteSpace=wrap;html=1;aspect=fixed;" vertex="1" parent="hiWJ6FiAwOVD0Gj_WVD6-1">
          <mxGeometry x="2000" y="200" width="80" height="80" as="geometry" />
        </mxCell>
        <mxCell id="hiWJ6FiAwOVD0Gj_WVD6-167" value="1" style="whiteSpace=wrap;html=1;aspect=fixed;fillColor=#f8cecc;strokeColor=#b85450;" vertex="1" parent="hiWJ6FiAwOVD0Gj_WVD6-1">
          <mxGeometry x="1840" y="120" width="80" height="80" as="geometry" />
        </mxCell>
        <mxCell id="hiWJ6FiAwOVD0Gj_WVD6-168" value="1" style="whiteSpace=wrap;html=1;aspect=fixed;fillColor=#f8cecc;strokeColor=#b85450;" vertex="1" parent="hiWJ6FiAwOVD0Gj_WVD6-1">
          <mxGeometry x="1920" y="120" width="80" height="80" as="geometry" />
        </mxCell>
        <mxCell id="hiWJ6FiAwOVD0Gj_WVD6-169" value="1" style="whiteSpace=wrap;html=1;aspect=fixed;fillColor=#f8cecc;strokeColor=#b85450;" vertex="1" parent="hiWJ6FiAwOVD0Gj_WVD6-1">
          <mxGeometry x="2000" y="120" width="80" height="80" as="geometry" />
        </mxCell>
        <mxCell id="hiWJ6FiAwOVD0Gj_WVD6-170" value="0" style="whiteSpace=wrap;html=1;aspect=fixed;" vertex="1" parent="hiWJ6FiAwOVD0Gj_WVD6-1">
          <mxGeometry x="2000" y="280" width="80" height="80" as="geometry" />
        </mxCell>
        <mxCell id="hiWJ6FiAwOVD0Gj_WVD6-171" value="0" style="whiteSpace=wrap;html=1;aspect=fixed;" vertex="1" parent="hiWJ6FiAwOVD0Gj_WVD6-1">
          <mxGeometry x="2000" y="360" width="80" height="80" as="geometry" />
        </mxCell>
        <mxCell id="hiWJ6FiAwOVD0Gj_WVD6-172" value="" style="triangle;whiteSpace=wrap;html=1;fillColor=#dae8fc;strokeColor=#6c8ebf;" vertex="1" parent="hiWJ6FiAwOVD0Gj_WVD6-1">
          <mxGeometry x="1420" y="215" width="40" height="50" as="geometry" />
        </mxCell>
        <mxCell id="hiWJ6FiAwOVD0Gj_WVD6-173" value="0" style="whiteSpace=wrap;html=1;aspect=fixed;" vertex="1" parent="hiWJ6FiAwOVD0Gj_WVD6-1">
          <mxGeometry x="1840" y="280" width="40" height="40" as="geometry" />
        </mxCell>
        <mxCell id="hiWJ6FiAwOVD0Gj_WVD6-174" value="0" style="whiteSpace=wrap;html=1;aspect=fixed;" vertex="1" parent="hiWJ6FiAwOVD0Gj_WVD6-1">
          <mxGeometry x="1880" y="280" width="40" height="40" as="geometry" />
        </mxCell>
        <mxCell id="hiWJ6FiAwOVD0Gj_WVD6-175" value="0" style="whiteSpace=wrap;html=1;aspect=fixed;" vertex="1" parent="hiWJ6FiAwOVD0Gj_WVD6-1">
          <mxGeometry x="1840" y="320" width="40" height="40" as="geometry" />
        </mxCell>
        <mxCell id="hiWJ6FiAwOVD0Gj_WVD6-176" value="0" style="whiteSpace=wrap;html=1;aspect=fixed;" vertex="1" parent="hiWJ6FiAwOVD0Gj_WVD6-1">
          <mxGeometry x="1880" y="320" width="40" height="40" as="geometry" />
        </mxCell>
        <mxCell id="hiWJ6FiAwOVD0Gj_WVD6-177" value="&lt;font style=&quot;font-size: 25px&quot;&gt;2&lt;/font&gt;" style="whiteSpace=wrap;html=1;aspect=fixed;fillColor=none;" vertex="1" parent="hiWJ6FiAwOVD0Gj_WVD6-1">
          <mxGeometry x="1840" y="280" width="80" height="80" as="geometry" />
        </mxCell>
        <mxCell id="hiWJ6FiAwOVD0Gj_WVD6-178" value="&lt;font style=&quot;font-size: 25px&quot;&gt;2&lt;/font&gt;" style="whiteSpace=wrap;html=1;aspect=fixed;fillColor=none;" vertex="1" parent="hiWJ6FiAwOVD0Gj_WVD6-1">
          <mxGeometry x="1920" y="280" width="80" height="80" as="geometry" />
        </mxCell>
        <mxCell id="hiWJ6FiAwOVD0Gj_WVD6-179" value="1" style="whiteSpace=wrap;html=1;aspect=fixed;fillColor=none;" vertex="1" parent="hiWJ6FiAwOVD0Gj_WVD6-1">
          <mxGeometry x="1920" y="200" width="40" height="40" as="geometry" />
        </mxCell>
        <mxCell id="hiWJ6FiAwOVD0Gj_WVD6-180" value="1" style="whiteSpace=wrap;html=1;aspect=fixed;fillColor=none;" vertex="1" parent="hiWJ6FiAwOVD0Gj_WVD6-1">
          <mxGeometry x="1960" y="200" width="40" height="40" as="geometry" />
        </mxCell>
        <mxCell id="hiWJ6FiAwOVD0Gj_WVD6-181" value="1" style="whiteSpace=wrap;html=1;aspect=fixed;fillColor=none;" vertex="1" parent="hiWJ6FiAwOVD0Gj_WVD6-1">
          <mxGeometry x="1920" y="240" width="40" height="40" as="geometry" />
        </mxCell>
        <mxCell id="hiWJ6FiAwOVD0Gj_WVD6-182" value="1" style="whiteSpace=wrap;html=1;aspect=fixed;fillColor=none;" vertex="1" parent="hiWJ6FiAwOVD0Gj_WVD6-1">
          <mxGeometry x="1960" y="240" width="40" height="40" as="geometry" />
        </mxCell>
        <mxCell id="hiWJ6FiAwOVD0Gj_WVD6-183" value="" style="group" vertex="1" connectable="0" parent="hiWJ6FiAwOVD0Gj_WVD6-1">
          <mxGeometry x="1920" y="360" width="80" height="80" as="geometry" />
        </mxCell>
        <mxCell id="hiWJ6FiAwOVD0Gj_WVD6-184" value="0" style="whiteSpace=wrap;html=1;aspect=fixed;" vertex="1" parent="hiWJ6FiAwOVD0Gj_WVD6-183">
          <mxGeometry width="40" height="40" as="geometry" />
        </mxCell>
        <mxCell id="hiWJ6FiAwOVD0Gj_WVD6-185" value="0" style="whiteSpace=wrap;html=1;aspect=fixed;" vertex="1" parent="hiWJ6FiAwOVD0Gj_WVD6-183">
          <mxGeometry x="40" width="40" height="40" as="geometry" />
        </mxCell>
        <mxCell id="hiWJ6FiAwOVD0Gj_WVD6-186" value="0" style="whiteSpace=wrap;html=1;aspect=fixed;" vertex="1" parent="hiWJ6FiAwOVD0Gj_WVD6-183">
          <mxGeometry y="40" width="40" height="40" as="geometry" />
        </mxCell>
        <mxCell id="hiWJ6FiAwOVD0Gj_WVD6-187" value="0" style="whiteSpace=wrap;html=1;aspect=fixed;" vertex="1" parent="hiWJ6FiAwOVD0Gj_WVD6-183">
          <mxGeometry x="40" y="40" width="40" height="40" as="geometry" />
        </mxCell>
        <mxCell id="hiWJ6FiAwOVD0Gj_WVD6-188" value="0" style="whiteSpace=wrap;html=1;aspect=fixed;" vertex="1" parent="hiWJ6FiAwOVD0Gj_WVD6-1">
          <mxGeometry x="1840" y="360" width="40" height="40" as="geometry" />
        </mxCell>
        <mxCell id="hiWJ6FiAwOVD0Gj_WVD6-189" value="0" style="whiteSpace=wrap;html=1;aspect=fixed;" vertex="1" parent="hiWJ6FiAwOVD0Gj_WVD6-1">
          <mxGeometry x="1880" y="360" width="40" height="40" as="geometry" />
        </mxCell>
        <mxCell id="hiWJ6FiAwOVD0Gj_WVD6-190" value="0" style="whiteSpace=wrap;html=1;aspect=fixed;" vertex="1" parent="hiWJ6FiAwOVD0Gj_WVD6-1">
          <mxGeometry x="1840" y="400" width="40" height="40" as="geometry" />
        </mxCell>
        <mxCell id="hiWJ6FiAwOVD0Gj_WVD6-191" value="0" style="whiteSpace=wrap;html=1;aspect=fixed;" vertex="1" parent="hiWJ6FiAwOVD0Gj_WVD6-1">
          <mxGeometry x="1880" y="400" width="40" height="40" as="geometry" />
        </mxCell>
        <mxCell id="hiWJ6FiAwOVD0Gj_WVD6-192" value="&lt;font style=&quot;font-size: 25px&quot;&gt;2&lt;/font&gt;" style="whiteSpace=wrap;html=1;aspect=fixed;fillColor=none;" vertex="1" parent="hiWJ6FiAwOVD0Gj_WVD6-1">
          <mxGeometry x="1840" y="360" width="80" height="80" as="geometry" />
        </mxCell>
        <mxCell id="hiWJ6FiAwOVD0Gj_WVD6-193" value="&lt;font style=&quot;font-size: 25px&quot;&gt;2&lt;/font&gt;" style="whiteSpace=wrap;html=1;aspect=fixed;fillColor=none;" vertex="1" parent="hiWJ6FiAwOVD0Gj_WVD6-1">
          <mxGeometry x="1920" y="360" width="80" height="80" as="geometry" />
        </mxCell>
        <mxCell id="hiWJ6FiAwOVD0Gj_WVD6-194" value="0" style="whiteSpace=wrap;html=1;aspect=fixed;fillColor=none;" vertex="1" parent="hiWJ6FiAwOVD0Gj_WVD6-1">
          <mxGeometry x="1760" y="280" width="80" height="80" as="geometry" />
        </mxCell>
        <mxCell id="hiWJ6FiAwOVD0Gj_WVD6-195" value="0" style="whiteSpace=wrap;html=1;aspect=fixed;fillColor=none;" vertex="1" parent="hiWJ6FiAwOVD0Gj_WVD6-1">
          <mxGeometry x="1760" y="360" width="80" height="80" as="geometry" />
        </mxCell>
        <mxCell id="hiWJ6FiAwOVD0Gj_WVD6-196" value="0" style="whiteSpace=wrap;html=1;aspect=fixed;" vertex="1" parent="hiWJ6FiAwOVD0Gj_WVD6-1">
          <mxGeometry x="1680" y="280" width="80" height="80" as="geometry" />
        </mxCell>
        <mxCell id="hiWJ6FiAwOVD0Gj_WVD6-197" value="0" style="whiteSpace=wrap;html=1;aspect=fixed;" vertex="1" parent="hiWJ6FiAwOVD0Gj_WVD6-1">
          <mxGeometry x="1680" y="360" width="80" height="80" as="geometry" />
        </mxCell>
        <mxCell id="hiWJ6FiAwOVD0Gj_WVD6-198" value="1" style="whiteSpace=wrap;html=1;aspect=fixed;fillColor=none;" vertex="1" parent="hiWJ6FiAwOVD0Gj_WVD6-1">
          <mxGeometry x="1760" y="280" width="40" height="40" as="geometry" />
        </mxCell>
        <mxCell id="hiWJ6FiAwOVD0Gj_WVD6-199" value="1" style="whiteSpace=wrap;html=1;aspect=fixed;fillColor=none;" vertex="1" parent="hiWJ6FiAwOVD0Gj_WVD6-1">
          <mxGeometry x="1800" y="280" width="40" height="40" as="geometry" />
        </mxCell>
        <mxCell id="hiWJ6FiAwOVD0Gj_WVD6-200" value="1" style="whiteSpace=wrap;html=1;aspect=fixed;fillColor=none;" vertex="1" parent="hiWJ6FiAwOVD0Gj_WVD6-1">
          <mxGeometry x="1760" y="320" width="40" height="40" as="geometry" />
        </mxCell>
        <mxCell id="hiWJ6FiAwOVD0Gj_WVD6-201" value="1" style="whiteSpace=wrap;html=1;aspect=fixed;fillColor=none;" vertex="1" parent="hiWJ6FiAwOVD0Gj_WVD6-1">
          <mxGeometry x="1800" y="320" width="40" height="40" as="geometry" />
        </mxCell>
        <mxCell id="hiWJ6FiAwOVD0Gj_WVD6-202" value="1" style="whiteSpace=wrap;html=1;aspect=fixed;fillColor=none;" vertex="1" parent="hiWJ6FiAwOVD0Gj_WVD6-1">
          <mxGeometry x="1760" y="360" width="40" height="40" as="geometry" />
        </mxCell>
        <mxCell id="hiWJ6FiAwOVD0Gj_WVD6-203" value="1" style="whiteSpace=wrap;html=1;aspect=fixed;fillColor=none;" vertex="1" parent="hiWJ6FiAwOVD0Gj_WVD6-1">
          <mxGeometry x="1800" y="360" width="40" height="40" as="geometry" />
        </mxCell>
        <mxCell id="hiWJ6FiAwOVD0Gj_WVD6-204" value="1" style="whiteSpace=wrap;html=1;aspect=fixed;fillColor=none;" vertex="1" parent="hiWJ6FiAwOVD0Gj_WVD6-1">
          <mxGeometry x="1760" y="400" width="40" height="40" as="geometry" />
        </mxCell>
        <mxCell id="hiWJ6FiAwOVD0Gj_WVD6-205" value="1" style="whiteSpace=wrap;html=1;aspect=fixed;fillColor=none;" vertex="1" parent="hiWJ6FiAwOVD0Gj_WVD6-1">
          <mxGeometry x="1800" y="400" width="40" height="40" as="geometry" />
        </mxCell>
        <mxCell id="hiWJ6FiAwOVD0Gj_WVD6-206" value="1" style="whiteSpace=wrap;html=1;aspect=fixed;fillColor=#f8cecc;strokeColor=#b85450;" vertex="1" parent="hiWJ6FiAwOVD0Gj_WVD6-1">
          <mxGeometry x="1520" y="280" width="80" height="80" as="geometry" />
        </mxCell>
        <mxCell id="hiWJ6FiAwOVD0Gj_WVD6-207" value="1" style="whiteSpace=wrap;html=1;aspect=fixed;fillColor=#f8cecc;strokeColor=#b85450;" vertex="1" parent="hiWJ6FiAwOVD0Gj_WVD6-1">
          <mxGeometry x="1600" y="280" width="80" height="80" as="geometry" />
        </mxCell>
        <mxCell id="hiWJ6FiAwOVD0Gj_WVD6-208" value="1" style="whiteSpace=wrap;html=1;aspect=fixed;fillColor=#f8cecc;strokeColor=#b85450;" vertex="1" parent="hiWJ6FiAwOVD0Gj_WVD6-1">
          <mxGeometry x="1520" y="360" width="80" height="80" as="geometry" />
        </mxCell>
        <mxCell id="hiWJ6FiAwOVD0Gj_WVD6-209" value="1" style="whiteSpace=wrap;html=1;aspect=fixed;fillColor=#f8cecc;strokeColor=#b85450;" vertex="1" parent="hiWJ6FiAwOVD0Gj_WVD6-1">
          <mxGeometry x="1600" y="360" width="80" height="80" as="geometry" />
        </mxCell>
        <mxCell id="hiWJ6FiAwOVD0Gj_WVD6-210" value="" style="triangle;whiteSpace=wrap;html=1;fillColor=#dae8fc;strokeColor=#6c8ebf;rotation=90;" vertex="1" parent="hiWJ6FiAwOVD0Gj_WVD6-1">
          <mxGeometry x="1860" y="460" width="40" height="50" as="geometry" />
        </mxCell>
        <mxCell id="hiWJ6FiAwOVD0Gj_WVD6-211" value="1" style="whiteSpace=wrap;html=1;aspect=fixed;" vertex="1" parent="hiWJ6FiAwOVD0Gj_WVD6-1">
          <mxGeometry x="1840" y="680" width="40" height="40" as="geometry" />
        </mxCell>
        <mxCell id="hiWJ6FiAwOVD0Gj_WVD6-212" value="1" style="whiteSpace=wrap;html=1;aspect=fixed;" vertex="1" parent="hiWJ6FiAwOVD0Gj_WVD6-1">
          <mxGeometry x="1880" y="680" width="40" height="40" as="geometry" />
        </mxCell>
        <mxCell id="hiWJ6FiAwOVD0Gj_WVD6-213" value="1" style="whiteSpace=wrap;html=1;aspect=fixed;" vertex="1" parent="hiWJ6FiAwOVD0Gj_WVD6-1">
          <mxGeometry x="1840" y="720" width="40" height="40" as="geometry" />
        </mxCell>
        <mxCell id="hiWJ6FiAwOVD0Gj_WVD6-214" value="1" style="whiteSpace=wrap;html=1;aspect=fixed;" vertex="1" parent="hiWJ6FiAwOVD0Gj_WVD6-1">
          <mxGeometry x="1880" y="720" width="40" height="40" as="geometry" />
        </mxCell>
        <mxCell id="hiWJ6FiAwOVD0Gj_WVD6-215" value="" style="group" vertex="1" connectable="0" parent="hiWJ6FiAwOVD0Gj_WVD6-1">
          <mxGeometry x="1230" y="1060" width="80" height="80" as="geometry" />
        </mxCell>
        <mxCell id="hiWJ6FiAwOVD0Gj_WVD6-216" value="0" style="whiteSpace=wrap;html=1;aspect=fixed;" vertex="1" parent="hiWJ6FiAwOVD0Gj_WVD6-215">
          <mxGeometry width="40" height="40" as="geometry" />
        </mxCell>
        <mxCell id="hiWJ6FiAwOVD0Gj_WVD6-217" value="0" style="whiteSpace=wrap;html=1;aspect=fixed;" vertex="1" parent="hiWJ6FiAwOVD0Gj_WVD6-215">
          <mxGeometry x="40" width="40" height="40" as="geometry" />
        </mxCell>
        <mxCell id="hiWJ6FiAwOVD0Gj_WVD6-218" value="0" style="whiteSpace=wrap;html=1;aspect=fixed;" vertex="1" parent="hiWJ6FiAwOVD0Gj_WVD6-215">
          <mxGeometry y="40" width="40" height="40" as="geometry" />
        </mxCell>
        <mxCell id="hiWJ6FiAwOVD0Gj_WVD6-219" value="0" style="whiteSpace=wrap;html=1;aspect=fixed;" vertex="1" parent="hiWJ6FiAwOVD0Gj_WVD6-215">
          <mxGeometry x="40" y="40" width="40" height="40" as="geometry" />
        </mxCell>
        <mxCell id="hiWJ6FiAwOVD0Gj_WVD6-220" value="1" style="whiteSpace=wrap;html=1;aspect=fixed;fillColor=#f8cecc;strokeColor=#b85450;" vertex="1" parent="hiWJ6FiAwOVD0Gj_WVD6-1">
          <mxGeometry x="1680" y="520" width="80" height="80" as="geometry" />
        </mxCell>
        <mxCell id="hiWJ6FiAwOVD0Gj_WVD6-221" value="1" style="whiteSpace=wrap;html=1;aspect=fixed;fillColor=#f8cecc;strokeColor=#b85450;" vertex="1" parent="hiWJ6FiAwOVD0Gj_WVD6-1">
          <mxGeometry x="1760" y="520" width="80" height="80" as="geometry" />
        </mxCell>
        <mxCell id="hiWJ6FiAwOVD0Gj_WVD6-222" value="1" style="whiteSpace=wrap;html=1;aspect=fixed;fillColor=#f8cecc;strokeColor=#b85450;" vertex="1" parent="hiWJ6FiAwOVD0Gj_WVD6-1">
          <mxGeometry x="1840" y="520" width="80" height="80" as="geometry" />
        </mxCell>
        <mxCell id="hiWJ6FiAwOVD0Gj_WVD6-223" value="1" style="whiteSpace=wrap;html=1;aspect=fixed;fillColor=#f8cecc;strokeColor=#b85450;" vertex="1" parent="hiWJ6FiAwOVD0Gj_WVD6-1">
          <mxGeometry x="1920" y="520" width="80" height="80" as="geometry" />
        </mxCell>
        <mxCell id="hiWJ6FiAwOVD0Gj_WVD6-224" value="1" style="whiteSpace=wrap;html=1;aspect=fixed;fillColor=#f8cecc;strokeColor=#b85450;" vertex="1" parent="hiWJ6FiAwOVD0Gj_WVD6-1">
          <mxGeometry x="2000" y="520" width="80" height="80" as="geometry" />
        </mxCell>
        <mxCell id="hiWJ6FiAwOVD0Gj_WVD6-225" value="1" style="whiteSpace=wrap;html=1;aspect=fixed;fillColor=#f8cecc;strokeColor=#b85450;" vertex="1" parent="hiWJ6FiAwOVD0Gj_WVD6-1">
          <mxGeometry x="1680" y="600" width="80" height="80" as="geometry" />
        </mxCell>
        <mxCell id="hiWJ6FiAwOVD0Gj_WVD6-226" value="1" style="whiteSpace=wrap;html=1;aspect=fixed;fillColor=#f8cecc;strokeColor=#b85450;" vertex="1" parent="hiWJ6FiAwOVD0Gj_WVD6-1">
          <mxGeometry x="1760" y="600" width="80" height="80" as="geometry" />
        </mxCell>
        <mxCell id="hiWJ6FiAwOVD0Gj_WVD6-227" value="1" style="whiteSpace=wrap;html=1;aspect=fixed;fillColor=#f8cecc;strokeColor=#b85450;" vertex="1" parent="hiWJ6FiAwOVD0Gj_WVD6-1">
          <mxGeometry x="1680" y="680" width="80" height="80" as="geometry" />
        </mxCell>
        <mxCell id="hiWJ6FiAwOVD0Gj_WVD6-228" value="1" style="whiteSpace=wrap;html=1;aspect=fixed;fillColor=#f8cecc;strokeColor=#b85450;" vertex="1" parent="hiWJ6FiAwOVD0Gj_WVD6-1">
          <mxGeometry x="1760" y="680" width="80" height="80" as="geometry" />
        </mxCell>
        <mxCell id="hiWJ6FiAwOVD0Gj_WVD6-229" value="0" style="whiteSpace=wrap;html=1;aspect=fixed;fillColor=none;" vertex="1" parent="hiWJ6FiAwOVD0Gj_WVD6-1">
          <mxGeometry x="1840" y="680" width="80" height="80" as="geometry" />
        </mxCell>
        <mxCell id="hiWJ6FiAwOVD0Gj_WVD6-230" value="0" style="whiteSpace=wrap;html=1;aspect=fixed;fillColor=none;" vertex="1" parent="hiWJ6FiAwOVD0Gj_WVD6-1">
          <mxGeometry x="1920" y="680" width="80" height="80" as="geometry" />
        </mxCell>
        <mxCell id="hiWJ6FiAwOVD0Gj_WVD6-231" value="0" style="whiteSpace=wrap;html=1;aspect=fixed;" vertex="1" parent="hiWJ6FiAwOVD0Gj_WVD6-1">
          <mxGeometry x="2000" y="680" width="80" height="80" as="geometry" />
        </mxCell>
        <mxCell id="hiWJ6FiAwOVD0Gj_WVD6-232" value="1" style="whiteSpace=wrap;html=1;aspect=fixed;fillColor=#f8cecc;strokeColor=#b85450;" vertex="1" parent="hiWJ6FiAwOVD0Gj_WVD6-1">
          <mxGeometry x="1840" y="600" width="80" height="80" as="geometry" />
        </mxCell>
        <mxCell id="hiWJ6FiAwOVD0Gj_WVD6-233" value="1" style="whiteSpace=wrap;html=1;aspect=fixed;fillColor=#f8cecc;strokeColor=#b85450;" vertex="1" parent="hiWJ6FiAwOVD0Gj_WVD6-1">
          <mxGeometry x="1920" y="600" width="80" height="80" as="geometry" />
        </mxCell>
        <mxCell id="hiWJ6FiAwOVD0Gj_WVD6-234" value="1" style="whiteSpace=wrap;html=1;aspect=fixed;fillColor=#f8cecc;strokeColor=#b85450;" vertex="1" parent="hiWJ6FiAwOVD0Gj_WVD6-1">
          <mxGeometry x="2000" y="600" width="80" height="80" as="geometry" />
        </mxCell>
        <mxCell id="hiWJ6FiAwOVD0Gj_WVD6-235" value="0" style="whiteSpace=wrap;html=1;aspect=fixed;" vertex="1" parent="hiWJ6FiAwOVD0Gj_WVD6-1">
          <mxGeometry x="2000" y="760" width="80" height="80" as="geometry" />
        </mxCell>
        <mxCell id="hiWJ6FiAwOVD0Gj_WVD6-236" value="0" style="whiteSpace=wrap;html=1;aspect=fixed;" vertex="1" parent="hiWJ6FiAwOVD0Gj_WVD6-1">
          <mxGeometry x="2000" y="840" width="80" height="80" as="geometry" />
        </mxCell>
        <mxCell id="hiWJ6FiAwOVD0Gj_WVD6-237" value="0" style="whiteSpace=wrap;html=1;aspect=fixed;" vertex="1" parent="hiWJ6FiAwOVD0Gj_WVD6-1">
          <mxGeometry x="1150" y="1060" width="40" height="40" as="geometry" />
        </mxCell>
        <mxCell id="hiWJ6FiAwOVD0Gj_WVD6-238" value="0" style="whiteSpace=wrap;html=1;aspect=fixed;" vertex="1" parent="hiWJ6FiAwOVD0Gj_WVD6-1">
          <mxGeometry x="1190" y="1060" width="40" height="40" as="geometry" />
        </mxCell>
        <mxCell id="hiWJ6FiAwOVD0Gj_WVD6-239" value="0" style="whiteSpace=wrap;html=1;aspect=fixed;" vertex="1" parent="hiWJ6FiAwOVD0Gj_WVD6-1">
          <mxGeometry x="1150" y="1100" width="40" height="40" as="geometry" />
        </mxCell>
        <mxCell id="hiWJ6FiAwOVD0Gj_WVD6-240" value="0" style="whiteSpace=wrap;html=1;aspect=fixed;" vertex="1" parent="hiWJ6FiAwOVD0Gj_WVD6-1">
          <mxGeometry x="1190" y="1100" width="40" height="40" as="geometry" />
        </mxCell>
        <mxCell id="hiWJ6FiAwOVD0Gj_WVD6-241" value="&lt;font style=&quot;font-size: 25px&quot;&gt;2&lt;/font&gt;" style="whiteSpace=wrap;html=1;aspect=fixed;fillColor=none;" vertex="1" parent="hiWJ6FiAwOVD0Gj_WVD6-1">
          <mxGeometry x="1150" y="1060" width="80" height="80" as="geometry" />
        </mxCell>
        <mxCell id="hiWJ6FiAwOVD0Gj_WVD6-242" value="&lt;font style=&quot;font-size: 25px&quot;&gt;2&lt;/font&gt;" style="whiteSpace=wrap;html=1;aspect=fixed;fillColor=none;" vertex="1" parent="hiWJ6FiAwOVD0Gj_WVD6-1">
          <mxGeometry x="1230" y="1060" width="80" height="80" as="geometry" />
        </mxCell>
        <mxCell id="hiWJ6FiAwOVD0Gj_WVD6-243" value="1" style="whiteSpace=wrap;html=1;aspect=fixed;fillColor=none;" vertex="1" parent="hiWJ6FiAwOVD0Gj_WVD6-1">
          <mxGeometry x="1920" y="680" width="40" height="40" as="geometry" />
        </mxCell>
        <mxCell id="hiWJ6FiAwOVD0Gj_WVD6-244" value="1" style="whiteSpace=wrap;html=1;aspect=fixed;fillColor=none;" vertex="1" parent="hiWJ6FiAwOVD0Gj_WVD6-1">
          <mxGeometry x="1960" y="680" width="40" height="40" as="geometry" />
        </mxCell>
        <mxCell id="hiWJ6FiAwOVD0Gj_WVD6-245" value="1" style="whiteSpace=wrap;html=1;aspect=fixed;fillColor=none;" vertex="1" parent="hiWJ6FiAwOVD0Gj_WVD6-1">
          <mxGeometry x="1920" y="720" width="40" height="40" as="geometry" />
        </mxCell>
        <mxCell id="hiWJ6FiAwOVD0Gj_WVD6-246" value="1" style="whiteSpace=wrap;html=1;aspect=fixed;fillColor=none;" vertex="1" parent="hiWJ6FiAwOVD0Gj_WVD6-1">
          <mxGeometry x="1960" y="720" width="40" height="40" as="geometry" />
        </mxCell>
        <mxCell id="hiWJ6FiAwOVD0Gj_WVD6-247" value="" style="group" vertex="1" connectable="0" parent="hiWJ6FiAwOVD0Gj_WVD6-1">
          <mxGeometry x="1230" y="1140" width="80" height="80" as="geometry" />
        </mxCell>
        <mxCell id="hiWJ6FiAwOVD0Gj_WVD6-248" value="0" style="whiteSpace=wrap;html=1;aspect=fixed;" vertex="1" parent="hiWJ6FiAwOVD0Gj_WVD6-247">
          <mxGeometry width="40" height="40" as="geometry" />
        </mxCell>
        <mxCell id="hiWJ6FiAwOVD0Gj_WVD6-249" value="0" style="whiteSpace=wrap;html=1;aspect=fixed;" vertex="1" parent="hiWJ6FiAwOVD0Gj_WVD6-247">
          <mxGeometry x="40" width="40" height="40" as="geometry" />
        </mxCell>
        <mxCell id="hiWJ6FiAwOVD0Gj_WVD6-250" value="0" style="whiteSpace=wrap;html=1;aspect=fixed;" vertex="1" parent="hiWJ6FiAwOVD0Gj_WVD6-247">
          <mxGeometry y="40" width="40" height="40" as="geometry" />
        </mxCell>
        <mxCell id="hiWJ6FiAwOVD0Gj_WVD6-251" value="0" style="whiteSpace=wrap;html=1;aspect=fixed;" vertex="1" parent="hiWJ6FiAwOVD0Gj_WVD6-247">
          <mxGeometry x="40" y="40" width="40" height="40" as="geometry" />
        </mxCell>
        <mxCell id="hiWJ6FiAwOVD0Gj_WVD6-252" value="0" style="whiteSpace=wrap;html=1;aspect=fixed;" vertex="1" parent="hiWJ6FiAwOVD0Gj_WVD6-1">
          <mxGeometry x="1150" y="1140" width="40" height="40" as="geometry" />
        </mxCell>
        <mxCell id="hiWJ6FiAwOVD0Gj_WVD6-253" value="0" style="whiteSpace=wrap;html=1;aspect=fixed;" vertex="1" parent="hiWJ6FiAwOVD0Gj_WVD6-1">
          <mxGeometry x="1190" y="1140" width="40" height="40" as="geometry" />
        </mxCell>
        <mxCell id="hiWJ6FiAwOVD0Gj_WVD6-254" value="0" style="whiteSpace=wrap;html=1;aspect=fixed;" vertex="1" parent="hiWJ6FiAwOVD0Gj_WVD6-1">
          <mxGeometry x="1150" y="1180" width="40" height="40" as="geometry" />
        </mxCell>
        <mxCell id="hiWJ6FiAwOVD0Gj_WVD6-255" value="0" style="whiteSpace=wrap;html=1;aspect=fixed;" vertex="1" parent="hiWJ6FiAwOVD0Gj_WVD6-1">
          <mxGeometry x="1190" y="1180" width="40" height="40" as="geometry" />
        </mxCell>
        <mxCell id="hiWJ6FiAwOVD0Gj_WVD6-256" value="&lt;font style=&quot;font-size: 25px&quot;&gt;2&lt;/font&gt;" style="whiteSpace=wrap;html=1;aspect=fixed;fillColor=none;" vertex="1" parent="hiWJ6FiAwOVD0Gj_WVD6-1">
          <mxGeometry x="1150" y="1140" width="80" height="80" as="geometry" />
        </mxCell>
        <mxCell id="hiWJ6FiAwOVD0Gj_WVD6-257" value="&lt;font style=&quot;font-size: 25px&quot;&gt;2&lt;/font&gt;" style="whiteSpace=wrap;html=1;aspect=fixed;fillColor=none;" vertex="1" parent="hiWJ6FiAwOVD0Gj_WVD6-1">
          <mxGeometry x="1230" y="1140" width="80" height="80" as="geometry" />
        </mxCell>
        <mxCell id="hiWJ6FiAwOVD0Gj_WVD6-258" value="0" style="whiteSpace=wrap;html=1;aspect=fixed;fillColor=none;" vertex="1" parent="hiWJ6FiAwOVD0Gj_WVD6-1">
          <mxGeometry x="1760" y="760" width="80" height="80" as="geometry" />
        </mxCell>
        <mxCell id="hiWJ6FiAwOVD0Gj_WVD6-259" value="0" style="whiteSpace=wrap;html=1;aspect=fixed;fillColor=none;" vertex="1" parent="hiWJ6FiAwOVD0Gj_WVD6-1">
          <mxGeometry x="1760" y="840" width="80" height="80" as="geometry" />
        </mxCell>
        <mxCell id="hiWJ6FiAwOVD0Gj_WVD6-260" value="0" style="whiteSpace=wrap;html=1;aspect=fixed;" vertex="1" parent="hiWJ6FiAwOVD0Gj_WVD6-1">
          <mxGeometry x="1680" y="760" width="80" height="80" as="geometry" />
        </mxCell>
        <mxCell id="hiWJ6FiAwOVD0Gj_WVD6-261" value="0" style="whiteSpace=wrap;html=1;aspect=fixed;" vertex="1" parent="hiWJ6FiAwOVD0Gj_WVD6-1">
          <mxGeometry x="1680" y="840" width="80" height="80" as="geometry" />
        </mxCell>
        <mxCell id="hiWJ6FiAwOVD0Gj_WVD6-262" value="1" style="whiteSpace=wrap;html=1;aspect=fixed;fillColor=none;" vertex="1" parent="hiWJ6FiAwOVD0Gj_WVD6-1">
          <mxGeometry x="1760" y="760" width="40" height="40" as="geometry" />
        </mxCell>
        <mxCell id="hiWJ6FiAwOVD0Gj_WVD6-263" value="1" style="whiteSpace=wrap;html=1;aspect=fixed;fillColor=none;" vertex="1" parent="hiWJ6FiAwOVD0Gj_WVD6-1">
          <mxGeometry x="1800" y="760" width="40" height="40" as="geometry" />
        </mxCell>
        <mxCell id="hiWJ6FiAwOVD0Gj_WVD6-264" value="1" style="whiteSpace=wrap;html=1;aspect=fixed;fillColor=none;" vertex="1" parent="hiWJ6FiAwOVD0Gj_WVD6-1">
          <mxGeometry x="1760" y="800" width="40" height="40" as="geometry" />
        </mxCell>
        <mxCell id="hiWJ6FiAwOVD0Gj_WVD6-265" value="1" style="whiteSpace=wrap;html=1;aspect=fixed;fillColor=none;" vertex="1" parent="hiWJ6FiAwOVD0Gj_WVD6-1">
          <mxGeometry x="1800" y="800" width="40" height="40" as="geometry" />
        </mxCell>
        <mxCell id="hiWJ6FiAwOVD0Gj_WVD6-266" value="1" style="whiteSpace=wrap;html=1;aspect=fixed;fillColor=none;" vertex="1" parent="hiWJ6FiAwOVD0Gj_WVD6-1">
          <mxGeometry x="1760" y="840" width="40" height="40" as="geometry" />
        </mxCell>
        <mxCell id="hiWJ6FiAwOVD0Gj_WVD6-267" value="1" style="whiteSpace=wrap;html=1;aspect=fixed;fillColor=none;" vertex="1" parent="hiWJ6FiAwOVD0Gj_WVD6-1">
          <mxGeometry x="1800" y="840" width="40" height="40" as="geometry" />
        </mxCell>
        <mxCell id="hiWJ6FiAwOVD0Gj_WVD6-268" value="1" style="whiteSpace=wrap;html=1;aspect=fixed;fillColor=none;" vertex="1" parent="hiWJ6FiAwOVD0Gj_WVD6-1">
          <mxGeometry x="1760" y="880" width="40" height="40" as="geometry" />
        </mxCell>
        <mxCell id="hiWJ6FiAwOVD0Gj_WVD6-269" value="1" style="whiteSpace=wrap;html=1;aspect=fixed;fillColor=none;" vertex="1" parent="hiWJ6FiAwOVD0Gj_WVD6-1">
          <mxGeometry x="1800" y="880" width="40" height="40" as="geometry" />
        </mxCell>
        <mxCell id="hiWJ6FiAwOVD0Gj_WVD6-270" value="1" style="whiteSpace=wrap;html=1;aspect=fixed;fillColor=#f8cecc;strokeColor=#b85450;" vertex="1" parent="hiWJ6FiAwOVD0Gj_WVD6-1">
          <mxGeometry x="1520" y="760" width="80" height="80" as="geometry" />
        </mxCell>
        <mxCell id="hiWJ6FiAwOVD0Gj_WVD6-271" value="1" style="whiteSpace=wrap;html=1;aspect=fixed;fillColor=#f8cecc;strokeColor=#b85450;" vertex="1" parent="hiWJ6FiAwOVD0Gj_WVD6-1">
          <mxGeometry x="1600" y="760" width="80" height="80" as="geometry" />
        </mxCell>
        <mxCell id="hiWJ6FiAwOVD0Gj_WVD6-272" value="1" style="whiteSpace=wrap;html=1;aspect=fixed;fillColor=#f8cecc;strokeColor=#b85450;" vertex="1" parent="hiWJ6FiAwOVD0Gj_WVD6-1">
          <mxGeometry x="1520" y="840" width="80" height="80" as="geometry" />
        </mxCell>
        <mxCell id="hiWJ6FiAwOVD0Gj_WVD6-273" value="1" style="whiteSpace=wrap;html=1;aspect=fixed;fillColor=#f8cecc;strokeColor=#b85450;" vertex="1" parent="hiWJ6FiAwOVD0Gj_WVD6-1">
          <mxGeometry x="1600" y="840" width="80" height="80" as="geometry" />
        </mxCell>
        <mxCell id="hiWJ6FiAwOVD0Gj_WVD6-274" value="" style="group;fillColor=none;" vertex="1" connectable="0" parent="hiWJ6FiAwOVD0Gj_WVD6-1">
          <mxGeometry x="1560" y="1040" width="80" height="80" as="geometry" />
        </mxCell>
        <mxCell id="hiWJ6FiAwOVD0Gj_WVD6-275" value="2" style="whiteSpace=wrap;html=1;aspect=fixed;fillColor=none;" vertex="1" parent="hiWJ6FiAwOVD0Gj_WVD6-274">
          <mxGeometry width="40" height="40" as="geometry" />
        </mxCell>
        <mxCell id="hiWJ6FiAwOVD0Gj_WVD6-276" value="2" style="whiteSpace=wrap;html=1;aspect=fixed;fillColor=none;" vertex="1" parent="hiWJ6FiAwOVD0Gj_WVD6-274">
          <mxGeometry x="40" width="40" height="40" as="geometry" />
        </mxCell>
        <mxCell id="hiWJ6FiAwOVD0Gj_WVD6-277" value="2" style="whiteSpace=wrap;html=1;aspect=fixed;fillColor=none;" vertex="1" parent="hiWJ6FiAwOVD0Gj_WVD6-274">
          <mxGeometry y="40" width="40" height="40" as="geometry" />
        </mxCell>
        <mxCell id="hiWJ6FiAwOVD0Gj_WVD6-278" value="2" style="whiteSpace=wrap;html=1;aspect=fixed;fillColor=none;" vertex="1" parent="hiWJ6FiAwOVD0Gj_WVD6-274">
          <mxGeometry x="40" y="40" width="40" height="40" as="geometry" />
        </mxCell>
        <mxCell id="hiWJ6FiAwOVD0Gj_WVD6-279" value="2" style="whiteSpace=wrap;html=1;aspect=fixed;fillColor=none;" vertex="1" parent="hiWJ6FiAwOVD0Gj_WVD6-1">
          <mxGeometry x="1480" y="1040" width="40" height="40" as="geometry" />
        </mxCell>
        <mxCell id="hiWJ6FiAwOVD0Gj_WVD6-280" value="2" style="whiteSpace=wrap;html=1;aspect=fixed;fillColor=none;" vertex="1" parent="hiWJ6FiAwOVD0Gj_WVD6-1">
          <mxGeometry x="1520" y="1040" width="40" height="40" as="geometry" />
        </mxCell>
        <mxCell id="hiWJ6FiAwOVD0Gj_WVD6-281" value="2" style="whiteSpace=wrap;html=1;aspect=fixed;fillColor=none;" vertex="1" parent="hiWJ6FiAwOVD0Gj_WVD6-1">
          <mxGeometry x="1480" y="1080" width="40" height="40" as="geometry" />
        </mxCell>
        <mxCell id="hiWJ6FiAwOVD0Gj_WVD6-282" value="2" style="whiteSpace=wrap;html=1;aspect=fixed;fillColor=none;" vertex="1" parent="hiWJ6FiAwOVD0Gj_WVD6-1">
          <mxGeometry x="1520" y="1080" width="40" height="40" as="geometry" />
        </mxCell>
        <mxCell id="hiWJ6FiAwOVD0Gj_WVD6-283" value="&lt;font style=&quot;font-size: 25px&quot;&gt;2&lt;/font&gt;" style="whiteSpace=wrap;html=1;aspect=fixed;fillColor=none;" vertex="1" parent="hiWJ6FiAwOVD0Gj_WVD6-1">
          <mxGeometry x="1920" y="760" width="80" height="80" as="geometry" />
        </mxCell>
        <mxCell id="hiWJ6FiAwOVD0Gj_WVD6-284" value="&lt;font style=&quot;font-size: 25px&quot;&gt;2&lt;/font&gt;" style="whiteSpace=wrap;html=1;aspect=fixed;fillColor=none;" vertex="1" parent="hiWJ6FiAwOVD0Gj_WVD6-1">
          <mxGeometry x="1840" y="760" width="80" height="80" as="geometry" />
        </mxCell>
        <mxCell id="hiWJ6FiAwOVD0Gj_WVD6-285" value="" style="group;fillColor=none;" vertex="1" connectable="0" parent="hiWJ6FiAwOVD0Gj_WVD6-1">
          <mxGeometry x="1560" y="1120" width="80" height="80" as="geometry" />
        </mxCell>
        <mxCell id="hiWJ6FiAwOVD0Gj_WVD6-286" value="2" style="whiteSpace=wrap;html=1;aspect=fixed;fillColor=none;" vertex="1" parent="hiWJ6FiAwOVD0Gj_WVD6-285">
          <mxGeometry width="40" height="40" as="geometry" />
        </mxCell>
        <mxCell id="hiWJ6FiAwOVD0Gj_WVD6-287" value="2" style="whiteSpace=wrap;html=1;aspect=fixed;fillColor=none;" vertex="1" parent="hiWJ6FiAwOVD0Gj_WVD6-285">
          <mxGeometry x="40" width="40" height="40" as="geometry" />
        </mxCell>
        <mxCell id="hiWJ6FiAwOVD0Gj_WVD6-288" value="2" style="whiteSpace=wrap;html=1;aspect=fixed;fillColor=none;" vertex="1" parent="hiWJ6FiAwOVD0Gj_WVD6-285">
          <mxGeometry y="40" width="40" height="40" as="geometry" />
        </mxCell>
        <mxCell id="hiWJ6FiAwOVD0Gj_WVD6-289" value="2" style="whiteSpace=wrap;html=1;aspect=fixed;fillColor=none;" vertex="1" parent="hiWJ6FiAwOVD0Gj_WVD6-285">
          <mxGeometry x="40" y="40" width="40" height="40" as="geometry" />
        </mxCell>
        <mxCell id="hiWJ6FiAwOVD0Gj_WVD6-290" value="2" style="whiteSpace=wrap;html=1;aspect=fixed;fillColor=none;" vertex="1" parent="hiWJ6FiAwOVD0Gj_WVD6-1">
          <mxGeometry x="1480" y="1120" width="40" height="40" as="geometry" />
        </mxCell>
        <mxCell id="hiWJ6FiAwOVD0Gj_WVD6-291" value="2" style="whiteSpace=wrap;html=1;aspect=fixed;fillColor=none;" vertex="1" parent="hiWJ6FiAwOVD0Gj_WVD6-1">
          <mxGeometry x="1520" y="1120" width="40" height="40" as="geometry" />
        </mxCell>
        <mxCell id="hiWJ6FiAwOVD0Gj_WVD6-292" value="2" style="whiteSpace=wrap;html=1;aspect=fixed;fillColor=none;" vertex="1" parent="hiWJ6FiAwOVD0Gj_WVD6-1">
          <mxGeometry x="1480" y="1160" width="40" height="40" as="geometry" />
        </mxCell>
        <mxCell id="hiWJ6FiAwOVD0Gj_WVD6-293" value="2" style="whiteSpace=wrap;html=1;aspect=fixed;fillColor=none;" vertex="1" parent="hiWJ6FiAwOVD0Gj_WVD6-1">
          <mxGeometry x="1520" y="1160" width="40" height="40" as="geometry" />
        </mxCell>
        <mxCell id="hiWJ6FiAwOVD0Gj_WVD6-294" value="&lt;font style=&quot;font-size: 25px&quot;&gt;2&lt;/font&gt;" style="whiteSpace=wrap;html=1;aspect=fixed;fillColor=none;" vertex="1" parent="hiWJ6FiAwOVD0Gj_WVD6-1">
          <mxGeometry x="1920" y="840" width="80" height="80" as="geometry" />
        </mxCell>
        <mxCell id="hiWJ6FiAwOVD0Gj_WVD6-295" value="&lt;font style=&quot;font-size: 25px&quot;&gt;2&lt;/font&gt;" style="whiteSpace=wrap;html=1;aspect=fixed;fillColor=none;" vertex="1" parent="hiWJ6FiAwOVD0Gj_WVD6-1">
          <mxGeometry x="1840" y="840" width="80" height="80" as="geometry" />
        </mxCell>
        <mxCell id="hiWJ6FiAwOVD0Gj_WVD6-301" value="" style="group" vertex="1" connectable="0" parent="hiWJ6FiAwOVD0Gj_WVD6-1">
          <mxGeometry x="1520" y="1160" width="40" height="40" as="geometry" />
        </mxCell>
        <mxCell id="hiWJ6FiAwOVD0Gj_WVD6-296" value="&lt;font style=&quot;font-size: 11px&quot;&gt;0&lt;/font&gt;" style="whiteSpace=wrap;html=1;aspect=fixed;fillColor=none;" vertex="1" parent="hiWJ6FiAwOVD0Gj_WVD6-301">
          <mxGeometry width="20" height="20" as="geometry" />
        </mxCell>
        <mxCell id="hiWJ6FiAwOVD0Gj_WVD6-298" value="&lt;font style=&quot;font-size: 11px&quot;&gt;0&lt;/font&gt;" style="whiteSpace=wrap;html=1;aspect=fixed;fillColor=none;" vertex="1" parent="hiWJ6FiAwOVD0Gj_WVD6-301">
          <mxGeometry x="20" width="20" height="20" as="geometry" />
        </mxCell>
        <mxCell id="hiWJ6FiAwOVD0Gj_WVD6-299" value="&lt;font style=&quot;font-size: 11px&quot;&gt;0&lt;/font&gt;" style="whiteSpace=wrap;html=1;aspect=fixed;fillColor=none;" vertex="1" parent="hiWJ6FiAwOVD0Gj_WVD6-301">
          <mxGeometry y="20" width="20" height="20" as="geometry" />
        </mxCell>
        <mxCell id="hiWJ6FiAwOVD0Gj_WVD6-300" value="&lt;font style=&quot;font-size: 11px&quot;&gt;0&lt;/font&gt;" style="whiteSpace=wrap;html=1;aspect=fixed;fillColor=none;" vertex="1" parent="hiWJ6FiAwOVD0Gj_WVD6-301">
          <mxGeometry x="20" y="20" width="20" height="20" as="geometry" />
        </mxCell>
        <mxCell id="hiWJ6FiAwOVD0Gj_WVD6-303" value="" style="group" vertex="1" connectable="0" parent="hiWJ6FiAwOVD0Gj_WVD6-1">
          <mxGeometry x="1520" y="1120" width="40" height="40" as="geometry" />
        </mxCell>
        <mxCell id="hiWJ6FiAwOVD0Gj_WVD6-304" value="&lt;font style=&quot;font-size: 11px&quot;&gt;0&lt;/font&gt;" style="whiteSpace=wrap;html=1;aspect=fixed;fillColor=none;" vertex="1" parent="hiWJ6FiAwOVD0Gj_WVD6-303">
          <mxGeometry width="20" height="20" as="geometry" />
        </mxCell>
        <mxCell id="hiWJ6FiAwOVD0Gj_WVD6-305" value="&lt;font style=&quot;font-size: 11px&quot;&gt;0&lt;/font&gt;" style="whiteSpace=wrap;html=1;aspect=fixed;fillColor=none;" vertex="1" parent="hiWJ6FiAwOVD0Gj_WVD6-303">
          <mxGeometry x="20" width="20" height="20" as="geometry" />
        </mxCell>
        <mxCell id="hiWJ6FiAwOVD0Gj_WVD6-306" value="&lt;font style=&quot;font-size: 11px&quot;&gt;0&lt;/font&gt;" style="whiteSpace=wrap;html=1;aspect=fixed;fillColor=none;" vertex="1" parent="hiWJ6FiAwOVD0Gj_WVD6-303">
          <mxGeometry y="20" width="20" height="20" as="geometry" />
        </mxCell>
        <mxCell id="hiWJ6FiAwOVD0Gj_WVD6-307" value="&lt;font style=&quot;font-size: 11px&quot;&gt;0&lt;/font&gt;" style="whiteSpace=wrap;html=1;aspect=fixed;fillColor=none;" vertex="1" parent="hiWJ6FiAwOVD0Gj_WVD6-303">
          <mxGeometry x="20" y="20" width="20" height="20" as="geometry" />
        </mxCell>
        <mxCell id="hiWJ6FiAwOVD0Gj_WVD6-308" value="" style="group" vertex="1" connectable="0" parent="hiWJ6FiAwOVD0Gj_WVD6-1">
          <mxGeometry x="1520" y="1080" width="40" height="40" as="geometry" />
        </mxCell>
        <mxCell id="hiWJ6FiAwOVD0Gj_WVD6-309" value="&lt;font style=&quot;font-size: 11px&quot;&gt;0&lt;/font&gt;" style="whiteSpace=wrap;html=1;aspect=fixed;fillColor=none;" vertex="1" parent="hiWJ6FiAwOVD0Gj_WVD6-308">
          <mxGeometry width="20" height="20" as="geometry" />
        </mxCell>
        <mxCell id="hiWJ6FiAwOVD0Gj_WVD6-310" value="&lt;font style=&quot;font-size: 11px&quot;&gt;0&lt;/font&gt;" style="whiteSpace=wrap;html=1;aspect=fixed;fillColor=none;" vertex="1" parent="hiWJ6FiAwOVD0Gj_WVD6-308">
          <mxGeometry x="20" width="20" height="20" as="geometry" />
        </mxCell>
        <mxCell id="hiWJ6FiAwOVD0Gj_WVD6-311" value="&lt;font style=&quot;font-size: 11px&quot;&gt;0&lt;/font&gt;" style="whiteSpace=wrap;html=1;aspect=fixed;fillColor=none;" vertex="1" parent="hiWJ6FiAwOVD0Gj_WVD6-308">
          <mxGeometry y="20" width="20" height="20" as="geometry" />
        </mxCell>
        <mxCell id="hiWJ6FiAwOVD0Gj_WVD6-312" value="&lt;font style=&quot;font-size: 11px&quot;&gt;0&lt;/font&gt;" style="whiteSpace=wrap;html=1;aspect=fixed;fillColor=none;" vertex="1" parent="hiWJ6FiAwOVD0Gj_WVD6-308">
          <mxGeometry x="20" y="20" width="20" height="20" as="geometry" />
        </mxCell>
        <mxCell id="hiWJ6FiAwOVD0Gj_WVD6-313" value="" style="group" vertex="1" connectable="0" parent="hiWJ6FiAwOVD0Gj_WVD6-1">
          <mxGeometry x="1480" y="1160" width="40" height="40" as="geometry" />
        </mxCell>
        <mxCell id="hiWJ6FiAwOVD0Gj_WVD6-314" value="&lt;font style=&quot;font-size: 11px&quot;&gt;0&lt;/font&gt;" style="whiteSpace=wrap;html=1;aspect=fixed;fillColor=none;" vertex="1" parent="hiWJ6FiAwOVD0Gj_WVD6-313">
          <mxGeometry width="20" height="20" as="geometry" />
        </mxCell>
        <mxCell id="hiWJ6FiAwOVD0Gj_WVD6-315" value="&lt;font style=&quot;font-size: 11px&quot;&gt;0&lt;/font&gt;" style="whiteSpace=wrap;html=1;aspect=fixed;fillColor=none;" vertex="1" parent="hiWJ6FiAwOVD0Gj_WVD6-313">
          <mxGeometry x="20" width="20" height="20" as="geometry" />
        </mxCell>
        <mxCell id="hiWJ6FiAwOVD0Gj_WVD6-316" value="&lt;font style=&quot;font-size: 11px&quot;&gt;0&lt;/font&gt;" style="whiteSpace=wrap;html=1;aspect=fixed;fillColor=none;" vertex="1" parent="hiWJ6FiAwOVD0Gj_WVD6-313">
          <mxGeometry y="20" width="20" height="20" as="geometry" />
        </mxCell>
        <mxCell id="hiWJ6FiAwOVD0Gj_WVD6-317" value="&lt;font style=&quot;font-size: 11px&quot;&gt;0&lt;/font&gt;" style="whiteSpace=wrap;html=1;aspect=fixed;fillColor=none;" vertex="1" parent="hiWJ6FiAwOVD0Gj_WVD6-313">
          <mxGeometry x="20" y="20" width="20" height="20" as="geometry" />
        </mxCell>
        <mxCell id="hiWJ6FiAwOVD0Gj_WVD6-318" value="" style="group" vertex="1" connectable="0" parent="hiWJ6FiAwOVD0Gj_WVD6-1">
          <mxGeometry x="1480" y="1120" width="40" height="40" as="geometry" />
        </mxCell>
        <mxCell id="hiWJ6FiAwOVD0Gj_WVD6-319" value="&lt;font style=&quot;font-size: 11px&quot;&gt;0&lt;/font&gt;" style="whiteSpace=wrap;html=1;aspect=fixed;fillColor=none;" vertex="1" parent="hiWJ6FiAwOVD0Gj_WVD6-318">
          <mxGeometry width="20" height="20" as="geometry" />
        </mxCell>
        <mxCell id="hiWJ6FiAwOVD0Gj_WVD6-320" value="&lt;font style=&quot;font-size: 11px&quot;&gt;0&lt;/font&gt;" style="whiteSpace=wrap;html=1;aspect=fixed;fillColor=none;" vertex="1" parent="hiWJ6FiAwOVD0Gj_WVD6-318">
          <mxGeometry x="20" width="20" height="20" as="geometry" />
        </mxCell>
        <mxCell id="hiWJ6FiAwOVD0Gj_WVD6-321" value="&lt;font style=&quot;font-size: 11px&quot;&gt;0&lt;/font&gt;" style="whiteSpace=wrap;html=1;aspect=fixed;fillColor=none;" vertex="1" parent="hiWJ6FiAwOVD0Gj_WVD6-318">
          <mxGeometry y="20" width="20" height="20" as="geometry" />
        </mxCell>
        <mxCell id="hiWJ6FiAwOVD0Gj_WVD6-322" value="&lt;font style=&quot;font-size: 11px&quot;&gt;0&lt;/font&gt;" style="whiteSpace=wrap;html=1;aspect=fixed;fillColor=none;" vertex="1" parent="hiWJ6FiAwOVD0Gj_WVD6-318">
          <mxGeometry x="20" y="20" width="20" height="20" as="geometry" />
        </mxCell>
        <mxCell id="hiWJ6FiAwOVD0Gj_WVD6-323" value="" style="group" vertex="1" connectable="0" parent="hiWJ6FiAwOVD0Gj_WVD6-1">
          <mxGeometry x="1480" y="1080" width="40" height="40" as="geometry" />
        </mxCell>
        <mxCell id="hiWJ6FiAwOVD0Gj_WVD6-324" value="&lt;font style=&quot;font-size: 11px&quot;&gt;0&lt;/font&gt;" style="whiteSpace=wrap;html=1;aspect=fixed;fillColor=none;" vertex="1" parent="hiWJ6FiAwOVD0Gj_WVD6-323">
          <mxGeometry width="20" height="20" as="geometry" />
        </mxCell>
        <mxCell id="hiWJ6FiAwOVD0Gj_WVD6-325" value="&lt;font style=&quot;font-size: 11px&quot;&gt;0&lt;/font&gt;" style="whiteSpace=wrap;html=1;aspect=fixed;fillColor=none;" vertex="1" parent="hiWJ6FiAwOVD0Gj_WVD6-323">
          <mxGeometry x="20" width="20" height="20" as="geometry" />
        </mxCell>
        <mxCell id="hiWJ6FiAwOVD0Gj_WVD6-326" value="&lt;font style=&quot;font-size: 11px&quot;&gt;0&lt;/font&gt;" style="whiteSpace=wrap;html=1;aspect=fixed;fillColor=none;" vertex="1" parent="hiWJ6FiAwOVD0Gj_WVD6-323">
          <mxGeometry y="20" width="20" height="20" as="geometry" />
        </mxCell>
        <mxCell id="hiWJ6FiAwOVD0Gj_WVD6-327" value="&lt;font style=&quot;font-size: 11px&quot;&gt;0&lt;/font&gt;" style="whiteSpace=wrap;html=1;aspect=fixed;fillColor=none;" vertex="1" parent="hiWJ6FiAwOVD0Gj_WVD6-323">
          <mxGeometry x="20" y="20" width="20" height="20" as="geometry" />
        </mxCell>
        <mxCell id="hiWJ6FiAwOVD0Gj_WVD6-328" value="" style="group" vertex="1" connectable="0" parent="hiWJ6FiAwOVD0Gj_WVD6-1">
          <mxGeometry x="1520" y="1040" width="40" height="40" as="geometry" />
        </mxCell>
        <mxCell id="hiWJ6FiAwOVD0Gj_WVD6-329" value="&lt;font style=&quot;font-size: 11px&quot;&gt;0&lt;/font&gt;" style="whiteSpace=wrap;html=1;aspect=fixed;fillColor=none;" vertex="1" parent="hiWJ6FiAwOVD0Gj_WVD6-328">
          <mxGeometry width="20" height="20" as="geometry" />
        </mxCell>
        <mxCell id="hiWJ6FiAwOVD0Gj_WVD6-330" value="&lt;font style=&quot;font-size: 11px&quot;&gt;0&lt;/font&gt;" style="whiteSpace=wrap;html=1;aspect=fixed;fillColor=none;" vertex="1" parent="hiWJ6FiAwOVD0Gj_WVD6-328">
          <mxGeometry x="20" width="20" height="20" as="geometry" />
        </mxCell>
        <mxCell id="hiWJ6FiAwOVD0Gj_WVD6-331" value="&lt;font style=&quot;font-size: 11px&quot;&gt;0&lt;/font&gt;" style="whiteSpace=wrap;html=1;aspect=fixed;fillColor=none;" vertex="1" parent="hiWJ6FiAwOVD0Gj_WVD6-328">
          <mxGeometry y="20" width="20" height="20" as="geometry" />
        </mxCell>
        <mxCell id="hiWJ6FiAwOVD0Gj_WVD6-332" value="&lt;font style=&quot;font-size: 11px&quot;&gt;0&lt;/font&gt;" style="whiteSpace=wrap;html=1;aspect=fixed;fillColor=none;" vertex="1" parent="hiWJ6FiAwOVD0Gj_WVD6-328">
          <mxGeometry x="20" y="20" width="20" height="20" as="geometry" />
        </mxCell>
        <mxCell id="hiWJ6FiAwOVD0Gj_WVD6-333" value="" style="group" vertex="1" connectable="0" parent="hiWJ6FiAwOVD0Gj_WVD6-1">
          <mxGeometry x="1480" y="1040" width="40" height="40" as="geometry" />
        </mxCell>
        <mxCell id="hiWJ6FiAwOVD0Gj_WVD6-334" value="&lt;font style=&quot;font-size: 11px&quot;&gt;0&lt;/font&gt;" style="whiteSpace=wrap;html=1;aspect=fixed;fillColor=none;" vertex="1" parent="hiWJ6FiAwOVD0Gj_WVD6-333">
          <mxGeometry width="20" height="20" as="geometry" />
        </mxCell>
        <mxCell id="hiWJ6FiAwOVD0Gj_WVD6-335" value="&lt;font style=&quot;font-size: 11px&quot;&gt;0&lt;/font&gt;" style="whiteSpace=wrap;html=1;aspect=fixed;fillColor=none;" vertex="1" parent="hiWJ6FiAwOVD0Gj_WVD6-333">
          <mxGeometry x="20" width="20" height="20" as="geometry" />
        </mxCell>
        <mxCell id="hiWJ6FiAwOVD0Gj_WVD6-336" value="&lt;font style=&quot;font-size: 11px&quot;&gt;0&lt;/font&gt;" style="whiteSpace=wrap;html=1;aspect=fixed;fillColor=none;" vertex="1" parent="hiWJ6FiAwOVD0Gj_WVD6-333">
          <mxGeometry y="20" width="20" height="20" as="geometry" />
        </mxCell>
        <mxCell id="hiWJ6FiAwOVD0Gj_WVD6-337" value="&lt;font style=&quot;font-size: 11px&quot;&gt;0&lt;/font&gt;" style="whiteSpace=wrap;html=1;aspect=fixed;fillColor=none;" vertex="1" parent="hiWJ6FiAwOVD0Gj_WVD6-333">
          <mxGeometry x="20" y="20" width="20" height="20" as="geometry" />
        </mxCell>
        <mxCell id="hiWJ6FiAwOVD0Gj_WVD6-344" value="" style="group;fillColor=none;" vertex="1" connectable="0" parent="hiWJ6FiAwOVD0Gj_WVD6-1">
          <mxGeometry x="1920" y="760" width="80" height="80" as="geometry" />
        </mxCell>
        <mxCell id="hiWJ6FiAwOVD0Gj_WVD6-345" value="2" style="whiteSpace=wrap;html=1;aspect=fixed;fillColor=none;" vertex="1" parent="hiWJ6FiAwOVD0Gj_WVD6-344">
          <mxGeometry width="40" height="40" as="geometry" />
        </mxCell>
        <mxCell id="hiWJ6FiAwOVD0Gj_WVD6-346" value="2" style="whiteSpace=wrap;html=1;aspect=fixed;fillColor=none;" vertex="1" parent="hiWJ6FiAwOVD0Gj_WVD6-344">
          <mxGeometry x="40" width="40" height="40" as="geometry" />
        </mxCell>
        <mxCell id="hiWJ6FiAwOVD0Gj_WVD6-347" value="2" style="whiteSpace=wrap;html=1;aspect=fixed;fillColor=none;" vertex="1" parent="hiWJ6FiAwOVD0Gj_WVD6-344">
          <mxGeometry y="40" width="40" height="40" as="geometry" />
        </mxCell>
        <mxCell id="hiWJ6FiAwOVD0Gj_WVD6-348" value="2" style="whiteSpace=wrap;html=1;aspect=fixed;fillColor=none;" vertex="1" parent="hiWJ6FiAwOVD0Gj_WVD6-344">
          <mxGeometry x="40" y="40" width="40" height="40" as="geometry" />
        </mxCell>
        <mxCell id="hiWJ6FiAwOVD0Gj_WVD6-349" value="2" style="whiteSpace=wrap;html=1;aspect=fixed;fillColor=none;" vertex="1" parent="hiWJ6FiAwOVD0Gj_WVD6-1">
          <mxGeometry x="1840" y="760" width="40" height="40" as="geometry" />
        </mxCell>
        <mxCell id="hiWJ6FiAwOVD0Gj_WVD6-350" value="2" style="whiteSpace=wrap;html=1;aspect=fixed;fillColor=none;" vertex="1" parent="hiWJ6FiAwOVD0Gj_WVD6-1">
          <mxGeometry x="1880" y="760" width="40" height="40" as="geometry" />
        </mxCell>
        <mxCell id="hiWJ6FiAwOVD0Gj_WVD6-351" value="2" style="whiteSpace=wrap;html=1;aspect=fixed;fillColor=none;" vertex="1" parent="hiWJ6FiAwOVD0Gj_WVD6-1">
          <mxGeometry x="1840" y="800" width="40" height="40" as="geometry" />
        </mxCell>
        <mxCell id="hiWJ6FiAwOVD0Gj_WVD6-352" value="2" style="whiteSpace=wrap;html=1;aspect=fixed;fillColor=none;" vertex="1" parent="hiWJ6FiAwOVD0Gj_WVD6-1">
          <mxGeometry x="1880" y="800" width="40" height="40" as="geometry" />
        </mxCell>
        <mxCell id="hiWJ6FiAwOVD0Gj_WVD6-353" value="" style="group;fillColor=none;" vertex="1" connectable="0" parent="hiWJ6FiAwOVD0Gj_WVD6-1">
          <mxGeometry x="1920" y="840" width="80" height="80" as="geometry" />
        </mxCell>
        <mxCell id="hiWJ6FiAwOVD0Gj_WVD6-354" value="2" style="whiteSpace=wrap;html=1;aspect=fixed;fillColor=none;" vertex="1" parent="hiWJ6FiAwOVD0Gj_WVD6-353">
          <mxGeometry width="40" height="40" as="geometry" />
        </mxCell>
        <mxCell id="hiWJ6FiAwOVD0Gj_WVD6-355" value="2" style="whiteSpace=wrap;html=1;aspect=fixed;fillColor=none;" vertex="1" parent="hiWJ6FiAwOVD0Gj_WVD6-353">
          <mxGeometry x="40" width="40" height="40" as="geometry" />
        </mxCell>
        <mxCell id="hiWJ6FiAwOVD0Gj_WVD6-356" value="2" style="whiteSpace=wrap;html=1;aspect=fixed;fillColor=none;" vertex="1" parent="hiWJ6FiAwOVD0Gj_WVD6-353">
          <mxGeometry y="40" width="40" height="40" as="geometry" />
        </mxCell>
        <mxCell id="hiWJ6FiAwOVD0Gj_WVD6-357" value="2" style="whiteSpace=wrap;html=1;aspect=fixed;fillColor=none;" vertex="1" parent="hiWJ6FiAwOVD0Gj_WVD6-353">
          <mxGeometry x="40" y="40" width="40" height="40" as="geometry" />
        </mxCell>
        <mxCell id="hiWJ6FiAwOVD0Gj_WVD6-358" value="2" style="whiteSpace=wrap;html=1;aspect=fixed;fillColor=none;" vertex="1" parent="hiWJ6FiAwOVD0Gj_WVD6-1">
          <mxGeometry x="1840" y="840" width="40" height="40" as="geometry" />
        </mxCell>
        <mxCell id="hiWJ6FiAwOVD0Gj_WVD6-359" value="2" style="whiteSpace=wrap;html=1;aspect=fixed;fillColor=none;" vertex="1" parent="hiWJ6FiAwOVD0Gj_WVD6-1">
          <mxGeometry x="1880" y="840" width="40" height="40" as="geometry" />
        </mxCell>
        <mxCell id="hiWJ6FiAwOVD0Gj_WVD6-360" value="2" style="whiteSpace=wrap;html=1;aspect=fixed;fillColor=none;" vertex="1" parent="hiWJ6FiAwOVD0Gj_WVD6-1">
          <mxGeometry x="1840" y="880" width="40" height="40" as="geometry" />
        </mxCell>
        <mxCell id="hiWJ6FiAwOVD0Gj_WVD6-361" value="2" style="whiteSpace=wrap;html=1;aspect=fixed;fillColor=none;" vertex="1" parent="hiWJ6FiAwOVD0Gj_WVD6-1">
          <mxGeometry x="1880" y="880" width="40" height="40" as="geometry" />
        </mxCell>
        <mxCell id="hiWJ6FiAwOVD0Gj_WVD6-362" value="" style="group" vertex="1" connectable="0" parent="hiWJ6FiAwOVD0Gj_WVD6-1">
          <mxGeometry x="1880" y="880" width="40" height="40" as="geometry" />
        </mxCell>
        <mxCell id="hiWJ6FiAwOVD0Gj_WVD6-363" value="&lt;font style=&quot;font-size: 11px&quot;&gt;0&lt;/font&gt;" style="whiteSpace=wrap;html=1;aspect=fixed;fillColor=none;" vertex="1" parent="hiWJ6FiAwOVD0Gj_WVD6-362">
          <mxGeometry width="20" height="20" as="geometry" />
        </mxCell>
        <mxCell id="hiWJ6FiAwOVD0Gj_WVD6-364" value="&lt;font style=&quot;font-size: 11px&quot;&gt;0&lt;/font&gt;" style="whiteSpace=wrap;html=1;aspect=fixed;fillColor=none;" vertex="1" parent="hiWJ6FiAwOVD0Gj_WVD6-362">
          <mxGeometry x="20" width="20" height="20" as="geometry" />
        </mxCell>
        <mxCell id="hiWJ6FiAwOVD0Gj_WVD6-365" value="&lt;font style=&quot;font-size: 11px&quot;&gt;0&lt;/font&gt;" style="whiteSpace=wrap;html=1;aspect=fixed;fillColor=none;" vertex="1" parent="hiWJ6FiAwOVD0Gj_WVD6-362">
          <mxGeometry y="20" width="20" height="20" as="geometry" />
        </mxCell>
        <mxCell id="hiWJ6FiAwOVD0Gj_WVD6-366" value="&lt;font style=&quot;font-size: 11px&quot;&gt;0&lt;/font&gt;" style="whiteSpace=wrap;html=1;aspect=fixed;fillColor=none;" vertex="1" parent="hiWJ6FiAwOVD0Gj_WVD6-362">
          <mxGeometry x="20" y="20" width="20" height="20" as="geometry" />
        </mxCell>
        <mxCell id="hiWJ6FiAwOVD0Gj_WVD6-367" value="" style="group" vertex="1" connectable="0" parent="hiWJ6FiAwOVD0Gj_WVD6-1">
          <mxGeometry x="1880" y="840" width="40" height="40" as="geometry" />
        </mxCell>
        <mxCell id="hiWJ6FiAwOVD0Gj_WVD6-368" value="&lt;font style=&quot;font-size: 11px&quot;&gt;0&lt;/font&gt;" style="whiteSpace=wrap;html=1;aspect=fixed;fillColor=none;" vertex="1" parent="hiWJ6FiAwOVD0Gj_WVD6-367">
          <mxGeometry width="20" height="20" as="geometry" />
        </mxCell>
        <mxCell id="hiWJ6FiAwOVD0Gj_WVD6-369" value="&lt;font style=&quot;font-size: 11px&quot;&gt;0&lt;/font&gt;" style="whiteSpace=wrap;html=1;aspect=fixed;fillColor=none;" vertex="1" parent="hiWJ6FiAwOVD0Gj_WVD6-367">
          <mxGeometry x="20" width="20" height="20" as="geometry" />
        </mxCell>
        <mxCell id="hiWJ6FiAwOVD0Gj_WVD6-370" value="&lt;font style=&quot;font-size: 11px&quot;&gt;0&lt;/font&gt;" style="whiteSpace=wrap;html=1;aspect=fixed;fillColor=none;" vertex="1" parent="hiWJ6FiAwOVD0Gj_WVD6-367">
          <mxGeometry y="20" width="20" height="20" as="geometry" />
        </mxCell>
        <mxCell id="hiWJ6FiAwOVD0Gj_WVD6-371" value="&lt;font style=&quot;font-size: 11px&quot;&gt;0&lt;/font&gt;" style="whiteSpace=wrap;html=1;aspect=fixed;fillColor=none;" vertex="1" parent="hiWJ6FiAwOVD0Gj_WVD6-367">
          <mxGeometry x="20" y="20" width="20" height="20" as="geometry" />
        </mxCell>
        <mxCell id="hiWJ6FiAwOVD0Gj_WVD6-372" value="" style="group" vertex="1" connectable="0" parent="hiWJ6FiAwOVD0Gj_WVD6-1">
          <mxGeometry x="1880" y="800" width="40" height="40" as="geometry" />
        </mxCell>
        <mxCell id="hiWJ6FiAwOVD0Gj_WVD6-373" value="&lt;font style=&quot;font-size: 11px&quot;&gt;0&lt;/font&gt;" style="whiteSpace=wrap;html=1;aspect=fixed;fillColor=none;" vertex="1" parent="hiWJ6FiAwOVD0Gj_WVD6-372">
          <mxGeometry width="20" height="20" as="geometry" />
        </mxCell>
        <mxCell id="hiWJ6FiAwOVD0Gj_WVD6-374" value="&lt;font style=&quot;font-size: 11px&quot;&gt;0&lt;/font&gt;" style="whiteSpace=wrap;html=1;aspect=fixed;fillColor=none;" vertex="1" parent="hiWJ6FiAwOVD0Gj_WVD6-372">
          <mxGeometry x="20" width="20" height="20" as="geometry" />
        </mxCell>
        <mxCell id="hiWJ6FiAwOVD0Gj_WVD6-375" value="&lt;font style=&quot;font-size: 11px&quot;&gt;0&lt;/font&gt;" style="whiteSpace=wrap;html=1;aspect=fixed;fillColor=none;" vertex="1" parent="hiWJ6FiAwOVD0Gj_WVD6-372">
          <mxGeometry y="20" width="20" height="20" as="geometry" />
        </mxCell>
        <mxCell id="hiWJ6FiAwOVD0Gj_WVD6-376" value="&lt;font style=&quot;font-size: 11px&quot;&gt;0&lt;/font&gt;" style="whiteSpace=wrap;html=1;aspect=fixed;fillColor=none;" vertex="1" parent="hiWJ6FiAwOVD0Gj_WVD6-372">
          <mxGeometry x="20" y="20" width="20" height="20" as="geometry" />
        </mxCell>
        <mxCell id="hiWJ6FiAwOVD0Gj_WVD6-377" value="" style="group" vertex="1" connectable="0" parent="hiWJ6FiAwOVD0Gj_WVD6-1">
          <mxGeometry x="1840" y="880" width="40" height="40" as="geometry" />
        </mxCell>
        <mxCell id="hiWJ6FiAwOVD0Gj_WVD6-378" value="&lt;font style=&quot;font-size: 11px&quot;&gt;0&lt;/font&gt;" style="whiteSpace=wrap;html=1;aspect=fixed;fillColor=none;" vertex="1" parent="hiWJ6FiAwOVD0Gj_WVD6-377">
          <mxGeometry width="20" height="20" as="geometry" />
        </mxCell>
        <mxCell id="hiWJ6FiAwOVD0Gj_WVD6-379" value="&lt;font style=&quot;font-size: 11px&quot;&gt;0&lt;/font&gt;" style="whiteSpace=wrap;html=1;aspect=fixed;fillColor=none;" vertex="1" parent="hiWJ6FiAwOVD0Gj_WVD6-377">
          <mxGeometry x="20" width="20" height="20" as="geometry" />
        </mxCell>
        <mxCell id="hiWJ6FiAwOVD0Gj_WVD6-380" value="&lt;font style=&quot;font-size: 11px&quot;&gt;0&lt;/font&gt;" style="whiteSpace=wrap;html=1;aspect=fixed;fillColor=none;" vertex="1" parent="hiWJ6FiAwOVD0Gj_WVD6-377">
          <mxGeometry y="20" width="20" height="20" as="geometry" />
        </mxCell>
        <mxCell id="hiWJ6FiAwOVD0Gj_WVD6-381" value="&lt;font style=&quot;font-size: 11px&quot;&gt;0&lt;/font&gt;" style="whiteSpace=wrap;html=1;aspect=fixed;fillColor=none;" vertex="1" parent="hiWJ6FiAwOVD0Gj_WVD6-377">
          <mxGeometry x="20" y="20" width="20" height="20" as="geometry" />
        </mxCell>
        <mxCell id="hiWJ6FiAwOVD0Gj_WVD6-382" value="" style="group" vertex="1" connectable="0" parent="hiWJ6FiAwOVD0Gj_WVD6-1">
          <mxGeometry x="1840" y="840" width="40" height="40" as="geometry" />
        </mxCell>
        <mxCell id="hiWJ6FiAwOVD0Gj_WVD6-383" value="&lt;font style=&quot;font-size: 11px&quot;&gt;0&lt;/font&gt;" style="whiteSpace=wrap;html=1;aspect=fixed;fillColor=none;" vertex="1" parent="hiWJ6FiAwOVD0Gj_WVD6-382">
          <mxGeometry width="20" height="20" as="geometry" />
        </mxCell>
        <mxCell id="hiWJ6FiAwOVD0Gj_WVD6-384" value="&lt;font style=&quot;font-size: 11px&quot;&gt;0&lt;/font&gt;" style="whiteSpace=wrap;html=1;aspect=fixed;fillColor=none;" vertex="1" parent="hiWJ6FiAwOVD0Gj_WVD6-382">
          <mxGeometry x="20" width="20" height="20" as="geometry" />
        </mxCell>
        <mxCell id="hiWJ6FiAwOVD0Gj_WVD6-385" value="&lt;font style=&quot;font-size: 11px&quot;&gt;0&lt;/font&gt;" style="whiteSpace=wrap;html=1;aspect=fixed;fillColor=none;" vertex="1" parent="hiWJ6FiAwOVD0Gj_WVD6-382">
          <mxGeometry y="20" width="20" height="20" as="geometry" />
        </mxCell>
        <mxCell id="hiWJ6FiAwOVD0Gj_WVD6-386" value="&lt;font style=&quot;font-size: 11px&quot;&gt;0&lt;/font&gt;" style="whiteSpace=wrap;html=1;aspect=fixed;fillColor=none;" vertex="1" parent="hiWJ6FiAwOVD0Gj_WVD6-382">
          <mxGeometry x="20" y="20" width="20" height="20" as="geometry" />
        </mxCell>
        <mxCell id="hiWJ6FiAwOVD0Gj_WVD6-387" value="" style="group" vertex="1" connectable="0" parent="hiWJ6FiAwOVD0Gj_WVD6-1">
          <mxGeometry x="1840" y="800" width="40" height="40" as="geometry" />
        </mxCell>
        <mxCell id="hiWJ6FiAwOVD0Gj_WVD6-388" value="&lt;font style=&quot;font-size: 11px&quot;&gt;0&lt;/font&gt;" style="whiteSpace=wrap;html=1;aspect=fixed;fillColor=none;" vertex="1" parent="hiWJ6FiAwOVD0Gj_WVD6-387">
          <mxGeometry width="20" height="20" as="geometry" />
        </mxCell>
        <mxCell id="hiWJ6FiAwOVD0Gj_WVD6-389" value="&lt;font style=&quot;font-size: 11px&quot;&gt;0&lt;/font&gt;" style="whiteSpace=wrap;html=1;aspect=fixed;fillColor=none;" vertex="1" parent="hiWJ6FiAwOVD0Gj_WVD6-387">
          <mxGeometry x="20" width="20" height="20" as="geometry" />
        </mxCell>
        <mxCell id="hiWJ6FiAwOVD0Gj_WVD6-390" value="&lt;font style=&quot;font-size: 11px&quot;&gt;0&lt;/font&gt;" style="whiteSpace=wrap;html=1;aspect=fixed;fillColor=none;" vertex="1" parent="hiWJ6FiAwOVD0Gj_WVD6-387">
          <mxGeometry y="20" width="20" height="20" as="geometry" />
        </mxCell>
        <mxCell id="hiWJ6FiAwOVD0Gj_WVD6-391" value="&lt;font style=&quot;font-size: 11px&quot;&gt;0&lt;/font&gt;" style="whiteSpace=wrap;html=1;aspect=fixed;fillColor=none;" vertex="1" parent="hiWJ6FiAwOVD0Gj_WVD6-387">
          <mxGeometry x="20" y="20" width="20" height="20" as="geometry" />
        </mxCell>
        <mxCell id="hiWJ6FiAwOVD0Gj_WVD6-392" value="" style="group" vertex="1" connectable="0" parent="hiWJ6FiAwOVD0Gj_WVD6-1">
          <mxGeometry x="1880" y="760" width="40" height="40" as="geometry" />
        </mxCell>
        <mxCell id="hiWJ6FiAwOVD0Gj_WVD6-393" value="&lt;font style=&quot;font-size: 11px&quot;&gt;0&lt;/font&gt;" style="whiteSpace=wrap;html=1;aspect=fixed;fillColor=none;" vertex="1" parent="hiWJ6FiAwOVD0Gj_WVD6-392">
          <mxGeometry width="20" height="20" as="geometry" />
        </mxCell>
        <mxCell id="hiWJ6FiAwOVD0Gj_WVD6-394" value="&lt;font style=&quot;font-size: 11px&quot;&gt;0&lt;/font&gt;" style="whiteSpace=wrap;html=1;aspect=fixed;fillColor=none;" vertex="1" parent="hiWJ6FiAwOVD0Gj_WVD6-392">
          <mxGeometry x="20" width="20" height="20" as="geometry" />
        </mxCell>
        <mxCell id="hiWJ6FiAwOVD0Gj_WVD6-395" value="&lt;font style=&quot;font-size: 11px&quot;&gt;0&lt;/font&gt;" style="whiteSpace=wrap;html=1;aspect=fixed;fillColor=none;" vertex="1" parent="hiWJ6FiAwOVD0Gj_WVD6-392">
          <mxGeometry y="20" width="20" height="20" as="geometry" />
        </mxCell>
        <mxCell id="hiWJ6FiAwOVD0Gj_WVD6-396" value="&lt;font style=&quot;font-size: 11px&quot;&gt;0&lt;/font&gt;" style="whiteSpace=wrap;html=1;aspect=fixed;fillColor=none;" vertex="1" parent="hiWJ6FiAwOVD0Gj_WVD6-392">
          <mxGeometry x="20" y="20" width="20" height="20" as="geometry" />
        </mxCell>
        <mxCell id="hiWJ6FiAwOVD0Gj_WVD6-397" value="" style="group" vertex="1" connectable="0" parent="hiWJ6FiAwOVD0Gj_WVD6-1">
          <mxGeometry x="1840" y="760" width="40" height="40" as="geometry" />
        </mxCell>
        <mxCell id="hiWJ6FiAwOVD0Gj_WVD6-398" value="&lt;font style=&quot;font-size: 11px&quot;&gt;0&lt;/font&gt;" style="whiteSpace=wrap;html=1;aspect=fixed;fillColor=none;" vertex="1" parent="hiWJ6FiAwOVD0Gj_WVD6-397">
          <mxGeometry width="20" height="20" as="geometry" />
        </mxCell>
        <mxCell id="hiWJ6FiAwOVD0Gj_WVD6-399" value="&lt;font style=&quot;font-size: 11px&quot;&gt;0&lt;/font&gt;" style="whiteSpace=wrap;html=1;aspect=fixed;fillColor=none;" vertex="1" parent="hiWJ6FiAwOVD0Gj_WVD6-397">
          <mxGeometry x="20" width="20" height="20" as="geometry" />
        </mxCell>
        <mxCell id="hiWJ6FiAwOVD0Gj_WVD6-400" value="&lt;font style=&quot;font-size: 11px&quot;&gt;0&lt;/font&gt;" style="whiteSpace=wrap;html=1;aspect=fixed;fillColor=none;" vertex="1" parent="hiWJ6FiAwOVD0Gj_WVD6-397">
          <mxGeometry y="20" width="20" height="20" as="geometry" />
        </mxCell>
        <mxCell id="hiWJ6FiAwOVD0Gj_WVD6-401" value="&lt;font style=&quot;font-size: 11px&quot;&gt;0&lt;/font&gt;" style="whiteSpace=wrap;html=1;aspect=fixed;fillColor=none;" vertex="1" parent="hiWJ6FiAwOVD0Gj_WVD6-397">
          <mxGeometry x="20" y="20" width="20" height="20" as="geometry" />
        </mxCell>
      </root>
    </mxGraphModel>
  </diagram>
</mxfile>
